STARTFONT 2.3
FONT -FontForge-Pacifico-Book-R-Normal--32-320-72-72-P-188-ISO10646-1
SIZE 32 72 72  2
FONTBOUNDINGBOX 72 62 -19 -15
COMMENT "Generated by fontforge, http://fontforge.sourceforge.net"
COMMENT "Copyright 2018 The Pacifico Project Authors (https://github.com/googlefonts/Pacifico)"
STARTPROPERTIES 41
FOUNDRY "FontForge"
FAMILY_NAME "Pacifico"
WEIGHT_NAME "Book"
SLANT "R"
SETWIDTH_NAME "Normal"
ADD_STYLE_NAME ""
PIXEL_SIZE 32
POINT_SIZE 320
RESOLUTION_X 72
RESOLUTION_Y 72
SPACING "P"
AVERAGE_WIDTH 188
CHARSET_REGISTRY "ISO10646"
CHARSET_ENCODING "1"
FONTNAME_REGISTRY ""
CHARSET_COLLECTIONS "ISO8859-2 ISO8859-5 ISO8859-9 ISO8859-4 ISO10646-1"
BITS_PER_PIXEL 2
FONT_NAME "Pacifico-Regular"
FACE_NAME "Pacifico Regular"
COPYRIGHT "Copyright 2018 The Pacifico Project Authors (https://github.com/googlefonts/Pacifico)"
FONT_VERSION "3.001"
FONT_ASCENT 26
FONT_DESCENT 6
UNDERLINE_POSITION -3
UNDERLINE_THICKNESS 2
X_HEIGHT 14
CAP_HEIGHT 26
DEFAULT_CHAR 1
RAW_ASCENT 800
RAW_DESCENT 200
NORM_SPACE 8
RELATIVE_WEIGHT 40
RELATIVE_SETWIDTH 50
SUPERSCRIPT_X 0
SUPERSCRIPT_Y 11
SUPERSCRIPT_SIZE 19
SUBSCRIPT_X 0
SUBSCRIPT_Y 2
SUBSCRIPT_SIZE 19
AVG_LOWERCASE_WIDTH 151
AVG_UPPERCASE_WIDTH 260
ENDPROPERTIES
CHARS 1514
STARTCHAR NULL.dup1
ENCODING 0
SWIDTH 0 0
DWIDTH 0 0
BBX 1 1 0 0
BITMAP
00
ENDCHAR
STARTCHAR nonmarkingreturn
ENCODING 13
SWIDTH 265 0
DWIDTH 8 0
BBX 1 1 0 0
BITMAP
00
ENDCHAR
STARTCHAR space
ENCODING 32
SWIDTH 265 0
DWIDTH 8 0
BBX 1 1 0 0
BITMAP
00
ENDCHAR
STARTCHAR exclam
ENCODING 33
SWIDTH 340 0
DWIDTH 11 0
BBX 11 27 1 0
BITMAP
0006F4
000FF8
001FF4
001FF4
002FF0
003FE0
003FD0
007FC0
00BFC0
00BF80
00FF40
01FF00
01FE00
02FD00
02FC00
03F800
03F400
07F000
07E000
014000
000000
2F8000
BFE000
FFF000
FFF000
BFE000
2F8000
ENDCHAR
STARTCHAR quotedbl
ENCODING 34
SWIDTH 510 0
DWIDTH 16 0
BBX 14 11 3 16
BITMAP
07E01F80
1FF07FC0
2FF0BFD0
2FF0BFC0
3FE0FF80
3FE0FF80
3FD0FF40
7FC0FF00
7FC1FF00
7F81FE00
2E00B800
ENDCHAR
STARTCHAR numbersign
ENCODING 35
SWIDTH 700 0
DWIDTH 22 0
BBX 21 19 1 0
BITMAP
0002F002E000
0007F80BF400
000BF40FF000
000FF01FE000
1FFFFFFFFF40
2FFFFFFFFF80
1FFFFFFFFF80
05BFD5BF9500
007F80BF4000
00BF40FF0000
00FF01FE0000
16FF56FE5400
BFFFFFFFFD00
FFFFFFFFFD00
7FFFFFFFFC00
07F80BF40000
0BF40FF00000
0BF00FE00000
07900B800000
ENDCHAR
STARTCHAR dollar
ENCODING 36
SWIDTH 524 0
DWIDTH 17 0
BBX 15 27 1 -4
BITMAP
0000B400
0000F400
0000F400
0001F000
006FFE00
02FFFFD0
0BFFFFF0
1FF6EBF4
1FD2D3F4
2FD3D2F0
1FE3D040
0FFFC000
07FFE000
01FFFE00
002FFF80
000BFFE0
2D0F5FF0
BE0F4BF0
BF0F4BF0
BF9F6FE0
3FFFFFC0
0BFFFE00
01BFA400
002E0000
003D0000
003D0000
003C0000
ENDCHAR
STARTCHAR percent
ENCODING 37
SWIDTH 896 0
DWIDTH 29 0
BBX 28 24 1 0
BITMAP
00BF8000078000
07FFF0001FD000
0FFFF8007FD000
2FCBFC02FFC000
3F47FEAFFF4000
7F47FFFFFE0000
7F02FFFFFC0000
7F01FFAFF80000
7F41F81FF00000
3F87F43FD00000
2FFFE0BF800000
0BFF81FF40AA40
01A902FE07FFE0
000007FC1FFFF4
00000FF43F87F8
00002FE07F02FC
00003FD0BF01FD
0000BF80BE01FC
0001FF00BE01FC
0002FD00BF02F8
0007FC007F47F4
000BF4003FFFE0
000FE0001FFFC0
0007800006F900
ENDCHAR
STARTCHAR ampersand
ENCODING 38
SWIDTH 851 0
DWIDTH 27 0
BBX 26 31 1 -2
BITMAP
00000550000000
00007FFE000000
0002FFFFC00000
000BFFFFE00000
001FF41FF00000
002FE00BF40000
003FC00BF40000
003FC00BF40000
007FC00FF00000
003FC01FE00000
003FD07FD00000
002FE1FF800000
001FFBFE000000
000BFFF8000000
000BFFD0000000
002FFF40000000
01FFFFC0000680
07FFBFE0002FD0
0FFD2FF8007FD0
2FF40FFD00FF80
3FD007FF43FE00
7FC001FFDFFC00
BFC000BFFFF400
BFC0003FFFD000
7FE0002FFF4000
2FFE9AFFFF8000
0FFFFFFFFFE000
02FFFFFDBFF800
006BFE902FFD00
000000000BFD00
0000000002F800
ENDCHAR
STARTCHAR quotesingle
ENCODING 39
SWIDTH 290 0
DWIDTH 9 0
BBX 6 11 3 16
BITMAP
07E0
1FF0
2FF0
2FF0
3FE0
3FE0
3FD0
7FC0
7FC0
7F80
2E00
ENDCHAR
STARTCHAR parenleft
ENCODING 40
SWIDTH 613 0
DWIDTH 20 0
BBX 21 35 3 -5
BITMAP
000001BFA400
00002FFFFE00
0001FFFFFF40
0007FFE6FF80
000FFD002F00
002FF4000000
007FD0000000
00FF80000000
01FF00000000
03FE00000000
07FC00000000
0BF800000000
0FF400000000
1FF000000000
2FE000000000
3FD000000000
3FD000000000
7FC000000000
BFC000000000
BF8000000000
BF8000000000
FF4000000000
FF4000000000
FF4000000000
FF4000000000
FF4000000000
FF4000000000
FF4000000000
BF8000B80000
7FC002FC0000
3FE41FF80000
1FFFFFF00000
0BFFFF800000
01FFF9000000
001540000000
ENDCHAR
STARTCHAR parenright
ENCODING 41
SWIDTH 613 0
DWIDTH 20 0
BBX 21 35 -3 -5
BITMAP
000006FE4000
00007FFFF400
0002FFFFFD00
000BFF9BFE00
000FF401FF40
000FD000BF80
000600007F80
000000007FC0
000000007FC0
000000007FC0
000000007FC0
000000007FC0
000000007FC0
000000007FC0
00000000BF80
00000000BF80
00000000FF40
00000000FF40
00000001FF00
00000002FE00
00000003FE00
00000007FD00
0000000BFC00
0000000FF800
0000001FF000
0000002FE000
0000007FD000
000000FF8000
000002FF0000
18000BFD0000
7F907FF80000
BFFFFFE00000
7FFFFF400000
0BFFF8000000
005540000000
ENDCHAR
STARTCHAR asterisk
ENCODING 42
SWIDTH 520 0
DWIDTH 17 0
BBX 14 14 3 16
BITMAP
0002D000
0007E000
0B4BE000
1FD7D2D0
1FFB9FE0
02FFFFE0
007FFFD0
2FFFE400
7FFFFD00
7F9FBF80
2E2F3FC0
003F0B40
007F0000
002D0000
ENDCHAR
STARTCHAR plus
ENCODING 43
SWIDTH 700 0
DWIDTH 22 0
BBX 18 19 2 0
BITMAP
00002E0000
00007F0000
0000BF0000
0000BF0000
0000BF0000
0000FE0000
0000FE0000
0000FE0000
2FFFFFFFE0
7FFFFFFFF0
7FFFFFFFF0
1556FD5540
0002FC0000
0003F80000
0003F80000
0003F40000
0007F40000
0007F40000
0002E00000
ENDCHAR
STARTCHAR comma
ENCODING 44
SWIDTH 257 0
DWIDTH 8 0
BBX 7 11 0 -5
BITMAP
07D0
1FF4
2FF4
2FF4
2FF0
2FE0
3FD0
3F80
7F40
7E00
7C00
ENDCHAR
STARTCHAR hyphen
ENCODING 45
SWIDTH 403 0
DWIDTH 13 0
BBX 10 4 2 8
BITMAP
5ABFD0
FFFFE0
FFFFE0
BFEA40
ENDCHAR
STARTCHAR period
ENCODING 46
SWIDTH 257 0
DWIDTH 8 0
BBX 6 6 1 0
BITMAP
2F80
BFE0
FFE0
FFE0
BFD0
2F40
ENDCHAR
STARTCHAR slash
ENCODING 47
SWIDTH 509 0
DWIDTH 16 0
BBX 18 30 0 0
BITMAP
00000007D0
0000000FE0
0000001FE0
0000003FD0
0000007FC0
000000FF40
000002FE00
000003FD00
00000BF800
00001FF400
00002FE000
00007FC000
0000BF8000
0001FF0000
0002FE0000
0007FC0000
000FF40000
001FF00000
003FD00000
00BF800000
00FF400000
02FE000000
03FD000000
0BF8000000
1FF4000000
2FE0000000
7FC0000000
BF80000000
BF00000000
3D00000000
ENDCHAR
STARTCHAR zero
ENCODING 48
SWIDTH 543 0
DWIDTH 17 0
BBX 16 19 1 0
BITMAP
001BF900
00BFFF80
02FFFFE0
07FE6FF4
0FF40BF8
1FE003FC
2FD003FC
3FC002FD
7F8002FD
7F8003FC
7F8003FC
7F8003FC
7F8007F8
3FC00BF4
3FD01FF0
2FF9BFD0
0FFFFF80
07FFFD00
006FE400
ENDCHAR
STARTCHAR one
ENCODING 49
SWIDTH 376 0
DWIDTH 12 0
BBX 9 19 2 0
BITMAP
01AF00
2FFF80
FFFF80
FFFF40
B9FF40
01FF00
01FF00
02FE00
02FE00
03FD00
03FD00
03FD00
07FC00
07FC00
07FC00
0BF800
0BF800
0BF400
06E000
ENDCHAR
STARTCHAR two
ENCODING 50
SWIDTH 560 0
DWIDTH 18 0
BBX 16 19 1 0
BITMAP
001BFE40
01BFFFD0
03FFFFF4
0BFE6FF8
0FF007FC
1FE007FC
1FD007FC
0FC00BF8
01000FF4
00002FF0
0000BFD0
0002FF40
000BFD00
007FF400
07FF8000
2FFE5554
7FFFFFFD
7FFFFFFE
7FFFFFF8
ENDCHAR
STARTCHAR three
ENCODING 51
SWIDTH 520 0
DWIDTH 17 0
BBX 15 19 1 0
BITMAP
006FF900
02FFFFD0
0FFFFFF0
2FF9BFF4
3FC00FF8
3F800FF4
1E001FF0
00007FD0
001BFF40
003FFC00
003FFF40
0005BFD0
68001FF0
FD001FF4
FE002FF0
FFE6BFF0
BFFFFFD0
2FFFFF40
06BFE400
ENDCHAR
STARTCHAR four
ENCODING 52
SWIDTH 577 0
DWIDTH 18 0
BBX 17 19 1 0
BITMAP
000BD00000
002FE00000
007FC00000
00BF800000
01FF01F800
02FE03FC00
07FC07F800
0BF807F800
0FF00BF400
2FE00FF400
3FD00FF000
7FD56FF500
7FFFFFFF80
7FFFFFFF80
2FFFFFFE00
00002FD000
00002FD000
00002FC000
00001F4000
ENDCHAR
STARTCHAR five
ENCODING 53
SWIDTH 518 0
DWIDTH 17 0
BBX 15 19 1 0
BITMAP
06FFFFF8
1FFFFFFC
2FFFFFF8
0BFD5550
07F40000
0BF40000
0BF00000
0FF54000
1FFFF900
1FFFFF80
0BFFFFD0
0001BFF0
14001FF0
7F000FF4
7F401FF0
7FE9BFE0
3FFFFFC0
1FFFFE40
01BFE400
ENDCHAR
STARTCHAR six
ENCODING 54
SWIDTH 541 0
DWIDTH 17 0
BBX 16 19 1 0
BITMAP
0006FE40
007FFFF0
01FFFFF8
07FF9BFD
0FF802FD
1FE000FD
2FD00000
3FC6F900
7FEFFF80
7FFFFFE0
7FFABFF0
7FE00FF4
7FD00BF4
7FC00BF4
3FE01FF0
2FF9BFE0
0FFFFFC0
03FFFF40
006FE400
ENDCHAR
STARTCHAR seven
ENCODING 55
SWIDTH 497 0
DWIDTH 16 0
BBX 16 19 1 0
BITMAP
2AA955A8
7FFFFFFE
BFFFFFFE
7FFFFFFC
00002FE0
0001FF40
0003FD00
000BF400
002FE000
007FC000
00BF8000
00FF4000
01FF0000
02FE0000
03FE0000
03FD0000
03FD0000
03FC0000
01F40000
ENDCHAR
STARTCHAR eight
ENCODING 56
SWIDTH 512 0
DWIDTH 16 0
BBX 15 19 1 0
BITMAP
006BFA00
02FFFFD0
0BFFFFF0
0FFE6FF4
1FE007F8
2FD007F4
1FE00BF0
0FF86FD0
07FFFF40
02FFFE00
07FFFF80
2FE1BFE0
7F801FF0
BF400BF4
BF400FF0
BFE9BFE0
7FFFFFD0
1FFFFF40
01BFE400
ENDCHAR
STARTCHAR nine
ENCODING 57
SWIDTH 541 0
DWIDTH 17 0
BBX 15 19 1 0
BITMAP
001BF900
01FFFF80
07FFFFE0
0FFEAFF4
1FF00BF8
2FE007FC
2FD007FC
2FE00FFC
1FF9BFFC
0FFFFFFC
07FFFBFC
00BF97F8
00000BF4
7E000FF0
BF402FE0
BFE6FFC0
3FFFFF40
1FFFF900
02BF9000
ENDCHAR
STARTCHAR colon
ENCODING 58
SWIDTH 257 0
DWIDTH 8 0
BBX 7 15 1 0
BITMAP
0BE0
2FF8
3FFC
3FFC
2FF8
0BE0
0000
0000
0000
2F80
BFE0
FFE0
FFE0
BFD0
2F40
ENDCHAR
STARTCHAR semicolon
ENCODING 59
SWIDTH 257 0
DWIDTH 8 0
BBX 8 20 0 -5
BITMAP
02F8
0BFE
0FFF
0FFF
0BFE
02F8
0000
0000
0000
07D0
1FF4
2FF4
2FF4
2FF0
2FE0
3FD0
3F80
7F40
7E00
7C00
ENDCHAR
STARTCHAR less
ENCODING 60
SWIDTH 700 0
DWIDTH 22 0
BBX 19 15 2 2
BITMAP
0000000050
0000001BF8
000006FFF8
0001BFFFF0
006FFFFE40
07FFFF9000
2FFFE40000
7FF9000000
7FFE400000
2FFFF80000
02FFFF9000
001BFFFE40
00006FFFD0
000006FFD0
0000001B80
ENDCHAR
STARTCHAR equal
ENCODING 61
SWIDTH 700 0
DWIDTH 22 0
BBX 19 11 2 4
BITMAP
1FFFFFFFF4
2FFFFFFFF8
2FFFFFFFF4
0555555550
0000000000
0000000000
0000000000
1555555540
7FFFFFFFE0
BFFFFFFFE0
7FFFFFFF80
ENDCHAR
STARTCHAR greater
ENCODING 62
SWIDTH 700 0
DWIDTH 22 0
BBX 19 15 2 2
BITMAP
0540000000
1FE4000000
2FFF900000
0FFFFD0000
01BFFFE400
0007FFFF80
00006FFFF0
000001BFF4
000006FFF0
0001BFFFD0
006FFFF900
1BFFFE4000
BFFF900000
BFE4000000
7900000000
ENDCHAR
STARTCHAR question
ENCODING 63
SWIDTH 476 0
DWIDTH 15 0
BBX 15 27 2 0
BITMAP
006FF900
02FFFFC0
0FFFFFF0
2FF9BFF4
3FC01FF8
3F800FF8
3F800FF8
2F401FF4
05003FE0
0000BFD0
0002FF40
000BFD00
002FF400
00BFC000
01FF0000
02FC0000
03F40000
03F00000
03E00000
01400000
00000000
2F800000
BFE00000
FFF00000
FFF00000
BFE00000
2F800000
ENDCHAR
STARTCHAR at
ENCODING 64
SWIDTH 1015 0
DWIDTH 32 0
BBX 31 33 1 -9
BITMAP
0000001AFFE40000
000006FFFFFF9000
00006FFFFFFFF400
0002FFFE96BFFE00
000BFF900006FF40
002FF8000000BFC0
00BFD00000002FE0
01FF400000000FF0
03FE000000000BF0
07FC0006F40007F4
0FF4002FFE9007F4
1FF000FFFFE007F4
2FE003FFAFE007F4
3FD00BFD1FD007F4
7FC00FF42FD00BF4
7F802FE03FC00BF0
BF803FD03FC01FE0
BF403FC07F802FD0
BF403FC0BF807FC0
BF403FC0FF80FF40
BF803FEBFFEBFE00
BF802FFFEFFFFC00
7FC00FFF8BFFE000
3FC002F902FE4000
3FE0000000000000
1FF4000000000000
0FFC000000001400
07FF40000001BD00
01FFE400006FFE00
007FFFA9ABFFFC00
001FFFFFFFFFE000
0001FFFFFFFA0000
000016FFFA400000
ENDCHAR
STARTCHAR A
ENCODING 65
SWIDTH 786 0
DWIDTH 25 0
BBX 29 27 1 0
BITMAP
0000001AFFEA4000
000006FFFFFFE000
00006FFFFFFFE000
0001FFFE96AFD000
000BFF9000010000
002FFD0006900000
007FE0000FF40000
01FFC0001FF40000
02FF40001FF00000
07FE00002FF00000
0BFC00003FE00000
0FF800003FD00000
1FF400007FD00000
2FF00000BFC00000
3FE00000FFC00000
3FE00000FF800000
3FE00001FF800000
7FE00002FF400000
7FE00007FF400000
3FE0000BFF400000
3FF0001FFF400B00
2FF4003FFF401F40
1FFC00BEFF807F00
0BFF9BFCFFEAFD00
03FFFFF4BFFFF400
00BFFFD03FFFD000
001BF9000BFA0000
ENDCHAR
STARTCHAR B
ENCODING 66
SWIDTH 827 0
DWIDTH 26 0
BBX 28 29 0 -2
BITMAP
000016BFFE9400
0016FFFFFFFE40
01BFFFFFFFFFE0
1BFFFEA96BFFF8
3FFE5000006FFD
7FE00000000BFE
3D0054000003FE
0003FD000003FE
0007FD000007FE
000BFC00000BFD
000FF800006FF8
000FF40016FFE0
001FF41FFFFF40
002FF02FFFE400
002FE02FFFD000
003FE016BFF800
003FD0000BFE00
007FD00002FF00
007FC00001FF40
00BFC00002FF40
00BF800003FF00
00FF80000BFE00
00FF40006FFC00
00FFA5ABFFF400
01FFFFFFFFD000
01FFFFFFF90000
01FFFFFA400000
01FF0000000000
00540000000000
ENDCHAR
STARTCHAR C
ENCODING 67
SWIDTH 686 0
DWIDTH 22 0
BBX 24 27 2 0
BITMAP
00001BFE8000
0001FFFFF400
001FFFFFFD00
007FFEABFE00
01FFE001FF40
03FF4000FF40
0BFD0000FF40
0FF80000FF40
2FF40000FF00
3FE00000FE00
7FD000006800
BFC000000000
BFC000000000
BFC000000000
FF8000000000
FF8000000000
FF8000000000
FFC000000000
BFD000000000
7FE000000000
3FF400000000
2FFC0000001A
0FFF400006FF
03FFFA9ABFFE
00BFFFFFFFF8
001FFFFFFF90
0001AFFE9400
ENDCHAR
STARTCHAR D
ENCODING 68
SWIDTH 836 0
DWIDTH 27 0
BBX 25 27 1 0
BITMAP
0001AFFE900000
006FFFFFFE0000
0BFFFFFFFFD000
3FFFEA6BFFF400
7FF400007FFC00
7E4000000BFE00
2401500003FF40
001FF00001FF80
002FF00000FFC0
003FE00000BFC0
003FD00000BFC0
007FC00000BFC0
00BFC00000BFC0
00BF800000BFC0
00FF400000FFC0
01FF400000FF80
01FF000001FF40
02FF000002FF00
02FE000007FE00
03FE00000BFD00
03FD00002FF800
07FD0000BFF000
07FD0007FFC000
07FE5ABFFE0000
07FFFFFFF80000
07FFFFFF800000
01AFFFA4000000
ENDCHAR
STARTCHAR E
ENCODING 69
SWIDTH 686 0
DWIDTH 22 0
BBX 25 27 1 0
BITMAP
00001AFFA00000
0002FFFFFE0000
001FFFFFFF8000
007FFE96FFD000
00FFE0003FE000
02FF80002FE000
02FF00001FE000
03FF00002FE000
02FF00002FD000
01FF80001F8000
00FFE400000000
002FFFF0000000
000BFFF4000000
00BFFFF0000000
07FFEA50000000
1FFD0000000000
3FF00000000000
BFD00000000000
FFC00000000000
FF800000000000
FFC00000000000
BFD00000000680
7FF8000005BFC0
2FFFE96AFFFF80
0BFFFFFFFFFE00
01BFFFFFFFE400
0006BFFEA50000
ENDCHAR
STARTCHAR F
ENCODING 70
SWIDTH 712 0
DWIDTH 23 0
BBX 30 27 0 0
BITMAP
000005ABFFFFEA40
0001BFFFFFFFFFF0
002FFFFFFFFFFFF0
00BFFEBFE555AB90
02FF407FD0000000
03FC007FC0000000
03F8007FC0000000
07F800BFC0000000
03FC00BFC0000000
02FD00BF80000000
01FC00BF80000000
000000FF80000000
00007FFFFFFE0000
0000BFFFFFFF0000
0000BFFFFFFE0000
000016FF55540000
000002FF00000000
000002FE00000000
000002FE00000000
000003FD00000000
600007FC00000000
FC000BFC00000000
FE002FF400000000
BFE6FFF000000000
3FFFFFD000000000
0BFFFF4000000000
01AFE40000000000
ENDCHAR
STARTCHAR G
ENCODING 71
SWIDTH 811 0
DWIDTH 26 0
BBX 28 42 2 -15
BITMAP
00001AFF900000
0001FFFFFD0000
000BFFFFFF0000
007FFE9AFF8000
01FFE000BFC000
03FF40003FD000
0BFD00003FD000
0FF800003FD000
2FF400007FC000
3FE000003F8000
7FD00000190000
BFC00000000000
BFC00000000000
BFC00000000000
FF800000000000
FF80002FFFE000
FF80003FFFF000
FFC0003FFFF000
BFD000055FF000
7FE000000FE000
3FF000001FE01C
2FFC00001FD0BD
0FFF40002FD7FD
03FFFA5AFFEFF4
00BFFFFFFFFF80
001FFFFFFFFD00
0001AFFA7FE000
00000001FF8000
00000007FF4000
0000001FFF0000
0000007FFF0000
000001FDFE0000
000007F5FD0000
00000BD1FC0000
00001F82F80000
00003F03F40000
00007E0BF00000
00007E0FE00000
00007FBFC00000
00007FFF400000
00002FFE000000
00000BE4000000
ENDCHAR
STARTCHAR H
ENCODING 72
SWIDTH 873 0
DWIDTH 28 0
BBX 33 28 -1 0
BITMAP
0000000000001BE000
000AF90000007FF800
00BFFF400001FFFC00
02FFFFC00007F87D00
0FFABFD0000BF07D00
2FD03FD0001FE07D00
7F003FE0002FD07D00
7C002FE0003FC0BC00
24003FD0007F80FC00
00003FD000BF42F400
00003FD000FF0BF000
00007FC001FF6FD000
00007FC001FFFF4000
0000BFD55AFFFD0000
007FFFFFFFFFE00000
00FFFFFFFFFE400000
00BFFFFEA7FD000000
0016FF0003FD000000
0002FE0003FD000000
0003FE0003FD000000
0003FD0003FD000000
0007FC0003FE0003C0
000BFC0002FE000BC0
000BF80001FF402F80
000FF40000FFE6FF40
001FF400007FFFFD00
001FE000001FFFE000
000B80000002FE4000
ENDCHAR
STARTCHAR I
ENCODING 73
SWIDTH 495 0
DWIDTH 16 0
BBX 19 27 -1 0
BITMAP
002FFFFFF4
00BFFFFFF8
00BFFFFFF4
0015BFE550
00007FD000
00007FD000
0000BFC000
0000BFC000
0000BF8000
0000FF8000
0000FF4000
0001FF4000
0001FF0000
0002FF0000
0002FE0000
0003FE0000
0003FD0000
0007FD0000
0007FC0000
000BFC0000
000BFC0000
000FF80000
000FF80000
056FF95000
3FFFFFFC00
7FFFFFFC00
7FFFFFF400
ENDCHAR
STARTCHAR J
ENCODING 74
SWIDTH 743 0
DWIDTH 24 0
BBX 23 31 2 -4
BITMAP
0005AFFFE940
007FFFFFFFF4
07FFFFFFFFF4
1FFFA95AFFF4
3FE40000BF80
7F800000FF80
BF400000FF80
BF000000FF40
BF400001FF40
7F800001FF00
3F800001FF00
1A000002FE00
00000002FE00
0000006FFD00
000006FFFD00
00002FFFFC00
0001FFFBFC00
0007FF4BF800
001FF80FF400
007FD00FF000
00FF401FE000
02FE002FD000
03FD003FC000
03FC00BF8000
07F800FF0000
07FC02FE0000
03FE1BFC0000
02FFFFF40000
01FFFFD00000
007FFE000000
000550000000
ENDCHAR
STARTCHAR K
ENCODING 75
SWIDTH 937 0
DWIDTH 30 0
BBX 33 27 1 0
BITMAP
0006BFF940000BD000
007FFFFFE0002FE000
02FFFFFFF0003FE000
0BFF96FFE0007FD000
1FF400FF4000BFC000
2FD001FF4001FF4000
3FC001FF0002FF0000
3FC002FF0007FD0000
2FD002FE000FF80000
1FE003FE002FF00000
0FD003FD00BFD00000
014003FD07FF000000
00001BFEBFF8000000
0000BFFFFF90000000
0000BFFFFD00000000
00007FFFFF80000000
00000FF9BFE0000000
00000FF43FF4000000
00000FF41FF8000000
00001FF00BFD000000
B8002FF007FE0002C0
FD003FE003FF400BC0
FF00BFD001FFC02FC0
BFE6FF8000BFFAFF40
7FFFFF00007FFFFD00
1FFFFD00001FFFF400
01BF90000002FE4000
ENDCHAR
STARTCHAR L
ENCODING 76
SWIDTH 673 0
DWIDTH 22 0
BBX 28 27 -2 0
BITMAP
00000006FFA000
000000BFFFFD00
000002FFFFFF40
00000FFFAAFFC0
00002FF8007FD0
00007FE0003FD0
0000FFC0002FD0
0001FF80003FD0
0001FF40003FC0
0002FF00003F80
0002FF00000500
0003FE00000000
0003FE00000000
0003FE00000000
0003FD00000000
0003FD00000000
0007FD00000000
0007FC00000000
0007FC00000000
0007FC00000009
02BFF90000002E
1FFFFFE40000BE
3FFFFFFFA407FD
7FFFFFFFFFFFF8
7FFFDBFFFFFFE0
2FFF406FFFFF40
0BF90001AFE400
ENDCHAR
STARTCHAR M
ENCODING 77
SWIDTH 1232 0
DWIDTH 39 0
BBX 44 27 0 0
BITMAP
001BE4001BE4000AF90000
01FFFC01FFFD007FFF4000
0BFFFD07FFFF02FFFFC000
1FEAFE1FEAFF47FAFFD000
7F41FE2F40BF8FD07FE000
BD01FE7D007FAF403FE000
F801FEF8007FBD003FE000
6001FEF0007FFC003FD000
0002FFE0007FF4007FD000
0002FFD000BFF000BFC000
0002FF8000BFE000BFC000
0003FF4000FFD000FF8000
0003FF0000FFC001FF4000
0007FE0001FF8001FF4000
0007FE0001FF4002FF0000
000BFD0002FF0002FF0000
000BFC0003FF0003FE0000
000FFC0003FE0007FD0000
000FF80007FE0007FD0000
001FF40007FD0007FC0000
001FF4000BFC000BFC001D
002FF0000BFC000BFC007E
002FF0000FFC0007FD01FD
002FF0000FF80003FF9BF8
002FE0000FF80002FFFFE0
002FD0000FF40000BFFF80
001F800007E000001BF800
ENDCHAR
STARTCHAR N
ENCODING 78
SWIDTH 884 0
DWIDTH 28 0
BBX 33 27 0 0
BITMAP
001BF4000AFE000000
01FFFD007FFFD00000
07FFFE02FFFFF00000
1FEAFE0BF9BFF40000
7F41FF1FD01FF40000
FD01FF3F000FF80000
F801FE7C000FF40000
6001FEF4001FF40000
0002FEF0001FF40000
0002FFD0002FF00000
0002FFC0003FE00000
0003FF80003FE00000
0003FF40007FD00000
0007FF0000BFC00000
0007FE0000BFC00000
000BFD0000FF800000
000BFC0000FF400000
000FFC0001FF400000
000FF80002FF000000
001FF40002FF000000
001FF40002FF000740
002FF00002FF001F40
002FF00002FF407F40
002FF00001FFEAFE00
002FE00000BFFFF800
002FD000003FFFD000
001F80000006FA0000
ENDCHAR
STARTCHAR O
ENCODING 79
SWIDTH 816 0
DWIDTH 26 0
BBX 24 27 2 0
BITMAP
00001BFE9000
0001FFFFF800
001FFFFFFF40
007FFE9BFFD0
01FFD000BFF0
03FF40002FF4
0BFD00000FFC
0FF800000BFC
2FF4000007FD
3FE0000007FD
7FD0000007FE
7FD0000007FD
BFC0000007FD
BFC0000007FD
FF80000007FD
FF8000000BFC
FF8000000FF8
FFC000000FF4
BFC000002FF0
BFD000003FE0
7FE00000BFC0
3FF40002FF40
1FFD000BFE00
0BFFE6BFF800
02FFFFFFE000
007FFFFE4000
0006FFA40000
ENDCHAR
STARTCHAR P
ENCODING 80
SWIDTH 805 0
DWIDTH 26 0
BBX 26 31 1 -4
BITMAP
000001AFFA4000
00001FFFFFE000
0001FFFFFFFD00
0007FFA5BFFF00
001FF80007FF80
007FD00001FFC0
00FF41F800BFD0
02FD07FC007FD0
07F807FC007FD0
0BF40BFC00BFD0
0FE00BF800BFC0
1FD00FF801FF80
2FC00FF403FF00
3F801FF41FFD00
3F816FF5BFF800
7F4BFFFFFFD000
7F4BFFFFFE4000
7F06FFFF900000
7F003FD0000000
BF007FD0000000
BF007FC0000000
7F00BF80000000
7F40BF80000000
7F40FF40000000
3F80FF40000000
2FC1FF00000000
1FE2FF00000000
0BFFFE00000000
02FFFC00000000
00BFF400000000
00054000000000
ENDCHAR
STARTCHAR Q
ENCODING 81
SWIDTH 816 0
DWIDTH 26 0
BBX 26 37 2 -10
BITMAP
00001BFE900000
0001FFFFF80000
001FFFFFFF4000
007FFE9BFFD000
01FFE000BFF000
03FF40002FF400
0BFD00000FF800
0FF800000BFC00
2FF0000007FD00
3FE0000007FD00
7FD0000007FE00
7FC0000007FE00
BFC0000007FD00
BFC0000007FD00
FF80000007FD00
FF8000000BFC00
FF8000000FF800
FFC000001FF400
BFC000002FF000
BFD000007FE000
7FE00000FFC000
2FF80002FF8000
1FFE001FFE0000
0BFFEAFFF80000
02FFFFFFE00000
007FFFFE400000
0006FFF4000000
00001FFD000000
00000BFF000000
000003FF400000
000001FF800070
000000FFD001F0
0000007FF007F0
0000003FFE6FD0
0000001FFFFF80
00000007FFFD00
00000000BFE000
ENDCHAR
STARTCHAR R
ENCODING 82
SWIDTH 880 0
DWIDTH 28 0
BBX 32 27 1 0
BITMAP
000001BFF9400000
00006FFFFFE00000
0002FFFFFFFD0000
000FFFA6BFFF0000
003FF40007FF4000
00BF800002FF8000
02FE02A400FFC000
03F807F800FFC000
0BF00BF800FF8000
0FE00FF801FF4000
1FD00FF402FF0000
2FC01FF407FD0000
2F801FF02FF80000
3F806FFAFFE00000
3F43FFFFFE400000
3F43FFFFF4000000
7F42FFFFFD000000
7F407FD7FF400000
3F407FC1FF800000
3F40BF80BFD00000
3F80BF807FE0001C
2FC0FF402FF4007D
1FE1FF401FFD01FC
0BFAFF000BFFABF4
03FFFE0003FFFFD0
00FFFD0001FFFF40
001BE400002FE400
ENDCHAR
STARTCHAR S
ENCODING 83
SWIDTH 693 0
DWIDTH 22 0
BBX 21 27 1 0
BITMAP
00006BFE4000
000BFFFFF800
007FFFFFFE00
01FFFA6BFF40
03FF4000BFC0
07FD00003FC0
0BFC00003FC0
0BFC00003FC0
0BFC00003F80
07FE00002F40
03FFD0000000
01FFF9000000
007FFFE00000
001FFFFE0000
0001BFFFD000
00001BFFF800
0000007FFD00
2E00000BFE00
BF400002FF00
BF400001FF00
FF400002FF00
BF400003FE00
BFD0000BFD00
7FFE96BFF800
1FFFFFFFE000
07FFFFFF4000
006BFFA40000
ENDCHAR
STARTCHAR T
ENCODING 84
SWIDTH 697 0
DWIDTH 22 0
BBX 28 27 1 0
BITMAP
00016AFFFFFFE8
006FFFFFFFFFFE
07FFFFFFFFFFFE
1FFEA5FF9556A8
7FD000FF800000
BF4001FF400000
BF0001FF000000
FF0002FF000000
BF4003FE000000
7F8003FE000000
2F4007FD000000
040007FD000000
00000BFC000000
00000BFC000000
00000FF8000000
00000FF4000000
00001FF4000000
00001FF4000000
00002FF0000000
00002FF0000000
00003FE0000000
00003FE0000000
00003FE0000000
00007FD0000000
00007FD0000000
00007FC0000000
00002F40000000
ENDCHAR
STARTCHAR U
ENCODING 85
SWIDTH 890 0
DWIDTH 28 0
BBX 33 27 0 0
BITMAP
001BF8000002E00000
01FFFE00000BF40000
07FFFF40000BF80000
1FFAFF80000FF80000
7F80FF80000FF80000
BE00FF80001FF40000
F800FF80001FF40000
A000FF40002FF00000
0001FF40002FF00000
0002FF00003FE00000
0002FF00007FE00000
0003FE00007FD00000
0007FD0000BFD00000
0007FD0000FFC00000
000BFC0001FFC00000
000FF80002FFC00000
000FF80003FF800000
001FF4000BFF800000
001FF0000FFF400000
002FF0002EFF400000
002FF0007DFF400240
002FF001F8FF400F80
002FF007F0FF807F40
002FFEAFD0FFE6FF00
000FFFFF40BFFFF800
0007FFFD003FFFE000
0001BF900006FE4000
ENDCHAR
STARTCHAR V
ENCODING 86
SWIDTH 763 0
DWIDTH 24 0
BBX 25 28 4 0
BITMAP
00000006F90000
1F80002FFF4000
3FD000BFFF8000
7FD001FEBFC000
7FD002F82FD000
BFC002F42FD000
BFC003F42FD000
BF8003F42FD000
FF8003F42FC000
FF8003F43FC000
FF8002F87F8000
FF8001FDBF4000
FF4000FFFF0000
FF40007FFF4000
FF40001FFFFF80
FF400007FFFFC0
FF80000BFFFF80
FF80000FF55500
BF80002FE00000
BFC0007FC00000
7FC000BF400000
7FD002FE000000
3FE00BFC000000
2FF82FF4000000
1FFFFFD0000000
0BFFFF40000000
02FFF800000000
00BF9000000000
ENDCHAR
STARTCHAR W
ENCODING 87
SWIDTH 1217 0
DWIDTH 39 0
BBX 40 28 4 0
BITMAP
000000000000002FD000
1F8000007E0001FFF800
3FD00000FF4003FFFD00
7FD00001FF400BFBFE00
7FD00002FF000FD1FE00
7FC00002FF001FC0FF00
BFC00003FF001F80FF00
BFC00003FE001F80FE00
FF800007FE001F81FE00
FF80000BFE001FC1FD00
FF80000FFE001FD2FD00
FF80000FFD000FF3FC00
FF40001FFD0007FFF800
FF40002FFD0002FFF800
FF40003FFD0000BFFFFD
FF40007FFD00002FFFFE
FF4000BFFD00003FFFFD
FF4000FEFD00007F8554
FF8002FDFE0000FF4000
BF8003F9FE0002FE0000
BFC00BF4FE0007FC0000
7FC00FE0FF000FF40000
3FD02FD0BF402FE00000
2FF4BF807FD1BF800000
1FFFFE003FFFFF000000
0FFFFC002FFFF8000000
07FFE0000BFFE0000000
00BE400002FE40000000
ENDCHAR
STARTCHAR X
ENCODING 88
SWIDTH 712 0
DWIDTH 23 0
BBX 28 27 -1 0
BITMAP
001BF900001BD0
01BFFF40007FE0
07FFFFD000FFC0
1FFAFFE003FF40
2F803FF40BFD00
2E001FF82FF800
04000BF87FE000
000007FDFF8000
000003FFFF0000
000003FFFC0000
000002FFF40000
000001FFD00000
000001FF800000
000007FF800000
00001FFFC00000
00003FFFD00000
0000FFFFE00000
0002FF6FF00000
000BFD1FF00000
002FF80FF40000
00BFE00FF8000A
01FFC00BFC002F
07FF4007FE00BE
1FFD0002FF9BFC
3FF80001FFFFF4
7FE000007FFF80
2F8000001BF900
ENDCHAR
STARTCHAR Y
ENCODING 89
SWIDTH 851 0
DWIDTH 27 0
BBX 31 38 0 -11
BITMAP
001BF8000002E400
01FFFE00000BF800
07FFFF40000BF800
1FFAFF80000FF800
7F80FF80000FF800
BE00FF80001FF400
F800FF80001FF400
A000FF40002FF000
0001FF40003FF000
0002FF00003FE000
0002FF00007FE000
0003FE0000BFE000
0007FD0000FFD000
0007FD0001FFD000
000BFC0003FFC000
000BFC0007FFC000
000BF8000FBF8000
000FF8002FBF8000
000BFC00BDBF8000
000BFE06F8BF4000
0007FFFFF0FF56B4
0002FFFFC0FFFFF8
0000BFFE06FFFFF4
000005506FFFFE50
00000007FFFE4000
0000007FFBFD0000
000002FF82FD0000
00000BF803FC0000
00002FD007FC0000
00007F400BF80000
0000BF000FF40000
0000FE001FE00000
0001FE007FD00000
0001FF41FF800000
0000FFFFFE000000
00007FFFF8000000
00001FFFD0000000
0000015400000000
ENDCHAR
STARTCHAR Z
ENCODING 90
SWIDTH 721 0
DWIDTH 23 0
BBX 27 27 0 0
BITMAP
0001AFFFEA5000
002FFFFFFFFE40
01FFFFFFFFFF80
03FFE95AAFFF80
0BFD00000FFE00
0FF000002FF400
0FE000007FE000
0FE00000BFD000
0FF00001FF8000
0BF40007FF0000
02E0000BFD0000
0000001FF80000
0000007FF00000
000000FFD00000
000002FF800000
000007FF000000
00001FFD000000
00003FF4000000
0000BFE0000000
0002FFC0000018
06FFFF4000007C
1FFFFFE40001FC
7FFFFFFF901BF8
7FFFFFFFFFFFF0
7FFFEBFFFFFFD0
3FFF406FFFFE00
0BF80001BFE400
ENDCHAR
STARTCHAR bracketleft
ENCODING 91
SWIDTH 405 0
DWIDTH 13 0
BBX 14 33 2 -3
BITMAP
002FFFD0
00BFFFF0
00FFFFE0
01FF5540
01FF0000
02FE0000
02FE0000
03FD0000
03FD0000
03FD0000
07FC0000
07FC0000
0BF80000
0BF80000
0BF80000
0FF40000
0FF40000
1FF00000
1FF00000
2FF00000
2FE00000
2FE00000
3FD00000
3FD00000
3FD00000
7FC00000
7FC00000
BFC00000
BF800000
BFFFE000
BFFFF400
7FFFF000
15554000
ENDCHAR
STARTCHAR backslash
ENCODING 92
SWIDTH 509 0
DWIDTH 16 0
BBX 12 30 3 0
BITMAP
2E0000
7F4000
BF8000
7FC000
3FC000
2FD000
2FE000
1FF000
0FF400
0BF800
07FC00
03FD00
02FD00
02FE00
01FF00
00FF40
00BF80
007FC0
003FD0
002FD0
002FE0
001FF0
000FF4
000BF8
0007FC
0003FD
0002FD
0002FE
0001FD
0000B8
ENDCHAR
STARTCHAR bracketright
ENCODING 93
SWIDTH 405 0
DWIDTH 13 0
BBX 15 33 -2 -3
BITMAP
007FFFD0
00FFFFF0
00BFFFF4
00156FF0
00001FF0
00002FF0
00002FE0
00002FE0
00003FD0
00003FD0
00003FD0
00007FC0
00007FC0
0000BF80
0000BF80
0000BF80
0000FF40
0000FF40
0001FF00
0001FF00
0001FF00
0002FE00
0002FE00
0003FD00
0003FD00
0003FC00
0007FC00
0007FC00
000BF800
2FFFF800
7FFFF400
7FFFE000
15554000
ENDCHAR
STARTCHAR asciicircum
ENCODING 94
SWIDTH 700 0
DWIDTH 22 0
BBX 16 17 3 2
BITMAP
0000B800
0002FD00
0007FE00
000BFF00
001FFF40
002FFF80
007F6FC0
00FE1FC0
02FD0FD0
03F80BE0
0BF407F0
1FE003F4
2FC002F8
7F8001FC
BF0000FD
FD0000FD
B8000078
ENDCHAR
STARTCHAR underscore
ENCODING 95
SWIDTH 354 0
DWIDTH 11 0
BBX 12 4 -1 -4
BITMAP
155554
BFFFFD
BFFFFD
7FFFFC
ENDCHAR
STARTCHAR grave
ENCODING 96
SWIDTH 600 0
DWIDTH 19 0
BBX 7 10 4 17
BITMAP
1400
BE00
FF00
FF80
7FC0
1FD0
0BF0
02F4
00F8
0078
ENDCHAR
STARTCHAR a
ENCODING 97
SWIDTH 470 0
DWIDTH 15 0
BBX 18 15 1 0
BITMAP
001BE00000
00BFFA4000
02FFFFC000
0BFFBF8000
1FF43F8000
3FE07F4000
7FC0BF4000
BF80BF0000
BF40FF00B0
FF01FE02F0
FF42FE0BF0
BFEBFFAFD0
7FFFBFFF40
2FFE2FFD00
0BF40BE000
ENDCHAR
STARTCHAR b
ENCODING 98
SWIDTH 473 0
DWIDTH 15 0
BBX 19 30 1 0
BITMAP
0001F90000
000BFF0000
002FFF4000
007FBF8000
00BE1F8000
01FD1F8000
02FC1F8000
03F82F4000
07F43F0000
0BF07E0000
0FF0BD0000
1FE0FC0000
1FE2F40000
2FD3E00000
2FDB800000
3FDFE40000
3FEFFE0000
3FFFFF4000
7FF5FFC000
7FE1FFD000
7FC0FFEAF4
7FC0BFFFF4
3F803FFFF4
3FC01FFE90
3FC01FC000
2FD03F8000
1FFAFF4000
0BFFFE0000
03FFF80000
00AF900000
ENDCHAR
STARTCHAR c
ENCODING 99
SWIDTH 368 0
DWIDTH 12 0
BBX 15 15 1 0
BITMAP
006F9000
02FFF000
0BFFF800
2FFAF800
3FD1F800
BF82F400
BF41E000
FF000000
FF000078
FF4001FC
BF800BF8
7FF9BFF0
2FFFFFC0
0BFFFE00
01BF9000
ENDCHAR
STARTCHAR d
ENCODING 100
SWIDTH 515 0
DWIDTH 16 0
BBX 20 30 1 0
BITMAP
0000001F80
000000BFE0
000001FFF0
000002FBF4
000007F1F4
00000BE1F4
00000FD1F4
00001FD2F4
00001FC2F0
00002FC2F0
00003F83E0
00003F87D0
00007F8BC0
00007F4F80
0000BF5F40
001BFF6F00
00BFFF7D00
02FFFFBC00
0BFEFFF800
1FF4BFF000
3FD0FFE000
7F80BFC000
BF40BF4000
BF40BF001D
FF00BF407E
BF41FF41FD
BFEBFFEBF8
7FFFDFFFE0
2FFF0BFF80
07F802F900
ENDCHAR
STARTCHAR e
ENCODING 101
SWIDTH 393 0
DWIDTH 13 0
BBX 16 15 1 0
BITMAP
006FD000
02FFF800
0FFFFC00
2FFAFD00
3FC0FD00
BF41FC00
BF07F800
FF6FF000
FFFF801E
FFF800BE
BF8007FD
7FF9BFF8
2FFFFFE0
0BFFFF40
01BFE400
ENDCHAR
STARTCHAR f
ENCODING 102
SWIDTH 371 0
DWIDTH 12 0
BBX 14 41 1 -11
BITMAP
00006F40
0001FFC0
0007FFE0
000FEBE0
002FC7F0
003F83F0
007F47E0
00FF07E0
01FE0BD0
02FD0BD0
03FC0F80
07F82F40
07F83F00
0BF4BD00
0FF0F800
0FF2F000
1FEBD000
1FFF8000
2FFE0000
2FFC0000
3FF00000
3FC00000
3FCBFFF0
7F9FFFF0
7FAFFFE0
7FAF5500
7F9F4000
7F9F4000
7F8F8000
7F8B8000
7F8B8000
7F8BC000
7F8BC000
3F87C000
3FC7C000
3FCBC000
2FCB8000
1FEF8000
0FFF4000
0BFE0000
02F80000
ENDCHAR
STARTCHAR g
ENCODING 103
SWIDTH 479 0
DWIDTH 15 0
BBX 19 30 0 -15
BITMAP
0006F80000
002FFE9000
00BFFFF000
02FFAFE000
07FD1FE000
0FF81FD000
1FF02FD000
2FE02FC000
2FD03FC078
3FC07F86F8
3FD0BF9FF8
2FFAFFFFE0
1FFFFFFF40
0BFFBFF800
02F9BFD000
0002FF0000
000FFE0000
007FFD0000
01FEFD0000
03F6FC0000
0BE2F80000
2F83F40000
3F07F00000
BE0BE00000
BD1FD00000
FC2FC00000
FEBF400000
FFFE000000
7FF8000000
1FE0000000
ENDCHAR
STARTCHAR h
ENCODING 104
SWIDTH 502 0
DWIDTH 16 0
BBX 19 30 1 0
BITMAP
0001B90000
000BFF0000
002FFF4000
007FBF8000
00BE1F8000
00FD1F8000
02FC1F8000
03F82F4000
07F43F0000
0BF07E0000
0BF0BD0000
0FE1F80000
1FE3F00000
1FDBD00000
2FEF800000
2FFF1BD000
2FFC7FF000
3FF5FFF000
3FD7FFE000
3F8FFFE000
3F9F5FD000
7FBE2FD000
7FFC2FC000
7FF83FC02C
7FF43F80BC
7FF07F82FC
7FE07FEBF4
7FD03FFFD0
7F802FFF40
2E000BE400
ENDCHAR
STARTCHAR i
ENCODING 105
SWIDTH 246 0
DWIDTH 8 0
BBX 11 22 1 0
BITMAP
02F800
0BFE00
0FFE00
0BFD00
06F800
000000
000000
07D000
0FE000
1FE000
2FD000
3FD000
3FC000
7F8000
7F8000
7F403C
7F40BC
7F42F8
7FEFF0
3FFFD0
2FFF00
0BE400
ENDCHAR
STARTCHAR j
ENCODING 106
SWIDTH 254 0
DWIDTH 8 0
BBX 20 37 -8 -15
BITMAP
000001F900
000007FF00
00000BFF00
00000BFE00
000002F800
0000000000
0000000000
000002F400
000007F800
000007F800
00000BF400
00000BF400
00000BF400
00000FF000
00000FF000
00000FE01D
00001FE0BE
00001FD7FD
00001FEFF4
00002FFF80
00002FFD00
00002FE400
0000BF8000
0002FF4000
000FFF4000
003FFF0000
00FDBE0000
02F4FE0000
0BE1FD0000
1F82FC0000
2F43F80000
3F07F40000
7F0FE00000
7FAFD00000
3FFF800000
2FFE000000
0BE4000000
ENDCHAR
STARTCHAR k
ENCODING 107
SWIDTH 525 0
DWIDTH 17 0
BBX 20 30 1 0
BITMAP
0001B90000
000BFF0000
002FFF4000
007FBF8000
00BE1F8000
00FD1F8000
02FC1F8000
03F82F4000
07F43F0000
0BF07E0000
0BF0BC0000
0FE1F40000
1FD3E00000
1FDBC00000
2FEF400000
2FFE1BE000
2FF8BFF800
3FE2FFFD00
3FC7FBFD00
3F8F82FD00
3FAF02FC00
7FBD07F800
7FFC2FF005
7FF9FF801F
7FF2FE003F
7FE1FF00FE
3FD1FFEBF8
3FD0BFFFF0
2FC03FFF80
1F400BF900
ENDCHAR
STARTCHAR l
ENCODING 108
SWIDTH 326 0
DWIDTH 10 0
BBX 14 30 1 0
BITMAP
0001F800
000BFF00
002FFF40
007FBF80
00BE2F80
01FD1F80
02FC1F80
03F81F80
07F42F40
0BF02F40
0FF03F00
0FE07E00
1FD0BD00
1FD0FC00
2FC2F400
2FC3F000
3FC7E000
3F8FC000
3FAF8000
7FBF0000
7FFD0000
7FF80000
3FF00000
3FD001D0
3FC007E0
2FD01FD0
1FFABF80
0BFFFE00
07FFF800
00BF9000
ENDCHAR
STARTCHAR m
ENCODING 109
SWIDTH 744 0
DWIDTH 24 0
BBX 27 15 1 0
BITMAP
07E01F801B8000
0FE0BFD0BFE000
1FD2FFD2FFE000
2FCBFFD7FFE000
3FDFFFDFFFD000
3FAF3FAF6FD000
7FBD3FBD2FC000
7FF83FFC3F8000
7FF43FF43F8038
7FF07FF07F40FC
7FE07FE07F43F8
7FD07FD0BFEFF0
7FC07FC07FFFC0
3F803F803FFE00
1F401F401BE400
ENDCHAR
STARTCHAR n
ENCODING 110
SWIDTH 496 0
DWIDTH 16 0
BBX 19 15 1 0
BITMAP
07E01BD000
0FE0BFE000
1FD2FFE000
2FC7FFE000
3FCFFFD000
3FAF6FD000
7FBE2FC000
7FFC3FC000
7FF43F803C
7FF07F80BC
7FE07F42F8
7FD07FEFF0
7FC07FFFD0
3F803FFE00
1F401BE400
ENDCHAR
STARTCHAR o
ENCODING 111
SWIDTH 451 0
DWIDTH 14 0
BBX 18 15 1 0
BITMAP
006FE00000
03FFF80000
0FFFFE0000
2FFBFF4000
7FC3FF8000
BF82FFEAD0
BF41FFFFE0
FF00BFFFE0
FF003FFE40
BF407F4000
BF80BF0000
7FEAFE0000
2FFFFC0000
0BFFE00000
01BE400000
ENDCHAR
STARTCHAR p
ENCODING 112
SWIDTH 481 0
DWIDTH 15 0
BBX 24 30 -4 -15
BITMAP
0006E0BE4000
000FF3FFC000
000FFFFFE000
000FFFAFF000
000FFC0FF000
000FF40BF400
000FF00FF000
000FF00FF000
000FF01FE01D
002FF03FD07D
003FF0BF81FD
00BFF6FFABF8
00FFFFFFFFE0
02FFFFFFFF80
03EFFE4BF900
07DFE0000000
0F8FE0000000
1F5FE0000000
2F1FD0000000
3F1FD0000000
3E1FC0000000
7D2FC0000000
BD2F80000000
BC3F80000000
BC3F40000000
BC7F00000000
BEFE00000000
7FFC00000000
3FF400000000
1BD000000000
ENDCHAR
STARTCHAR q
ENCODING 113
SWIDTH 500 0
DWIDTH 16 0
BBX 19 30 1 -13
BITMAP
0000015000
00000BF400
001BEFF000
00BFFFF000
02FFFFE000
0BFFBFD000
1FF83FC000
3FE07F8000
7FC0BF4000
BF80BF4000
BF40FF0000
FF01FE2FFC
BF43FD7FFC
BFEFFDBFF8
7FFFFCBD50
2FFFFC7C00
0BE7F87C00
0007F87C00
0007F87C00
000BF47C00
000BF47C00
000BF4BC00
000BF4BC00
000BF4B800
000BF4F400
000BF5F400
0007FEF000
0003FFD000
0001FF8000
0000BE0000
ENDCHAR
STARTCHAR r
ENCODING 114
SWIDTH 455 0
DWIDTH 15 0
BBX 18 15 1 0
BITMAP
07E01BD000
0FE0BFE000
1FD2FFE000
2FC7FFE000
3FCFFFD000
3FAF6FD0A0
7FBE2FD2F0
7FFC2FFFF0
7FF81FFFD0
7FF00BFE00
7FE0015000
7FD0000000
7FC0000000
3F80000000
1F40000000
ENDCHAR
STARTCHAR s
ENCODING 115
SWIDTH 427 0
DWIDTH 14 0
BBX 19 16 -1 -1
BITMAP
0001F80000
0003F80000
000BF40000
000FF00000
002FF00000
003FF80000
00BFFD0000
01FEFF4000
03F4FFC078
0BE07FD1F8
1FC03FD7F8
7F5BFFFFF0
7D2FFFFFD0
143FFFFF40
002FFFE400
0007F80000
ENDCHAR
STARTCHAR t
ENCODING 116
SWIDTH 393 0
DWIDTH 13 0
BBX 17 29 0 0
BITMAP
0000050000
00007FC000
0001FFD000
0007FFE000
000BE7F000
001FC3F000
002F83F000
003F47E000
007F0BD000
00BF0FC000
00FE1F8000
01FD3F0000
01FDFD0000
02FFF40000
BFFFFFF400
FFFFFFF400
FFFFFFE000
1BFD554000
03F8000000
03F8000000
07F8000000
03F8000000
03FC000740
03FD001F80
02FE007F40
01FFAAFE00
00BFFFF800
002FFFE000
0006FE4000
ENDCHAR
STARTCHAR u
ENCODING 117
SWIDTH 462 0
DWIDTH 15 0
BBX 18 15 1 0
BITMAP
07E00BC000
0FE02FC000
1FE03F8000
2FD07F8000
3FC0BF4000
3FC0FF4000
7F81FF0000
7F82FE0050
7F47FE01F0
7F9FFD07E0
7FFFFD0FE0
7FFEFFBF80
3FFCFFFF00
2FF4BFF800
0BD02F9000
ENDCHAR
STARTCHAR v
ENCODING 118
SWIDTH 449 0
DWIDTH 14 0
BBX 18 15 1 0
BITMAP
2F002F4000
7F40BFC000
7F41FFC000
7F42FFC000
7F82FF8000
7F82FFABE0
7F81FFFFE0
7F83FFFFD0
7F87FBFE40
3F8FE00000
3FEFC00000
3FFF400000
2FFE000000
1FFC000000
0BE0000000
ENDCHAR
STARTCHAR w
ENCODING 119
SWIDTH 700 0
DWIDTH 22 0
BBX 26 15 1 0
BITMAP
2F001F402F4000
7F403F40BFC000
7F407F41FFC000
7F40FF42FFC000
7F81FF82FF8000
7F82FF82FFABE0
7F83FF81FFFFE0
7F8BFF82FFFFD0
7F8FFF87FBFE40
3F9FAF8FE00000
3FFF6FEFD00000
3FFF2FFF800000
2FFD1FFE000000
1FF80FFC000000
0BE007E0000000
ENDCHAR
STARTCHAR x
ENCODING 120
SWIDTH 529 0
DWIDTH 17 0
BBX 21 15 0 0
BITMAP
00BE406F4000
02FFE2FFD000
03FFFFFFD000
07FBFFEFD000
07E2FF8BC000
02D1FF074000
0001FF000000
0001FE000000
1B42FE000280
3F43FF000BC0
7F47FF402FC0
7FAFFFE6FF40
7FFFFFFFFD00
2FFE2FFFE000
0BF406FE4000
ENDCHAR
STARTCHAR y
ENCODING 121
SWIDTH 479 0
DWIDTH 15 0
BBX 19 30 0 -15
BITMAP
01F802F000
03F80BF000
07F80FF000
0BF41FE000
0FF02FE000
0FF03FD000
1FE07FC000
1FD0BFC014
1FD1FF80B8
1FE7FF87F8
1FFFFFAFF4
1FFFBFFFD0
0FFF7FFE00
0BFD7FF400
02F4BF8000
0007FE0000
001FFD0000
007FFD0000
01FEFC0000
07F6F80000
0FD3F80000
2F83F40000
7F07F00000
BD0BE00000
FC1FD00000
FC2F800000
FEBF400000
FFFE000000
7FF8000000
1FD0000000
ENDCHAR
STARTCHAR z
ENCODING 122
SWIDTH 445 0
DWIDTH 14 0
BBX 17 15 2 0
BITMAP
BFFFFF8000
FFFFFFC000
FFFFFFC000
556FFF4000
007FF80000
07FF800000
1FF8000000
7FE0000100
BF80000B40
FF40002F40
FF8001FF00
BFF9AFFD00
7FFFFFF400
1FFFFF8000
01BFE80000
ENDCHAR
STARTCHAR braceleft
ENCODING 123
SWIDTH 490 0
DWIDTH 16 0
BBX 18 33 1 -3
BITMAP
000006FF80
00002FFFD0
0000BFFFD0
0001FFE940
0002FF0000
0003FD0000
0003FD0000
0003FD0000
0007FC0000
0007FC0000
0007F80000
000BF80000
000FF40000
006FF00000
2FFFD00000
7FFF400000
3FFF400000
16FFC00000
003FD00000
003FE00000
003FD00000
003FD00000
003FD00000
007FC00000
007FC00000
007F800000
00BF800000
00BFC00000
007FE00000
003FFFE000
001FFFF000
0007FFE000
0000554000
ENDCHAR
STARTCHAR bar
ENCODING 124
SWIDTH 326 0
DWIDTH 10 0
BBX 9 40 1 -10
BITMAP
001F80
002FC0
003FC0
003FC0
007F80
007F80
007F80
00BF40
00BF40
00FF00
00FF00
01FE00
01FE00
01FE00
02FD00
02FD00
03FC00
03FC00
07F800
07F800
0BF400
0BF400
0FF000
0FF000
0FF000
1FE000
1FE000
2FD000
2FD000
3FC000
3FC000
3FC000
7F8000
7F8000
BF4000
BF4000
BF4000
FF0000
FF0000
BD0000
ENDCHAR
STARTCHAR braceright
ENCODING 125
SWIDTH 490 0
DWIDTH 16 0
BBX 18 33 -2 -3
BITMAP
006FE80000
00FFFF4000
00FFFFC000
0016FFD000
00003FE000
00002FE000
00002FE000
00002FE000
00002FD000
00003FD000
00003FD000
00007FC000
00007FD000
00003FE400
00002FFFD0
00000BFFE0
00002FFFD0
00007FF940
0000FF8000
0001FF0000
0001FF0000
0002FE0000
0002FE0000
0003FD0000
0003FD0000
0003FD0000
0007FC0000
000BFC0000
006FF80000
2FFFF00000
7FFFD00000
3FFE400000
0550000000
ENDCHAR
STARTCHAR asciitilde
ENCODING 126
SWIDTH 700 0
DWIDTH 22 0
BBX 19 8 2 5
BITMAP
0054000000
02FE4001F0
0BFFE007F4
1FFFFD0FF0
3FDBFFEFE0
7F80BFFFC0
7E001FFF40
140001F900
ENDCHAR
STARTCHAR uni00A0
ENCODING 160
SWIDTH 265 0
DWIDTH 8 0
BBX 1 1 0 0
BITMAP
00
ENDCHAR
STARTCHAR exclamdown
ENCODING 161
SWIDTH 340 0
DWIDTH 11 0
BBX 11 28 -1 -13
BITMAP
000BE0
002FF8
003FF8
003FF8
003FF4
001BD0
000000
000400
002F00
003F40
007F00
00BF00
00FE00
01FD00
02FD00
03FC00
07FC00
0BF800
0FF800
1FF400
1FF000
2FF000
3FE000
7FD000
7FD000
BFC000
BF4000
150000
ENDCHAR
STARTCHAR cent
ENCODING 162
SWIDTH 466 0
DWIDTH 15 0
BBX 13 23 1 -4
BITMAP
0002D000
0003D000
0003D000
0003C000
001BD000
01FFFE00
07FFFF40
1FFFBF80
2FDB6F80
3F8F6F80
7F4F2F00
BF4F0400
BF1F0140
7F5E0780
7F9E1FC0
3FFEBF80
1FFFFE00
07FFF800
00BE9000
003C0000
007C0000
00780000
00740000
ENDCHAR
STARTCHAR sterling
ENCODING 163
SWIDTH 525 0
DWIDTH 17 0
BBX 17 19 0 0
BITMAP
0001BFE000
000BFFFD00
002FFFFF00
007FEAFF80
00FF807F80
01FF003F80
02FD000A00
02FD000000
02FC000000
2FFFFF8000
3FFFFF8000
2FFFFE4000
03F8000000
07F8000000
07F8000000
1FF9555500
7FFFFFFF00
7FFFFFFF00
3EAAFFFD00
ENDCHAR
STARTCHAR currency
ENCODING 164
SWIDTH 700 0
DWIDTH 22 0
BBX 15 15 4 2
BITMAP
B4000074
FD6FE5FC
BFFFFFF4
2FFFFFE0
1FD01FD0
2F400BE0
3F0003F0
3E0003F0
3F0003F0
2F400BE0
1FD01FD0
2FFFFFD0
BFFFFFF4
FD6FE5FC
B4000074
ENDCHAR
STARTCHAR yen
ENCODING 165
SWIDTH 497 0
DWIDTH 16 0
BBX 16 19 1 0
BITMAP
7D00007E
BF4000FF
BF8002FE
7FD007F8
2FE01FF0
0FF42FD0
0BF8BF80
03FEFE00
01FFFC00
00BFF400
7FFFFFD0
7FFFFFD0
007FC000
007FC000
BFFFFFD0
BFFFFFC0
00BF8000
00BF4000
007E0000
ENDCHAR
STARTCHAR brokenbar
ENCODING 166
SWIDTH 326 0
DWIDTH 10 0
BBX 9 40 1 -10
BITMAP
001F80
002FC0
003FC0
003FC0
007F80
007F80
00BF40
00BF40
00FF00
00FF00
00FF00
01FE00
01FE00
02FD00
02FD00
02FD00
02F800
005000
000000
000000
000000
000000
014000
0BE000
0FF000
1FE000
1FE000
2FD000
2FD000
2FD000
3FC000
3FC000
7F8000
7F8000
7F8000
BF4000
BF4000
FF0000
FF0000
BD0000
ENDCHAR
STARTCHAR section
ENCODING 167
SWIDTH 607 0
DWIDTH 19 0
BBX 16 27 2 0
BITMAP
0006FF90
002FFFF8
00BFFFFD
01FF9AFE
03FD00FF
03F800BF
03F800BE
03FD0078
02FF9000
01FFFD00
07FFFFD0
0FE6FFF4
1FD02FFC
1FD007FC
1FF402FC
0FFE42FC
07FFEBF4
01BFFFE0
001BFFD0
29007FE0
7F001FF0
BF000FF0
BF001FF0
BFE5BFE0
3FFFFFC0
1FFFFE00
01BFE400
ENDCHAR
STARTCHAR dieresis
ENCODING 168
SWIDTH 600 0
DWIDTH 19 0
BBX 12 5 4 17
BITMAP
2F40B8
7FC2FE
BFC3FE
BF83FD
2E01F8
ENDCHAR
STARTCHAR copyright
ENCODING 169
SWIDTH 647 0
DWIDTH 21 0
BBX 20 19 2 11
BITMAP
0006FF9000
007FFFFD00
01FE55BF40
07E0000BD0
0F806F82F0
2F02FFD1F4
3E0B81E0B8
3D1F01E07C
7D2E00407D
7C2D00003D
7D2D00007D
3D2E00107C
3E1F41A0B8
2F0BFFD1F4
0F81FE42F0
07E0000BD0
01FE55BF40
007FFFFD00
0006FF9000
ENDCHAR
STARTCHAR ordfeminine
ENCODING 170
SWIDTH 393 0
DWIDTH 13 0
BBX 12 13 2 14
BITMAP
002B80
01FFF9
07FFFE
0FF4FE
2FD1FD
3F81FD
7F42FC
7F43FC
7F07F8
7F4BF8
3FFFF8
2FFBF8
0BE1F4
ENDCHAR
STARTCHAR guillemotleft
ENCODING 171
SWIDTH 615 0
DWIDTH 20 0
BBX 18 12 1 1
BITMAP
001F400B80
00BF807FD0
07FF42FFC0
2FFD1FFE00
BFE07FF400
FF40BF8000
FF80BFD000
7FE02FF400
1FFD0BFE00
07FF42FF80
00BF407FC0
002E001F40
ENDCHAR
STARTCHAR logicalnot
ENCODING 172
SWIDTH 700 0
DWIDTH 22 0
BBX 18 11 2 0
BITMAP
0555555540
3FFFFFFFE0
7FFFFFFFF0
2FFFFFFFF0
0000000FF0
0000000FE0
0000001FE0
0000001FD0
0000002FD0
0000001FC0
0000000500
ENDCHAR
STARTCHAR uni00AD
ENCODING 173
SWIDTH 403 0
DWIDTH 13 0
BBX 10 4 2 8
BITMAP
5ABFD0
FFFFE0
FFFFE0
BFEA40
ENDCHAR
STARTCHAR registered
ENCODING 174
SWIDTH 647 0
DWIDTH 21 0
BBX 20 19 2 11
BITMAP
0006FF9000
007FFFFD00
01FE55BF40
07E0000BD0
0F82FE42F0
2F0BFFD1F4
3E02D2E0B8
3D03C1E07C
7D03C7D07D
7C07FF803D
7D07FD007D
3D0BAF007C
3E0B4F40B8
2F0F47C1F4
0F8B02D2F0
07E0000BD0
01FE55BF40
007FFFFD00
0006FF9000
ENDCHAR
STARTCHAR macron
ENCODING 175
SWIDTH 600 0
DWIDTH 19 0
BBX 11 4 4 17
BITMAP
155550
7FFFF8
7FFFF8
3FFFF4
ENDCHAR
STARTCHAR degree
ENCODING 176
SWIDTH 385 0
DWIDTH 12 0
BBX 10 10 3 17
BITMAP
06F900
1FFF80
3FFFD0
BE0BE0
BC03E0
FC07E0
BE0BE0
7FFFC0
2FFF40
06F900
ENDCHAR
STARTCHAR plusminus
ENCODING 177
SWIDTH 700 0
DWIDTH 22 0
BBX 16 19 3 0
BITMAP
00005400
0001FC00
0002FC00
0002FC00
0002FC00
0557FD55
1FFFFFFF
2FFFFFFF
1FFFFFFE
0007F400
0007F000
000BF000
000BF000
0007D000
00000000
15555550
BFFFFFFC
FFFFFFFC
BFFFFFF4
ENDCHAR
STARTCHAR uni00B2
ENCODING 178
SWIDTH 450 0
DWIDTH 14 0
BBX 13 16 2 11
BITMAP
01BFA000
0BFFFC00
1FFFFE00
3F80FF00
3F00BF00
3F00FF00
2901FE00
0002FD00
0007F800
001FF000
00BFD000
06FE0000
2FF40000
FFFFFF40
FFFFFF40
BFFFFE00
ENDCHAR
STARTCHAR uni00B3
ENCODING 179
SWIDTH 450 0
DWIDTH 14 0
BBX 13 16 2 11
BITMAP
00AFE400
07FFFE00
1FFFFF40
2F80BF40
3F007F40
1900BF00
0006FD00
007FF400
007FE400
002BFD00
1401FF00
BC00BF00
BE01FF00
BFFFFE00
2FFFF800
06FF9000
ENDCHAR
STARTCHAR acute
ENCODING 180
SWIDTH 600 0
DWIDTH 19 0
BBX 8 10 8 17
BITMAP
0054
00FD
02FE
03FD
0BF8
0FE0
1FC0
3F40
7D00
7800
ENDCHAR
STARTCHAR uni00B5
ENCODING 181
SWIDTH 462 0
DWIDTH 15 0
BBX 18 24 1 -9
BITMAP
07E00BC000
0FE02FC000
1FE03F8000
2FD07F8000
2FC0BF4000
3FC0FF4000
3F81FF0000
7F82FE0050
7F47FE01F0
BF9FFD07E0
BFFFFD0FE0
BFFEFFBF80
BFFCFFFF00
FFF4BFF800
FFD02F9000
FE00000000
FE00000000
FE00000000
FE00000000
FE00000000
FE00000000
FE00000000
FE00000000
5400000000
ENDCHAR
STARTCHAR paragraph
ENCODING 182
SWIDTH 739 0
DWIDTH 24 0
BBX 20 27 3 0
BITMAP
001AFFFE40
01FFFFFFF4
0BFFFFFFFD
2FFFFFFFFD
7FFFFF47FD
BFFFFF07FD
BFFFFE07FC
BFFFFE0BFC
BFFFFD0BF8
3FFFFD0BF8
1FFFFC0FF4
06FFFC0FF4
005BF81FF0
000BF81FF0
000FF42FE0
000FF43FE0
001FF03FD0
001FF03FD0
002FE07FC0
002FE07FC0
003FE0BF80
003FD0BF80
007FD0FF80
007FD0FF40
007FC0FF40
007FC0FF00
002F40BD00
ENDCHAR
STARTCHAR periodcentered
ENCODING 183
SWIDTH 257 0
DWIDTH 8 0
BBX 7 6 1 5
BITMAP
1BD0
3FF4
7FF4
7FF4
7FF0
1F90
ENDCHAR
STARTCHAR cedilla
ENCODING 184
SWIDTH 600 0
DWIDTH 19 0
BBX 9 9 2 -8
BITMAP
0BF800
1FFF40
0BFF80
001FC0
001FC0
55BF80
FFFF40
FFFD00
BFE400
ENDCHAR
STARTCHAR uni00B9
ENCODING 185
SWIDTH 450 0
DWIDTH 14 0
BBX 9 16 3 11
BITMAP
006F80
1BFFC0
7FFFC0
BFBFC0
243F80
007F80
007F40
00BF40
00BF40
00BF00
00FF00
00FE00
00FE00
01FE00
01FD00
00B800
ENDCHAR
STARTCHAR ordmasculine
ENCODING 186
SWIDTH 408 0
DWIDTH 13 0
BBX 12 13 2 14
BITMAP
00BF80
07FFF4
0FFFFC
2FD2FD
3F80FE
7F40FE
7F40FE
7F40FE
7F41FD
3FC2F8
1FFFF4
0BFFD0
01BA00
ENDCHAR
STARTCHAR guillemotright
ENCODING 187
SWIDTH 615 0
DWIDTH 20 0
BBX 18 12 1 1
BITMAP
2E001B4000
7FD02FE000
3FF42FF800
0FFD0BFF00
02FF81FFC0
00BFD07FE0
007FD02FE0
01FFC1BFE0
1BFF47FF80
7FF82FF900
BFD03FE000
2E001E4000
ENDCHAR
STARTCHAR onequarter
ENCODING 188
SWIDTH 955 0
DWIDTH 31 0
BBX 27 28 3 -1
BITMAP
006F8000000000
1BFFC000000000
7FFFC000000000
BFBFC000000000
243F8000780000
007F8001FD0000
007F4002FD0000
00BF4007F80000
00BF400FF40000
00BF002FE00000
00FF007FC00000
00FE00BF400000
00FE01FE02F000
01FE03FC0BF000
01FD0BF41FD000
00B81FF02FC7D0
00003FD07F4FD0
00007F80BE1FD0
0000FF01FD2FC0
0002FD02FC2F80
0007F803F43F80
000BF407FFFFF4
000FE007FFFFF8
00078002FFFFF4
00000000007F00
00000000007F00
00000000007F00
00000000003D00
ENDCHAR
STARTCHAR onehalf
ENCODING 189
SWIDTH 1024 0
DWIDTH 33 0
BBX 29 28 3 -1
BITMAP
006F800000000000
1BFFC00000000000
7FFFC00000000000
BFBFC00000000000
243F800078000000
007F8001FD000000
007F4002FD000000
00BF4007F8000000
00BF400FF4000000
00BF002FE0000000
00FF007FC0000000
00FE00BF40000000
00FE01FE01BF9000
01FE03FC0BFFF800
01FD0BF41FFFFE00
00B81FF03F81FF00
00003FD03F00BF00
00007F807F00FF00
0000FF002901FE00
0002FD000002FD00
0007F8000007F800
000BF400001FF000
000FE00000BFC000
0007800006FE0000
000000006FF40000
00000000FFFFFF40
00000000FFFFFF40
00000000FFFFFE00
ENDCHAR
STARTCHAR threequarters
ENCODING 190
SWIDTH 1035 0
DWIDTH 33 0
BBX 31 28 2 -1
BITMAP
00AFE40000000000
07FFFE0000000000
1FFFFF4000000000
2F80BF4000000000
3F007F4000B40000
1900BF0002FC0000
0006FD0007FC0000
007FF4000BF40000
007FE4001FE00000
002BFD003FC00000
1401FF00BF400000
BC00BF01FF000000
BE01FF03FD07D000
BFFFFE07F81FD000
2FFFF80FF02FC000
06FF902FD07F4B80
0000007F80BF2FC0
000000FF41FD2F80
000002FE02FC3F80
000003FC07F47F40
00000BF40BF07F40
00001FE00FFFFFF0
00001FD00FFFFFF4
00000B4007FFFFE0
000000000000FE00
000000000000FE00
000000000000FD00
000000000000B800
ENDCHAR
STARTCHAR questiondown
ENCODING 191
SWIDTH 476 0
DWIDTH 15 0
BBX 15 28 -2 -13
BITMAP
000007E4
00001FFC
00002FFC
00002FFC
00002FF8
00000BE0
00000000
00000100
00001F40
00002F40
00007F00
0000BF00
0002FD00
000BFC00
002FF400
00BFD000
02FF4000
0BFD0000
1FF80000
3FF002E0
7FD007F4
7FD007F4
7FD00BF4
7FF41FF0
3FFFFFD0
1FFFFF80
06FFFD00
00155000
ENDCHAR
STARTCHAR Agrave
ENCODING 192
SWIDTH 786 0
DWIDTH 25 0
BBX 29 37 1 0
BITMAP
0000054000000000
00001FD000000000
00002FF800000000
00001FFE00000000
000007FF80000000
0000007FF4000000
0000000BFC000000
00000000B8000000
0000000000000000
0000000000000000
0000001AFFEA4000
000006FFFFFFE000
00006FFFFFFFE000
0001FFFE96AFD000
000BFF9000010000
002FFD0006900000
007FE0000FF40000
01FFC0001FF40000
02FF40001FF00000
07FE00002FF00000
0BFC00003FE00000
0FF800003FD00000
1FF400007FD00000
2FF00000BFC00000
3FE00000FFC00000
3FE00000FF800000
3FE00001FF800000
7FE00002FF400000
7FE00007FF400000
3FE0000BFF400000
3FF0001FFF400B00
2FF4003FFF401F40
1FFC00BEFF807F00
0BFF9BFCFFEAFD00
03FFFFF4BFFFF400
00BFFFD03FFFD000
001BF9000BFA0000
ENDCHAR
STARTCHAR Aacute
ENCODING 193
SWIDTH 786 0
DWIDTH 25 0
BBX 29 37 1 0
BITMAP
0000000000015000
000000000007F400
00000000002FF800
0000000000BFF400
0000000003FFD000
000000001FFD0000
000000003FD00000
000000002E000000
0000000000000000
0000000000000000
0000001AFFEA4000
000006FFFFFFE000
00006FFFFFFFE000
0001FFFE96AFD000
000BFF9000010000
002FFD0006900000
007FE0000FF40000
01FFC0001FF40000
02FF40001FF00000
07FE00002FF00000
0BFC00003FE00000
0FF800003FD00000
1FF400007FD00000
2FF00000BFC00000
3FE00000FFC00000
3FE00000FF800000
3FE00001FF800000
7FE00002FF400000
7FE00007FF400000
3FE0000BFF400000
3FF0001FFF400B00
2FF4003FFF401F40
1FFC00BEFF807F00
0BFF9BFCFFEAFD00
03FFFFF4BFFFF400
00BFFFD03FFFD000
001BF9000BFA0000
ENDCHAR
STARTCHAR Acircumflex
ENCODING 194
SWIDTH 786 0
DWIDTH 25 0
BBX 29 38 1 0
BITMAP
000000002F800000
00000000BFE00000
00000001FFF00000
00000003FBF40000
0000000BF6FC0000
0000001FE1FD0000
0000003FC0FE0000
0000007F80BE0000
0000002E007D0000
0000000000000000
0000000000000000
0000001AFFEA4000
000006FFFFFFE000
00006FFFFFFFE000
0001FFFE96AFD000
000BFF9000010000
002FFD0006900000
007FE0000FF40000
01FFC0001FF40000
02FF40001FF00000
07FE00002FF00000
0BFC00003FE00000
0FF800003FD00000
1FF400007FD00000
2FF00000BFC00000
3FE00000FFC00000
3FE00000FF800000
3FE00001FF800000
7FE00002FF400000
7FE00007FF400000
3FE0000BFF400000
3FF0001FFF400B00
2FF4003FFF401F40
1FFC00BEFF807F00
0BFF9BFCFFEAFD00
03FFFFF4BFFFF400
00BFFFD03FFFD000
001BF9000BFA0000
ENDCHAR
STARTCHAR Atilde
ENCODING 195
SWIDTH 786 0
DWIDTH 25 0
BBX 29 36 1 0
BITMAP
0000000140000000
0000001FF402D000
0000007FFE0BE000
000000BFFFAFD000
000001FD7FFF8000
000001F80BFF0000
0000005001B90000
0000000000000000
0000000000000000
0000001AFFEA4000
000006FFFFFFE000
00006FFFFFFFE000
0001FFFE96AFD000
000BFF9000010000
002FFD0006900000
007FE0000FF40000
01FFC0001FF40000
02FF40001FF00000
07FE00002FF00000
0BFC00003FE00000
0FF800003FD00000
1FF400007FD00000
2FF00000BFC00000
3FE00000FFC00000
3FE00000FF800000
3FE00001FF800000
7FE00002FF400000
7FE00007FF400000
3FE0000BFF400000
3FF0001FFF400B00
2FF4003FFF401F40
1FFC00BEFF807F00
0BFF9BFCFFEAFD00
03FFFFF4BFFFF400
00BFFFD03FFFD000
001BF9000BFA0000
ENDCHAR
STARTCHAR Adieresis
ENCODING 196
SWIDTH 786 0
DWIDTH 25 0
BBX 29 34 1 0
BITMAP
0000001B807D0000
0000003FD1FF0000
0000003FE2FF4000
0000003FD1FF0000
0000001F80BD0000
0000000000000000
0000000000000000
0000001AFFEA4000
000006FFFFFFE000
00006FFFFFFFE000
0001FFFE96AFD000
000BFF9000010000
002FFD0006900000
007FE0000FF40000
01FFC0001FF40000
02FF40001FF00000
07FE00002FF00000
0BFC00003FE00000
0FF800003FD00000
1FF400007FD00000
2FF00000BFC00000
3FE00000FFC00000
3FE00000FF800000
3FE00001FF800000
7FE00002FF400000
7FE00007FF400000
3FE0000BFF400000
3FF0001FFF400B00
2FF4003FFF401F40
1FFC00BEFF807F00
0BFF9BFCFFEAFD00
03FFFFF4BFFFF400
00BFFFD03FFFD000
001BF9000BFA0000
ENDCHAR
STARTCHAR Aring
ENCODING 197
SWIDTH 786 0
DWIDTH 25 0
BBX 29 38 1 0
BITMAP
000000006F800000
00000001FFF40000
00000003FFF80000
00000007E0FC0000
0000000BD0BC0000
0000000BE1FC0000
00000007FFF80000
00000002FFE00000
000000007F800000
0000000000000000
0000000000000000
0000001AFFEA4000
000006FFFFFFE000
00006FFFFFFFE000
0001FFFE96AFD000
000BFF9000010000
002FFD0006900000
007FE0000FF40000
01FFC0001FF40000
02FF40001FF00000
07FE00002FF00000
0BFC00003FE00000
0FF800003FD00000
1FF400007FD00000
2FF00000BFC00000
3FE00000FFC00000
3FE00000FF800000
3FE00001FF800000
7FE00002FF400000
7FE00007FF400000
3FE0000BFF400000
3FF0001FFF400B00
2FF4003FFF401F40
1FFC00BEFF807F00
0BFF9BFCFFEAFD00
03FFFFF4BFFFF400
00BFFFD03FFFD000
001BF9000BFA0000
ENDCHAR
STARTCHAR AE
ENCODING 198
SWIDTH 1015 0
DWIDTH 32 0
BBX 36 27 1 0
BITMAP
0000006BD01FFFFFD0
00000BFFF0BFFFFFE0
00007FFFF1FFFFFFD0
0002FFFF92FE955500
000BFFD003FD000000
002FFD0007FC000000
00BFF4000BF8000000
01FFC0000FF8000000
03FF40000FF4000000
07FE00001FF0000000
0BFC00002FF0000000
1FF800003FF5555400
1FF400007FFFFFFD00
2FF000007FFFFFFD00
3FE00000BFFFFFF800
3FE00000FFC0000000
3FE00001FF80000000
7FE00002FF80000000
7FE00007FF80000000
3FE0000BFF80000000
3FF0001FFFC0000000
2FF4002FFFE000002D
1FFC00BF7FF80006FD
0BFF9BFD1FFFA6BFFD
03FFFFF80BFFFFFFF4
00BFFFE001FFFFFF80
001BFE40001AFFA400
ENDCHAR
STARTCHAR Ccedilla
ENCODING 199
SWIDTH 686 0
DWIDTH 22 0
BBX 24 35 2 -8
BITMAP
00001BFE8000
0001FFFFF400
001FFFFFFD00
007FFEABFE00
01FFE001FF40
03FF4000FF40
0BFD0000FF40
0FF80000FF40
2FF40000FF00
3FE00000FE00
7FD000006800
7FC000000000
BFC000000000
BFC000000000
FF8000000000
FF8000000000
FF8000000000
FFC000000000
BFD000000000
7FE000000000
3FF400000000
2FFC0000001A
0FFF400006FF
07FFFA9ABFFE
01FFFFFFFFFD
002FFFFFFF90
0007FFFFA400
000BFFD00000
00005FE00000
000007F00000
00000BE00000
0015AFE00000
007FFFC00000
007FFF400000
002FE8000000
ENDCHAR
STARTCHAR Egrave
ENCODING 200
SWIDTH 686 0
DWIDTH 22 0
BBX 25 37 1 0
BITMAP
00054000000000
001FD000000000
002FF800000000
001FFE00000000
0007FF80000000
00007FF4000000
00000BFC000000
000000B8000000
00000000000000
00000000000000
00001AFFA00000
0002FFFFFE0000
001FFFFFFF8000
007FFE96FFD000
00FFE0003FE000
02FF80002FE000
02FF00001FE000
03FF00002FE000
02FF00002FD000
01FF80001F8000
00FFE400000000
002FFFF0000000
000BFFF4000000
00BFFFF0000000
07FFEA50000000
1FFD0000000000
3FF00000000000
BFD00000000000
FFC00000000000
FF800000000000
FFC00000000000
BFD00000000680
7FF8000005BFC0
2FFFE96AFFFF80
0BFFFFFFFFFE00
01BFFFFFFFE400
0006BFFEA50000
ENDCHAR
STARTCHAR Eacute
ENCODING 201
SWIDTH 686 0
DWIDTH 22 0
BBX 25 37 1 0
BITMAP
00000000015000
0000000007F400
000000002FF400
00000000BFF400
00000003FFD000
0000001FFD0000
0000003FD00000
0000002E000000
00000000000000
00000000000000
00001AFFA00000
0002FFFFFE0000
001FFFFFFF8000
007FFE96FFD000
00FFE0003FE000
02FF80002FE000
02FF00001FE000
03FF00002FE000
02FF00002FD000
01FF80001F8000
00FFE400000000
002FFFF0000000
000BFFF4000000
00BFFFF0000000
07FFEA50000000
1FFD0000000000
3FF00000000000
BFD00000000000
FFC00000000000
FF800000000000
FFC00000000000
BFD00000000680
7FF8000005BFC0
2FFFE96AFFFF80
0BFFFFFFFFFE00
01BFFFFFFFE400
0006BFFEA50000
ENDCHAR
STARTCHAR Ecircumflex
ENCODING 202
SWIDTH 686 0
DWIDTH 22 0
BBX 25 38 1 0
BITMAP
0000002F800000
000000BFE00000
000001FFF00000
000003FBF40000
00000BF6F80000
00001FE1FD0000
00003FC0FE0000
00007F80FE0000
00002E007D0000
00000000000000
00000000000000
00001AFFA00000
0002FFFFFE0000
001FFFFFFF8000
007FFE96FFD000
00FFE0003FE000
02FF80002FE000
02FF00001FE000
03FF00002FE000
02FF00002FD000
01FF80001F8000
00FFE400000000
002FFFF0000000
000BFFF4000000
00BFFFF0000000
07FFEA50000000
1FFD0000000000
3FF00000000000
BFD00000000000
FFC00000000000
FF800000000000
FFC00000000000
BFD00000000680
7FF8000005BFC0
2FFFE96AFFFF80
0BFFFFFFFFFE00
01BFFFFFFFE400
0006BFFEA50000
ENDCHAR
STARTCHAR Edieresis
ENCODING 203
SWIDTH 686 0
DWIDTH 22 0
BBX 25 34 1 0
BITMAP
00001F80BD0000
00003FD1FF0000
00007FE2FF4000
00003FD1FF0000
00001F80BD0000
00000000000000
00000000000000
00001AFFA00000
0002FFFFFE0000
001FFFFFFF8000
007FFE96FFD000
00FFE0003FE000
02FF80002FE000
02FF00001FE000
03FF00002FE000
02FF00002FD000
01FF80001F8000
00FFE400000000
002FFFF0000000
000BFFF4000000
00BFFFF0000000
07FFEA50000000
1FFD0000000000
3FF00000000000
BFD00000000000
FFC00000000000
FF800000000000
FFC00000000000
BFD00000000680
7FF8000005BFC0
2FFFE96AFFFF80
0BFFFFFFFFFE00
01BFFFFFFFE400
0006BFFEA50000
ENDCHAR
STARTCHAR Igrave
ENCODING 204
SWIDTH 495 0
DWIDTH 16 0
BBX 19 37 -1 0
BITMAP
0050000000
01FD000000
02FF400000
01FFE00000
007FF80000
000BFF0000
0000BF8000
00000B8000
0000000000
0000000000
002FFFFFF4
00BFFFFFF8
00BFFFFFF4
0015BFE550
00007FD000
00007FD000
0000BFC000
0000BFC000
0000BF8000
0000FF8000
0000FF4000
0001FF4000
0001FF0000
0002FF0000
0002FE0000
0003FE0000
0003FD0000
0007FD0000
0007FC0000
000BFC0000
000BFC0000
000FF80000
000FF80000
056FF95000
3FFFFFFC00
7FFFFFFC00
7FFFFFF400
ENDCHAR
STARTCHAR Iacute
ENCODING 205
SWIDTH 495 0
DWIDTH 16 0
BBX 21 37 -1 0
BITMAP
000000001400
00000000BF00
00000002FF40
0000000BFF00
0000007FFD00
000001FFD000
000003FD0000
000002D00000
000000000000
000000000000
002FFFFFF400
00BFFFFFF800
00BFFFFFF400
0015BFE55000
00007FD00000
00007FD00000
0000BFC00000
0000BFC00000
0000BF800000
0000FF800000
0000FF400000
0001FF400000
0001FF000000
0002FF000000
0002FE000000
0003FE000000
0003FD000000
0007FD000000
0007FC000000
000BFC000000
000BFC000000
000FF8000000
000FF8000000
056FF9500000
3FFFFFFC0000
7FFFFFFC0000
7FFFFFF40000
ENDCHAR
STARTCHAR Icircumflex
ENCODING 206
SWIDTH 495 0
DWIDTH 16 0
BBX 19 38 -1 0
BITMAP
000002F800
00000BFE00
00002FFF00
00007FBF40
0000BF2F80
0001FE2FC0
0003FC1FD0
0007F40FE0
0003E00780
0000000000
0000000000
002FFFFFF4
00BFFFFFF8
00BFFFFFF4
0015BFE550
00007FD000
00007FD000
0000BFC000
0000BFC000
0000BF8000
0000FF8000
0000FF4000
0001FF4000
0001FF0000
0002FF0000
0002FE0000
0003FE0000
0003FD0000
0007FD0000
0007FC0000
000BFC0000
000BFC0000
000FF80000
000FF80000
056FF95000
3FFFFFFC00
7FFFFFFC00
7FFFFFF400
ENDCHAR
STARTCHAR Idieresis
ENCODING 207
SWIDTH 495 0
DWIDTH 16 0
BBX 19 34 -1 0
BITMAP
0001F80BD0
0003FD1FF0
0007FD2FF0
0007FD2FF0
0002F40B90
0000000000
0000000000
002FFFFFF4
00BFFFFFF8
00BFFFFFF4
0015BFE550
00007FD000
00007FD000
0000BFC000
0000BFC000
0000BF8000
0000FF8000
0000FF4000
0001FF4000
0001FF0000
0002FF0000
0002FE0000
0003FE0000
0003FD0000
0007FD0000
0007FC0000
000BFC0000
000BFC0000
000FF80000
000FF80000
056FF95000
3FFFFFFC00
7FFFFFFC00
7FFFFFF400
ENDCHAR
STARTCHAR Eth
ENCODING 208
SWIDTH 821 0
DWIDTH 26 0
BBX 26 27 0 0
BITMAP
00006BFFA40000
0000FFFFFF4000
0001FFFFFFE000
0002FE5AFFF800
0003FD002FFE00
0007FC0007FF40
000BF80001FF80
000FF80000BFC0
001FF400007FD0
001FF000007FE0
002FE000003FE0
1FFFFFFD003FE0
7FFFFFFF003FE0
7FFFFFFE003FE0
15FFD554007FD0
00FF800000BFD0
00FF400000BFC0
01FF400001FF80
01FF000002FF40
02FF000007FE00
02FF00001FFC00
02FE00007FF400
03FE0006FFD000
03FE56BFFF4000
03FFFFFFF80000
03FFFFFF900000
01AFFFA4000000
ENDCHAR
STARTCHAR Ntilde
ENCODING 209
SWIDTH 884 0
DWIDTH 28 0
BBX 33 36 0 0
BITMAP
000000054000000000
0000002FE007C00000
000000BFFD0FD00000
000000FFFFAFC00000
000002FC7FFF400000
000002F40BFE000000
0000005001F8000000
000000000000000000
000000000000000000
001BF4000AFE000000
01FFFD007FFFD00000
07FFFE02FFFFF00000
1FEAFE0BF9BFF40000
7F41FF1FD01FF40000
FD01FF3F000FF80000
F801FE7C000FF40000
6001FEF4001FF40000
0002FEF0001FF40000
0002FFD0002FF00000
0002FFC0003FE00000
0003FF80003FE00000
0003FF40007FD00000
0007FF0000BFC00000
0007FE0000BFC00000
000BFD0000FF800000
000BFC0000FF400000
000FFC0001FF400000
000FF80002FF000000
001FF40002FF000000
001FF40002FF000740
002FF00002FF001F40
002FF00002FF407F40
002FF00001FFEAFE00
002FE00000BFFFF800
002FD000003FFFD000
001F80000006FA0000
ENDCHAR
STARTCHAR Ograve
ENCODING 210
SWIDTH 816 0
DWIDTH 26 0
BBX 24 37 2 0
BITMAP
000500000000
002F80000000
003FF4000000
002FFD000000
000BFF400000
0001BFE00000
00001BF40000
000001B40000
000000000000
000000000000
00001BFE9000
0001FFFFF800
001FFFFFFF40
007FFE9BFFD0
01FFD000BFF0
03FF40002FF4
0BFD00000FFC
0FF800000BFC
2FF4000007FD
3FE0000007FD
7FD0000007FE
7FD0000007FD
BFC0000007FD
BFC0000007FD
FF80000007FD
FF8000000BFC
FF8000000FF8
FFC000000FF4
BFC000002FF0
BFD000003FE0
7FE00000BFC0
3FF40002FF40
1FFD000BFE00
0BFFE6BFF800
02FFFFFFE000
007FFFFE4000
0006FFA40000
ENDCHAR
STARTCHAR Oacute
ENCODING 211
SWIDTH 816 0
DWIDTH 26 0
BBX 24 37 2 0
BITMAP
000000000140
000000000BE0
000000007FF0
00000001FFE0
00000007FF80
0000002FF900
0000007F9000
000000790000
000000000000
000000000000
00001BFE9000
0001FFFFF800
001FFFFFFF40
007FFE9BFFD0
01FFD000BFF0
03FF40002FF4
0BFD00000FFC
0FF800000BFC
2FF4000007FD
3FE0000007FD
7FD0000007FE
7FD0000007FD
BFC0000007FD
BFC0000007FD
FF80000007FD
FF8000000BFC
FF8000000FF8
FFC000000FF4
BFC000002FF0
BFD000003FE0
7FE00000BFC0
3FF40002FF40
1FFD000BFE00
0BFFE6BFF800
02FFFFFFE000
007FFFFE4000
0006FFA40000
ENDCHAR
STARTCHAR Ocircumflex
ENCODING 212
SWIDTH 816 0
DWIDTH 26 0
BBX 24 38 2 0
BITMAP
0000006F4000
000001FFC000
000003FFE000
00000BFBF000
00001FE7F400
00003FD3F800
00007F82FC00
0000BF01FC00
00007D00B800
000000000000
000000000000
00001BFE9000
0001FFFFF800
001FFFFFFF40
007FFE9BFFD0
01FFD000BFF0
03FF40002FF4
0BFD00000FFC
0FF800000BFC
2FF4000007FD
3FE0000007FD
7FD0000007FE
7FD0000007FD
BFC0000007FD
BFC0000007FD
FF80000007FD
FF8000000BFC
FF8000000FF8
FFC000000FF4
BFC000002FF0
BFD000003FE0
7FE00000BFC0
3FF40002FF40
1FFD000BFE00
0BFFE6BFF800
02FFFFFFE000
007FFFFE4000
0006FFA40000
ENDCHAR
STARTCHAR Otilde
ENCODING 213
SWIDTH 816 0
DWIDTH 26 0
BBX 24 36 2 0
BITMAP
000005400000
00002FE00780
0000BFFD1FC0
0001FFFF7F80
0002FCBFFF40
0003F41FFE00
00015002F800
000000000000
000000000000
00001BFE9000
0001FFFFF800
001FFFFFFF40
007FFE9BFFD0
01FFD000BFF0
03FF40002FF4
0BFD00000FFC
0FF800000BFC
2FF4000007FD
3FE0000007FD
7FD0000007FE
7FD0000007FD
BFC0000007FD
BFC0000007FD
FF80000007FD
FF8000000BFC
FF8000000FF8
FFC000000FF4
BFC000002FF0
BFD000003FE0
7FE00000BFC0
3FF40002FF40
1FFD000BFE00
0BFFE6BFF800
02FFFFFFE000
007FFFFE4000
0006FFA40000
ENDCHAR
STARTCHAR Odieresis
ENCODING 214
SWIDTH 816 0
DWIDTH 26 0
BBX 24 34 2 0
BITMAP
00002F40B800
00007FC2FE00
0000BFC3FE00
0000BFC3FE00
00002E41F800
000000000000
000000000000
00001BFE9000
0001FFFFF800
001FFFFFFF40
007FFE9BFFD0
01FFD000BFF0
03FF40002FF4
0BFD00000FFC
0FF800000BFC
2FF4000007FD
3FE0000007FD
7FD0000007FE
7FD0000007FD
BFC0000007FD
BFC0000007FD
FF80000007FD
FF8000000BFC
FF8000000FF8
FFC000000FF4
BFC000002FF0
BFD000003FE0
7FE00000BFC0
3FF40002FF40
1FFD000BFE00
0BFFE6BFF800
02FFFFFFE000
007FFFFE4000
0006FFA40000
ENDCHAR
STARTCHAR multiply
ENCODING 215
SWIDTH 700 0
DWIDTH 22 0
BBX 17 15 3 2
BITMAP
0140000500
0BD0007F00
0FF401FF40
0FFD07FE00
03FF1FF800
01FFFFE000
007FFF4000
001FFD0000
002FFE0000
00FFFF4000
07FFBFD000
1FF83FF400
7FE00FFC00
7F8007FC00
2D0001F400
ENDCHAR
STARTCHAR Oslash
ENCODING 216
SWIDTH 816 0
DWIDTH 26 0
BBX 24 34 2 -4
BITMAP
00000007D000
0000000FE000
0000001FD000
00001BFFD000
0001FFFFF900
000FFFFFFF40
007FFEBFFFD0
01FFD0BFBFF0
03FF40FE2FF4
0BFD00FD1FFC
0FF801FC0BFC
2FF002F807FD
3FE003F807FD
7FD003F407FE
7FD007F007FD
BFC00BE007FD
BFC00FD007FD
FFC00FD007FD
FF801FC00BFC
FF802F800FF8
FFC03F400FF4
BFC07F402FF0
BFD07F003FE0
7FE0BE00BFC0
3FF4FD02FF40
1FFEFC0BFE00
0BFFFEBFF800
02FFFFFFE000
007FFFFE4000
000BFFA40000
000BE0000000
000FE0000000
000FD0000000
000140000000
ENDCHAR
STARTCHAR Ugrave
ENCODING 217
SWIDTH 890 0
DWIDTH 28 0
BBX 33 37 0 0
BITMAP
000005000000000000
00003F800000000000
00007FE00000000000
00007FF80000000000
00001FFF4000000000
000001FFD000000000
0000001FF000000000
00000001E000000000
000000000000000000
000000000000000000
001BF8000002E00000
01FFFE00000BF40000
07FFFF40000BF80000
1FFAFF80000FF80000
7F80FF80000FF80000
BE00FF80001FF40000
F800FF80001FF40000
A000FF40002FF00000
0001FF40002FF00000
0002FF00003FE00000
0002FF00007FE00000
0003FE00007FD00000
0007FD0000BFD00000
0007FD0000FFC00000
000BFC0001FFC00000
000FF80002FFC00000
000FF80003FF800000
001FF4000BFF800000
001FF0000FFF400000
002FF0002EFF400000
002FF0007DFF400240
002FF001F8FF400F80
002FF007F0FF807F40
002FFEAFD0FFE6FF00
000FFFFF40BFFFF800
0007FFFD003FFFE000
0001BF900006FE4000
ENDCHAR
STARTCHAR Uacute
ENCODING 218
SWIDTH 890 0
DWIDTH 28 0
BBX 33 37 0 0
BITMAP
000000000001400000
00000000001FD00000
0000000000BFE00000
0000000002FFD00000
000000000BFF400000
000000003FF8000000
00000000BF80000000
00000000B800000000
000000000000000000
000000000000000000
001BF8000002E00000
01FFFE00000BF40000
07FFFF40000BF80000
1FFAFF80000FF80000
7F80FF80000FF80000
BE00FF80001FF40000
F800FF80001FF40000
A000FF40002FF00000
0001FF40002FF00000
0002FF00003FE00000
0002FF00007FE00000
0003FE00007FD00000
0007FD0000BFD00000
0007FD0000FFC00000
000BFC0001FFC00000
000FF80002FFC00000
000FF80003FF800000
001FF4000BFF800000
001FF0000FFF400000
002FF0002EFF400000
002FF0007DFF400240
002FF001F8FF400F80
002FF007F0FF807F40
002FFEAFD0FFE6FF00
000FFFFF40BFFFF800
0007FFFD003FFFE000
0001BF900006FE4000
ENDCHAR
STARTCHAR Ucircumflex
ENCODING 219
SWIDTH 890 0
DWIDTH 28 0
BBX 33 38 0 0
BITMAP
000000007E00000000
00000002FF80000000
00000007FFD0000000
0000000FFFE0000000
0000002FDBF0000000
0000007F87F4000000
000000FF43F8000000
000001FE02F8000000
000000B801F4000000
000000000000000000
000000000000000000
001BF8000002E00000
01FFFE00000BF40000
07FFFF40000BF80000
1FFAFF80000FF80000
7F80FF80000FF80000
BE00FF80001FF40000
F800FF80001FF40000
A000FF40002FF00000
0001FF40002FF00000
0002FF00003FE00000
0002FF00007FE00000
0003FE00007FD00000
0007FD0000BFD00000
0007FD0000FFC00000
000BFC0001FFC00000
000FF80002FFC00000
000FF80003FF800000
001FF4000BFF800000
001FF0000FFF400000
002FF0002EFF400000
002FF0007DFF400240
002FF001F8FF400F80
002FF007F0FF807F40
002FFEAFD0FFE6FF00
000FFFFF40BFFFF800
0007FFFD003FFFE000
0001BF900006FE4000
ENDCHAR
STARTCHAR Udieresis
ENCODING 220
SWIDTH 890 0
DWIDTH 28 0
BBX 33 34 0 0
BITMAP
0000006E01F8000000
000000FF87FD000000
000000FF87FD000000
000000FF47FC000000
0000007E02F4000000
000000000000000000
000000000000000000
001BF8000002E00000
01FFFE00000BF40000
07FFFF40000BF80000
1FFAFF80000FF80000
7F80FF80000FF80000
BE00FF80001FF40000
F800FF80001FF40000
A000FF40002FF00000
0001FF40002FF00000
0002FF00003FE00000
0002FF00007FE00000
0003FE00007FD00000
0007FD0000BFD00000
0007FD0000FFC00000
000BFC0001FFC00000
000FF80002FFC00000
000FF80003FF800000
001FF4000BFF800000
001FF0000FFF400000
002FF0002EFF400000
002FF0007DFF400240
002FF001F8FF400F80
002FF007F0FF807F40
002FFEAFD0FFE6FF00
000FFFFF40BFFFF800
0007FFFD003FFFE000
0001BF900006FE4000
ENDCHAR
STARTCHAR Yacute
ENCODING 221
SWIDTH 851 0
DWIDTH 27 0
BBX 31 48 0 -11
BITMAP
0000000000014000
00000000000BE000
00000000007FF000
0000000001FFE000
0000000007FF8000
000000002FF90000
000000007F900000
0000000079000000
0000000000000000
0000000000000000
001BF8000002E400
01FFFE00000BF800
07FFFF40000BF800
1FFAFF80000FF800
7F80FF80000FF800
BE00FF80001FF400
F800FF80001FF400
A000FF40002FF000
0001FF40003FF000
0002FF00003FE000
0002FF00007FE000
0003FE0000BFE000
0007FD0000FFD000
0007FD0001FFD000
000BFC0003FFC000
000BFC0007FFC000
000BF8000FBF8000
000FF8002FBF8000
000BFC00BDBF8000
000BFE06F8BF4000
0007FFFFF0FF56B4
0002FFFFC0FFFFF8
0000BFFE06FFFFF4
000005506FFFFE50
00000007FFFE4000
0000007FFBFD0000
000002FF82FD0000
00000BF803FC0000
00002FD007FC0000
00007F400BF80000
0000BF000FF40000
0000FE001FE00000
0001FE007FD00000
0001FF41FF800000
0000FFFFFE000000
00007FFFF8000000
00001FFFD0000000
0000015400000000
ENDCHAR
STARTCHAR Thorn
ENCODING 222
SWIDTH 776 0
DWIDTH 25 0
BBX 24 34 1 -4
BITMAP
000001F80000
000003FD0000
000007FD0000
000007FC0000
00000BFC0000
00000BFC0000
00000BFD5000
00006FFFFE00
0002FFFFFFD0
001FFFFFFFF4
007FFFF06FFC
01FFAFF00BFE
02FD2FF007FE
07F82FE003FF
0FF03FE003FF
1FD03FD003FF
2FC07FD007FE
3F807FC00BFD
7F40BFC01FF8
7F40BF81BFF0
7F0AFFEFFFD0
BF1FFFFFFE00
BF1FFFFFE400
BF06FFA90000
BF02FF000000
BF02FE000000
7F03FD000000
3F43FD000000
3F87FC000000
1FCBFC000000
0FFFF8000000
07FFF0000000
01FFD0000000
001500000000
ENDCHAR
STARTCHAR germandbls
ENCODING 223
SWIDTH 596 0
DWIDTH 19 0
BBX 22 33 1 -7
BITMAP
000015400000
0002FFF80000
001FFFFF4000
007FFFFF8000
00FF907FC000
02FE002FD000
03FC002FD000
0BF4002FC000
0FF000BF8000
1FE002FF0000
1FD01FF80000
2FD07FE00000
2FC0FF400000
3FC1FE000000
3FC2FF000000
7F81FF800000
7F80BFF54000
7F807FFFFE40
7F82FFFFFFF0
7F8BF9FFEBF0
7F8FE03FD050
7F9FD02FD000
7F9FE03FD000
7F8FFFFF8000
BF87FFFE0000
BF81BFE40000
BF8000000000
BF8000000000
BF8000000000
BF8000000000
BF8000000000
BF4000000000
150000000000
ENDCHAR
STARTCHAR agrave
ENCODING 224
SWIDTH 470 0
DWIDTH 15 0
BBX 18 27 1 0
BITMAP
0050000000
02F8000000
03FD000000
02FE000000
00FF400000
007F800000
001FC00000
000BE00000
0002F00000
0000E00000
0000000000
0000000000
001BE00000
00BFFA4000
02FFFFC000
0BFFBF8000
1FF43F8000
3FE07F4000
7FC0BF4000
BF80BF0000
BF40FF00B0
FF01FE02F0
FF42FE0BF0
BFEBFFAFD0
7FFFBFFF40
2FFE2FFD00
0BF40BE000
ENDCHAR
STARTCHAR aacute
ENCODING 225
SWIDTH 470 0
DWIDTH 15 0
BBX 18 27 1 0
BITMAP
0000005000
000003F400
000007F800
00000FF400
00001FE000
00002FC000
00007F4000
0000BD0000
0000F80000
0000E00000
0000000000
0000000000
001BE00000
00BFFA4000
02FFFFC000
0BFFBF8000
1FF43F8000
3FE07F4000
7FC0BF4000
BF80BF0000
BF40FF00B0
FF01FE02F0
FF42FE0BF0
BFEBFFAFD0
7FFFBFFF40
2FFE2FFD00
0BF40BE000
ENDCHAR
STARTCHAR acircumflex
ENCODING 226
SWIDTH 470 0
DWIDTH 15 0
BBX 18 28 1 0
BITMAP
0000150000
0000BF4000
0002FF8000
0007FFC000
000BEFC000
001FCBD000
003F8BE000
00BF0BF000
00FE07F000
01FC07F400
01F402E000
0000000000
0000000000
001BE00000
00BFFA4000
02FFFFC000
0BFFBF8000
1FF43F8000
3FE07F4000
7FC0BF4000
BF80BF0000
BF40FF00B0
FF01FE02F0
FF42FE0BF0
BFEBFFAFD0
7FFFBFFF40
2FFE2FFD00
0BF40BE000
ENDCHAR
STARTCHAR atilde
ENCODING 227
SWIDTH 470 0
DWIDTH 15 0
BBX 18 24 1 0
BITMAP
0015000000
00BF801E00
01FFF43F40
03FFFEBF00
07F1FFFD00
0BD02FF800
014007E000
0000000000
0000000000
001BE00000
00BFFA4000
02FFFFC000
0BFFBF8000
1FF43F8000
3FE07F4000
7FC0BF4000
BF80BF0000
BF40FF00B0
FF01FE02F0
FF42FE0BF0
BFEBFFAFD0
7FFFBFFF40
2FFE2FFD00
0BF40BE000
ENDCHAR
STARTCHAR adieresis
ENCODING 228
SWIDTH 470 0
DWIDTH 15 0
BBX 18 22 1 0
BITMAP
007D02F400
01FF0BF800
01FF4BFC00
01FF0BF800
00BD06E000
0000000000
0000000000
001BE00000
00BFFA4000
02FFFFC000
0BFFBF8000
1FF43F8000
3FE07F4000
7FC0BF4000
BF80BF0000
BF40FF00B0
FF01FE02F0
FF42FE0BF0
BFEBFFAFD0
7FFFBFFF40
2FFE2FFD00
0BF40BE000
ENDCHAR
STARTCHAR aring
ENCODING 229
SWIDTH 470 0
DWIDTH 15 0
BBX 18 26 1 0
BITMAP
0001BE0000
000BFF8000
001FFFD000
002F47E000
003F03E000
002F47E000
002FFFD000
000FFF8000
0002F90000
0000000000
0000000000
001BE00000
00BFFA4000
02FFFFC000
0BFFBF8000
1FF43F8000
3FE07F4000
7FC0BF4000
BF80BF0000
BF40FF00B0
FF01FE02F0
FF42FE0BF0
BFEBFFAFD0
7FFFBFFF40
2FFE2FFD00
0BF40BE000
ENDCHAR
STARTCHAR ae
ENCODING 230
SWIDTH 653 0
DWIDTH 21 0
BBX 24 15 1 0
BITMAP
000AF86FE000
00BFFEFFFC00
02FFFFFFFD00
0BFFAFFAFE00
2FF42FD0BE00
3FD03F80FD00
7F807F42FC00
BF40BF5FF400
BF40FFFFD01F
BF01FFF9007F
BF42FFC002FE
BFEBFFF9AFFC
7FFFDFFFFFE0
2FFF47FFFF80
06F9006FE400
ENDCHAR
STARTCHAR ccedilla
ENCODING 231
SWIDTH 368 0
DWIDTH 12 0
BBX 15 24 1 -9
BITMAP
006F9000
02FFF000
0BFFF800
2FFAF800
3FD1F800
BF82F800
BF42F000
FF000000
FF000028
FF4000BC
BF8006F8
7FE06FF4
2FFFFFD0
0FFFFE00
03FFE000
03FFD000
001BF000
0003F000
0007F000
001BE000
2FFFD000
3FFF8000
3FFE0000
05500000
ENDCHAR
STARTCHAR egrave
ENCODING 232
SWIDTH 393 0
DWIDTH 13 0
BBX 16 27 1 0
BITMAP
01400000
0FD00000
1FF00000
0FF40000
07FC0000
02FD0000
00BE0000
003F4000
001F8000
00074000
00000000
00000000
006FD000
02FFF800
0FFFFC00
2FFAFD00
3FC0FD00
BF41FC00
BF07F800
FF6FF000
FFFF801E
FFF800BE
BF8007FD
7FF9BFF8
2FFFFFE0
0BFFFF40
01BFE400
ENDCHAR
STARTCHAR eacute
ENCODING 233
SWIDTH 393 0
DWIDTH 13 0
BBX 16 27 1 0
BITMAP
00000500
00001FC0
00002FD0
00007FC0
0000BF80
0000FE00
0002FC00
0003F400
0007D000
00078000
00000000
00000000
006FD000
02FFF800
0FFFFC00
2FFAFD00
3FC0FD00
BF41FC00
BF07F800
FF6FF000
FFFF801E
FFF800BE
BF8007FD
7FF9BFF8
2FFFFFE0
0BFFFF40
01BFE400
ENDCHAR
STARTCHAR ecircumflex
ENCODING 234
SWIDTH 393 0
DWIDTH 13 0
BBX 16 28 1 0
BITMAP
00005000
0007F800
000FFD00
002FFE00
003FBE00
00BE7F00
01FD3F40
03F83F80
07F42F80
0BE02FC0
0B801F40
00000000
00000000
006FD000
02FFF800
0FFFFC00
2FFAFD00
3FC0FD00
BF41FC00
BF07F800
FF6FF000
FFFF801E
FFF800BE
BF8007FD
7FF9BFF8
2FFFFFE0
0BFFFF40
01BFE400
ENDCHAR
STARTCHAR edieresis
ENCODING 235
SWIDTH 393 0
DWIDTH 13 0
BBX 16 22 1 0
BITMAP
02F41B80
0BF83FD0
0BFC3FE0
0BF83FD0
06E01F80
00000000
00000000
006FD000
02FFF800
0FFFFC00
2FFAFD00
3FC0FD00
BF41FC00
BF07F800
FF6FF000
FFFF801E
FFF800BE
BF8007FD
7FF9BFF8
2FFFFFE0
0BFFFF40
01BFE400
ENDCHAR
STARTCHAR igrave
ENCODING 236
SWIDTH 246 0
DWIDTH 8 0
BBX 13 27 -1 0
BITMAP
05000000
3F400000
7F800000
3FD00000
2FE00000
0BF00000
03F80000
01FC0000
007D0000
002D0000
00000000
00000000
007D0000
00FE0000
01FE0000
02FD0000
03FD0000
03FC0000
07F80000
07F80000
07F403C0
07F40BC0
07F42F80
07FEFF00
03FFFD00
02FFF000
00BE4000
ENDCHAR
STARTCHAR iacute
ENCODING 237
SWIDTH 246 0
DWIDTH 8 0
BBX 11 27 1 0
BITMAP
000140
0007F0
000FF4
001FF0
003FD0
007F80
00BE00
01FC00
02F400
01D000
000000
000000
07D000
0FE000
1FE000
2FD000
3FD000
3FC000
7F8000
7F8000
7F403C
7F40BC
7F42F8
7FEFF0
3FFFD0
2FFF00
0BE400
ENDCHAR
STARTCHAR icircumflex
ENCODING 238
SWIDTH 246 0
DWIDTH 8 0
BBX 12 28 0 0
BITMAP
000500
007F80
00FFC0
02FFD0
07FBE0
0FE7F0
1FC7F0
3F83F4
BF03F8
FE02F8
B801F4
000000
000000
01F400
03F800
07F800
0BF400
0FF400
0FF000
1FE000
1FE000
1FD00F
1FD02F
1FD0BE
1FFBFC
0FFFF4
0BFFC0
02F900
ENDCHAR
STARTCHAR idieresis
ENCODING 239
SWIDTH 246 0
DWIDTH 8 0
BBX 12 22 0 0
BITMAP
2E01F8
BF83FD
FF87FD
FF47FC
7E02F4
000000
000000
01F400
03F800
07F800
0BF400
0FF400
0FF000
1FE000
1FE000
1FD00F
1FD02F
1FD0BE
1FFBFC
0FFFF4
0BFFC0
02F900
ENDCHAR
STARTCHAR eth
ENCODING 240
SWIDTH 451 0
DWIDTH 14 0
BBX 16 30 1 0
BITMAP
00B80000
01FF0004
00BF807D
003FD2FE
001FFBFC
000BFFF4
0007FF80
006FFE00
02FFFF00
02FEBF40
01E47F80
00003FC0
00003FC0
00002FD0
00002FD0
006FAFD0
03FFFFE0
0FFFFFE0
2FF9FFD0
7FC02FD0
BF402FD0
BF402FC0
FF003FC0
FF003F80
BF40BF40
BF80FF00
7FEBFE00
2FFFF800
0BFFE000
01BE4000
ENDCHAR
STARTCHAR ntilde
ENCODING 241
SWIDTH 496 0
DWIDTH 16 0
BBX 19 24 1 0
BITMAP
0005000000
007F801F40
01FFF42F40
02FFFEBF00
07F5FFFD00
07E02FF800
014007E000
0000000000
0000000000
07E01BD000
0FE0BFE000
1FD2FFE000
2FC7FFE000
3FCFFFD000
3FAF6FD000
7FBE2FC000
7FFC3FC000
7FF43F803C
7FF07F80BC
7FE07F42F8
7FD07FEFF0
7FC07FFFD0
3F803FFE00
1F401BE400
ENDCHAR
STARTCHAR ograve
ENCODING 242
SWIDTH 451 0
DWIDTH 14 0
BBX 18 27 1 0
BITMAP
0140000000
0FD0000000
1FE0000000
0FF4000000
07F8000000
02FD000000
00FE000000
003F000000
001F400000
0007400000
0000000000
0000000000
006FE00000
03FFF80000
0FFFFE0000
2FFBFF4000
7FC3FF8000
BF82FFEAD0
BF41FFFFE0
FF00BFFFE0
FF003FFE40
BF407F4000
BF80BF0000
7FEAFE0000
2FFFFC0000
0BFFE00000
01BE400000
ENDCHAR
STARTCHAR oacute
ENCODING 243
SWIDTH 451 0
DWIDTH 14 0
BBX 18 27 1 0
BITMAP
0000050000
00001FC000
00003FD000
00007FC000
0000BF4000
0001FE0000
0002F80000
0003F00000
000BD00000
0007400000
0000000000
0000000000
006FE00000
03FFF80000
0FFFFE0000
2FFBFF4000
7FC3FF8000
BF82FFEAD0
BF41FFFFE0
FF00BFFFE0
FF003FFE40
BF407F4000
BF80BF0000
7FEAFE0000
2FFFFC0000
0BFFE00000
01BE400000
ENDCHAR
STARTCHAR ocircumflex
ENCODING 244
SWIDTH 451 0
DWIDTH 14 0
BBX 18 28 1 0
BITMAP
0000500000
0007F80000
000FFC0000
002FFD0000
007FBE0000
00BE7F0000
01FC7F0000
03F83F4000
0BF03F8000
0FE02F8000
0B801F4000
0000000000
0000000000
006FE00000
03FFF80000
0FFFFE0000
2FFBFF4000
7FC3FF8000
BF82FFEAD0
BF41FFFFE0
FF00BFFFE0
FF003FFE40
BF407F4000
BF80BF0000
7FEAFE0000
2FFFFC0000
0BFFE00000
01BE400000
ENDCHAR
STARTCHAR otilde
ENCODING 245
SWIDTH 451 0
DWIDTH 14 0
BBX 18 24 1 0
BITMAP
0050000000
03FD00B400
0BFF82F800
1FFFF7F400
3F8BFFE000
3F01FFD000
14002E4000
0000000000
0000000000
006FE00000
03FFF80000
0FFFFE0000
2FFBFF4000
7FC3FF8000
BF82FFEAD0
BF41FFFFE0
FF00BFFFE0
FF003FFE40
BF407F4000
BF80BF0000
7FEAFE0000
2FFFFC0000
0BFFE00000
01BE400000
ENDCHAR
STARTCHAR odieresis
ENCODING 246
SWIDTH 451 0
DWIDTH 14 0
BBX 18 22 1 0
BITMAP
02E01F8000
0BF83FD000
0FF87FD000
0BF83FD000
07E02F4000
0000000000
0000000000
006FE00000
03FFF80000
0FFFFE0000
2FFBFF4000
7FC3FF8000
BF82FFEAD0
BF41FFFFE0
FF00BFFFE0
FF003FFE40
BF407F4000
BF80BF0000
7FEAFE0000
2FFFFC0000
0BFFE00000
01BE400000
ENDCHAR
STARTCHAR divide
ENCODING 247
SWIDTH 700 0
DWIDTH 22 0
BBX 18 18 2 0
BITMAP
00007E0000
0001FF4000
0001FF4000
0001FF4000
0000BD0000
0000000000
0000000000
0555555550
3FFFFFFFF0
7FFFFFFFF0
2FFFFFFFD0
0000000000
0000000000
0006E40000
000BF80000
000FFC0000
000FF80000
0007E00000
ENDCHAR
STARTCHAR oslash
ENCODING 248
SWIDTH 459 0
DWIDTH 15 0
BBX 18 23 1 -4
BITMAP
0001E00000
0002E00000
0003D00000
0003D00000
00BFE00000
03FFFC0000
0FFFFF0000
2FEFFF8000
7F8F7FC000
BF4F2FD6A0
BF1F2FFFF0
FF1E2FFFE0
FF2E2FFE80
FF2D3F8000
BF7D7F4000
7FFEFF0000
2FFFFD0000
0FFFF40000
02FF800000
00F4000000
00F4000000
01F0000000
01E0000000
ENDCHAR
STARTCHAR ugrave
ENCODING 249
SWIDTH 462 0
DWIDTH 15 0
BBX 18 27 1 0
BITMAP
0050000000
03F4000000
07F8000000
03FD000000
01FE000000
00BF400000
003F800000
000FC00000
0007D00000
0001D00000
0000000000
0000000000
07E00BC000
0FE02FC000
1FE03F8000
2FD07F8000
3FC0BF4000
3FC0FF4000
7F81FF0000
7F82FE0050
7F47FE01F0
7F9FFD07E0
7FFFFD0FE0
7FFEFFBF80
3FFCFFFF00
2FF4BFF800
0BD02F9000
ENDCHAR
STARTCHAR uacute
ENCODING 250
SWIDTH 462 0
DWIDTH 15 0
BBX 18 27 1 0
BITMAP
0000014000
000007F000
00000FF400
00001FF000
00002FD000
00007F8000
0000BE0000
0000FC0000
0002F40000
0001D00000
0000000000
0000000000
07E00BC000
0FE02FC000
1FE03F8000
2FD07F8000
3FC0BF4000
3FC0FF4000
7F81FF0000
7F82FE0050
7F47FE01F0
7F9FFD07E0
7FFFFD0FE0
7FFEFFBF80
3FFCFFFF00
2FF4BFF800
0BD02F9000
ENDCHAR
STARTCHAR ucircumflex
ENCODING 251
SWIDTH 462 0
DWIDTH 15 0
BBX 18 28 1 0
BITMAP
0000140000
0001FE0000
0003FF0000
000BFF4000
001FEF8000
002F9FC000
007F0FC000
00FE0FD000
02FC0FE000
03F80BE000
02E007D000
0000000000
0000000000
07E00BC000
0FE02FC000
1FE03F8000
2FD07F8000
3FC0BF4000
3FC0FF4000
7F81FF0000
7F82FE0050
7F47FE01F0
7F9FFD07E0
7FFFFD0FE0
7FFEFFBF80
3FFCFFFF00
2FF4BFF800
0BD02F9000
ENDCHAR
STARTCHAR udieresis
ENCODING 252
SWIDTH 462 0
DWIDTH 15 0
BBX 18 22 1 0
BITMAP
00B907E000
02FE0FF400
03FE1FF400
02FE0FF400
01F80BD000
0000000000
0000000000
07E00BC000
0FE02FC000
1FE03F8000
2FD07F8000
3FC0BF4000
3FC0FF4000
7F81FF0000
7F82FE0050
7F47FE01F0
7F9FFD07E0
7FFFFD0FE0
7FFEFFBF80
3FFCFFFF00
2FF4BFF800
0BD02F9000
ENDCHAR
STARTCHAR yacute
ENCODING 253
SWIDTH 479 0
DWIDTH 15 0
BBX 19 42 0 -15
BITMAP
0000005000
000001FC00
000003FD00
000007FC00
00000BF400
00001FE000
00002F8000
00003F0000
0000BD0000
0000740000
0000000000
0000000000
01F802F000
03F80BF000
07F80FF000
0BF41FE000
0FF02FE000
0FF03FD000
1FE07FC000
1FD0BFC014
1FD1FF80B8
1FE7FF87F8
1FFFFFAFF4
1FFFBFFFD0
0FFF7FFE00
0BFD7FF400
02F4BF8000
0007FE0000
001FFD0000
007FFD0000
01FEFC0000
07F6F80000
0FD3F80000
2F83F40000
7F07F00000
BD0BE00000
FC1FD00000
FC2F800000
FEBF400000
FFFE000000
7FF8000000
1FD0000000
ENDCHAR
STARTCHAR thorn
ENCODING 254
SWIDTH 508 0
DWIDTH 16 0
BBX 21 37 0 -11
BITMAP
001500000000
007F40000000
00FF40000000
00FF00000000
01FF00000000
01FE00000000
02FD00000000
03FD00000000
03FC00000000
07F800000000
07F800000000
0BF41BD00000
0BF4BFF40000
0FF2FFF80000
0FF7FFFC0000
0FEFD7FC0000
1FFF43FC0000
1FFE03FC0000
1FFC03F80100
2FF807F40B40
2FF00FF02F40
2FE03FD0BF00
2FD6FFEBFD00
3FFFFFFFF400
3FFFFBFFD000
3FFE42FE0000
3FC000000000
3F8000000000
3F8000000000
3F8000000000
7F8000000000
7F8000000000
7F8000000000
7F8000000000
7F8000000000
3F8000000000
150000000000
ENDCHAR
STARTCHAR ydieresis
ENCODING 255
SWIDTH 479 0
DWIDTH 15 0
BBX 19 37 0 -15
BITMAP
002E41F800
00BF83FD00
00FF87FD00
00BF83FD00
007E02F400
0000000000
0000000000
01F802F000
03F80BF000
07F80FF000
0BF41FE000
0FF02FE000
0FF03FD000
1FE07FC000
1FD0BFC014
1FD1FF80B8
1FE7FF87F8
1FFFFFAFF4
1FFFBFFFD0
0FFF7FFE00
0BFD7FF400
02F4BF8000
0007FE0000
001FFD0000
007FFD0000
01FEFC0000
07F6F80000
0FD3F80000
2F83F40000
7F07F00000
BD0BE00000
FC1FD00000
FC2F800000
FEBF400000
FFFE000000
7FF8000000
1FD0000000
ENDCHAR
STARTCHAR Amacron
ENCODING 256
SWIDTH 786 0
DWIDTH 25 0
BBX 29 33 1 0
BITMAP
0000000555540000
0000002FFFFD0000
0000003FFFFD0000
0000002FFFF80000
0000000000000000
0000000000000000
0000001AFFEA4000
000006FFFFFFE000
00006FFFFFFFE000
0001FFFE96AFD000
000BFF9000010000
002FFD0006900000
007FE0000FF40000
01FFC0001FF40000
02FF40001FF00000
07FE00002FF00000
0BFC00003FE00000
0FF800003FD00000
1FF400007FD00000
2FF00000BFC00000
3FE00000FFC00000
3FE00000FF800000
3FE00001FF800000
7FE00002FF400000
7FE00007FF400000
3FE0000BFF400000
3FF0001FFF400B00
2FF4003FFF401F40
1FFC00BEFF807F00
0BFF9BFCFFEAFD00
03FFFFF4BFFFF400
00BFFFD03FFFD000
001BF9000BFA0000
ENDCHAR
STARTCHAR amacron
ENCODING 257
SWIDTH 470 0
DWIDTH 15 0
BBX 18 21 1 0
BITMAP
0015555000
00FFFFF000
01FFFFF000
00BFFFD000
0000000000
0000000000
001BE00000
00BFFA4000
02FFFFC000
0BFFBF8000
1FF43F8000
3FE07F4000
7FC0BF4000
BF80BF0000
BF40FF00B0
FF01FE02F0
FF42FE0BF0
BFEBFFAFD0
7FFFBFFF40
2FFE2FFD00
0BF40BE000
ENDCHAR
STARTCHAR Abreve
ENCODING 258
SWIDTH 786 0
DWIDTH 25 0
BBX 29 35 1 0
BITMAP
0000007D0007C000
000000FF002FD000
000000BFE6BFC000
0000007FFFFF4000
0000001FFFFD0000
00000002BF900000
0000000000000000
0000000000000000
0000001AFFEA4000
000006FFFFFFE000
00006FFFFFFFE000
0001FFFE96AFD000
000BFF9000010000
002FFD0006900000
007FE0000FF40000
01FFC0001FF40000
02FF40001FF00000
07FE00002FF00000
0BFC00003FE00000
0FF800003FD00000
1FF400007FD00000
2FF00000BFC00000
3FE00000FFC00000
3FE00000FF800000
3FE00001FF800000
7FE00002FF400000
7FE00007FF400000
3FE0000BFF400000
3FF0001FFF400B00
2FF4003FFF401F40
1FFC00BEFF807F00
0BFF9BFCFFEAFD00
03FFFFF4BFFFF400
00BFFFD03FFFD000
001BF9000BFA0000
ENDCHAR
STARTCHAR abreve
ENCODING 259
SWIDTH 470 0
DWIDTH 15 0
BBX 18 24 1 0
BITMAP
02E0002E00
07F400BF00
03FC01FE00
03FF9BFD00
01FFFFF800
007FFFE000
000AFE4000
0000000000
0000000000
001BE00000
00BFFA4000
02FFFFC000
0BFFBF8000
1FF43F8000
3FE07F4000
7FC0BF4000
BF80BF0000
BF40FF00B0
FF01FE02F0
FF42FE0BF0
BFEBFFAFD0
7FFFBFFF40
2FFE2FFD00
0BF40BE000
ENDCHAR
STARTCHAR Aogonek
ENCODING 260
SWIDTH 786 0
DWIDTH 25 0
BBX 29 35 1 -8
BITMAP
0000001AFFEA4000
000006FFFFFFE000
00006FFFFFFFE000
0001FFFE96AFD000
000BFF9000010000
002FFD0006900000
007FE0000FF40000
01FFC0001FF40000
02FF40001FF00000
07FE00002FF00000
0BFC00003FE00000
0FF800003FD00000
1FF400007FD00000
2FF00000BFC00000
3FE00000FFC00000
3FE00000FF800000
3FE00001FF800000
7FE00002FF400000
7FE00007FF400000
3FE0000BFF400000
3FF0001FFF400B00
2FF4003FFF401F40
1FFC00BEFF807F00
0BFF9BFCFFEAFD00
03FFFFF4BFFFF400
00BFFFD03FFF9000
001BF9000BFD0000
000000000BE00000
000000002F800000
000000003F400000
000000003F800000
000000003FE69000
000000002FFFE000
000000000FFFD000
0000000002FE4000
ENDCHAR
STARTCHAR aogonek
ENCODING 261
SWIDTH 470 0
DWIDTH 15 0
BBX 18 23 1 -8
BITMAP
001BE00000
00BFFA4000
02FFFFC000
0BFFBF8000
1FF43F8000
3FE07F4000
7FC0BF4000
BF80BF0000
BF40FF00B0
FF01FE02F0
FF42FE0BF0
BFEBFFBFD0
7FFFBFFF40
2FFE2FFD00
0BF43FE000
0000FF4000
0001FC0000
0003F40000
0003F40000
0003F81400
0002FFFD00
0000FFFD00
00001BE400
ENDCHAR
STARTCHAR Cacute
ENCODING 262
SWIDTH 686 0
DWIDTH 22 0
BBX 24 37 2 0
BITMAP
000000000140
000000000FE0
000000007FF0
00000001FFE0
0000000BFF80
0000002FF900
0000007F9000
000000790000
000000000000
000000000000
00001BFE8000
0001FFFFF400
001FFFFFFD00
007FFEABFE00
01FFE001FF40
03FF4000FF40
0BFD0000FF40
0FF80000FF40
2FF40000FF00
3FE00000FE00
7FD000006800
BFC000000000
BFC000000000
BFC000000000
FF8000000000
FF8000000000
FF8000000000
FFC000000000
BFD000000000
7FE000000000
3FF400000000
2FFC0000001A
0FFF400006FF
03FFFA9ABFFE
00BFFFFFFFF8
001FFFFFFF90
0001AFFE9400
ENDCHAR
STARTCHAR cacute
ENCODING 263
SWIDTH 368 0
DWIDTH 12 0
BBX 15 27 1 0
BITMAP
00000500
00001FC0
00003FD0
00007FC0
0000BF40
0001FE00
0002F800
0007F000
000BD000
00074000
00000000
00000000
006F9000
02FFF000
0BFFF800
2FFAF800
3FD1F800
BF82F400
BF41E000
FF000000
FF000078
FF4001FC
BF800BF8
7FF9BFF0
2FFFFFC0
0BFFFE00
01BF9000
ENDCHAR
STARTCHAR Ccircumflex
ENCODING 264
SWIDTH 686 0
DWIDTH 22 0
BBX 24 38 2 0
BITMAP
0000006F4000
000001FFC000
000003FFE000
00000BFBF000
00001FE7F400
00003FC3F800
0000BF82FC00
0000FF01FC00
00007D00B800
000000000000
000000000000
00001BFE8000
0001FFFFF400
001FFFFFFD00
007FFEABFE00
01FFE001FF40
03FF4000FF40
0BFD0000FF40
0FF80000FF40
2FF40000FF00
3FE00000FE00
7FD000006800
BFC000000000
BFC000000000
BFC000000000
FF8000000000
FF8000000000
FF8000000000
FFC000000000
BFD000000000
7FE000000000
3FF400000000
2FFC0000001A
0FFF400006FF
03FFFA9ABFFE
00BFFFFFFFF8
001FFFFFFF90
0001AFFE9400
ENDCHAR
STARTCHAR ccircumflex
ENCODING 265
SWIDTH 368 0
DWIDTH 12 0
BBX 15 28 1 0
BITMAP
00005000
0007F800
000FFC00
002FFD00
007FBE00
00FE7F00
01FC7F00
03F83F40
0BF03F80
0FE02F80
0B801F40
00000000
00000000
006F9000
02FFF000
0BFFF800
2FFAF800
3FD1F800
BF82F400
BF41E000
FF000000
FF000078
FF4001FC
BF800BF8
7FF9BFF0
2FFFFFC0
0BFFFE00
01BF9000
ENDCHAR
STARTCHAR Cdotaccent
ENCODING 266
SWIDTH 686 0
DWIDTH 22 0
BBX 24 34 2 0
BITMAP
000000BE0000
000002FF8000
000003FF8000
000003FF4000
000001BE0000
000000000000
000000000000
00001BFE8000
0001FFFFF400
001FFFFFFD00
007FFEABFE00
01FFE001FF40
03FF4000FF40
0BFD0000FF40
0FF80000FF40
2FF40000FF00
3FE00000FE00
7FD000006800
BFC000000000
BFC000000000
BFC000000000
FF8000000000
FF8000000000
FF8000000000
FFC000000000
BFD000000000
7FE000000000
3FF400000000
2FFC0000001A
0FFF400006FF
03FFFA9ABFFE
00BFFFFFFFF8
001FFFFFFF90
0001AFFE9400
ENDCHAR
STARTCHAR cdotaccent
ENCODING 267
SWIDTH 368 0
DWIDTH 12 0
BBX 15 22 1 0
BITMAP
000BE000
003FF400
003FF400
003FF400
001F9000
00000000
00000000
006F9000
02FFF000
0BFFF800
2FFAF800
3FD1F800
BF82F400
BF41E000
FF000000
FF000078
FF4001FC
BF800BF8
7FF9BFF0
2FFFFFC0
0BFFFE00
01BF9000
ENDCHAR
STARTCHAR Ccaron
ENCODING 268
SWIDTH 686 0
DWIDTH 22 0
BBX 24 37 2 0
BITMAP
00002E002E00
00003F80BE00
00002FC1FD00
00001FD3F800
00000BEBF000
000003FFD000
000002FF4000
000000BD0000
000000000000
000000000000
00001BFE8000
0001FFFFF400
001FFFFFFD00
007FFEABFE00
01FFE001FF40
03FF4000FF40
0BFD0000FF40
0FF80000FF40
2FF40000FF00
3FE00000FE00
7FD000006800
BFC000000000
BFC000000000
BFC000000000
FF8000000000
FF8000000000
FF8000000000
FFC000000000
BFD000000000
7FE000000000
3FF400000000
2FFC0000001A
0FFF400006FF
03FFFA9ABFFE
00BFFFFFFFF8
001FFFFFFF90
0001AFFE9400
ENDCHAR
STARTCHAR ccaron
ENCODING 269
SWIDTH 368 0
DWIDTH 12 0
BBX 15 28 1 0
BITMAP
00500050
01F803F0
02FC0BF0
01FC1FD0
00FD2FC0
00FD7F40
00BDBE00
007EFC00
003FF800
002FF000
001F8000
00000000
00000000
006F9000
02FFF000
0BFFF800
2FFAF800
3FD1F800
BF82F400
BF41E000
FF000000
FF000078
FF4001FC
BF800BF8
7FF9BFF0
2FFFFFC0
0BFFFE00
01BF9000
ENDCHAR
STARTCHAR Dcaron
ENCODING 270
SWIDTH 836 0
DWIDTH 27 0
BBX 25 37 1 0
BITMAP
00002E007D0000
00003F40FE0000
00003F82FC0000
00001FC7F40000
00000FDFE00000
000007FFC00000
000002FF400000
000000B9000000
00000000000000
00000000000000
0001AFFE900000
006FFFFFFE0000
0BFFFFFFFFD000
3FFFEA6BFFF400
7FF400007FFC00
7E4000000BFE00
2401500003FF40
001FF00001FF80
002FF00000FFC0
003FE00000BFC0
003FD00000BFC0
007FC00000BFC0
00BFC00000BFC0
00BF800000BFC0
00FF400000FFC0
01FF400000FF80
01FF000001FF40
02FF000002FF00
02FE000007FE00
03FE00000BFD00
03FD00002FF800
07FD0000BFF000
07FD0007FFC000
07FE5ABFFE0000
07FFFFFFF80000
07FFFFFF800000
01AFFFA4000000
ENDCHAR
STARTCHAR dcaron
ENCODING 271
SWIDTH 470 0
DWIDTH 15 0
BBX 21 30 1 0
BITMAP
000000000400
000000007F00
000000007F40
000000BDBF00
000002FDBE00
000003FDBD00
000003FCBC00
000007FC7800
000007F80000
00000BF40000
00000BF40000
00000BF00000
00000FF00000
00000FE00000
00001FE00000
001BEFD00000
00BFFFC00000
02FFFFC00000
0BFFBF800000
1FF43F800000
3FE07F400000
7FC0BF400000
BF80BF000000
BF40FF00B000
FF01FE02F000
FF42FE0BF000
BFEBFFAFD000
7FFFBFFF4000
2FFE2FFD0000
0BF40BE00000
ENDCHAR
STARTCHAR Dcroat
ENCODING 272
SWIDTH 821 0
DWIDTH 26 0
BBX 26 27 0 0
BITMAP
00006BFFA40000
0000FFFFFF4000
0001FFFFFFE000
0002FE5AFFF800
0003FD002FFE00
0007FC0007FF40
000BF80001FF80
000FF80000BFC0
001FF400007FD0
001FF000007FE0
002FE000003FE0
1FFFFFFD003FE0
7FFFFFFF003FE0
7FFFFFFE003FE0
15FFD554007FD0
00FF800000BFD0
00FF400000BFC0
01FF400001FF80
01FF000002FF40
02FF000007FE00
02FF00001FFC00
02FE00007FF400
03FE0006FFD000
03FE56BFFF4000
03FFFFFFF80000
03FFFFFF900000
01AFFFA4000000
ENDCHAR
STARTCHAR dcroat
ENCODING 273
SWIDTH 470 0
DWIDTH 15 0
BBX 18 27 1 0
BITMAP
000001BD00
000002FD00
000003FD00
000003FC00
000007FC00
007FFFFF40
00FFFFFF80
00BFFFFF40
00155FF400
00000FF000
00000FE000
00001FE000
001BEFD000
00BFFFC000
02FFFFC000
0BFFBF8000
1FF43F8000
3FE07F4000
7FC0BF4000
BF80BF0000
BF40FF00B0
FF01FE02F0
FF42FE0BF0
BFEBFFAFD0
7FFFBFFF40
2FFE2FFD00
0BF40BE000
ENDCHAR
STARTCHAR Emacron
ENCODING 274
SWIDTH 686 0
DWIDTH 22 0
BBX 25 33 1 0
BITMAP
00000555540000
00002FFFFD0000
00003FFFFD0000
00002FFFF80000
00000000000000
00000000000000
00001AFFA00000
0002FFFFFE0000
001FFFFFFF8000
007FFE96FFD000
00FFE0003FE000
02FF80002FE000
02FF00001FE000
03FF00002FE000
02FF00002FD000
01FF80001F8000
00FFE400000000
002FFFF0000000
000BFFF4000000
00BFFFF0000000
07FFEA50000000
1FFD0000000000
3FF00000000000
BFD00000000000
FFC00000000000
FF800000000000
FFC00000000000
BFD00000000680
7FF8000005BFC0
2FFFE96AFFFF80
0BFFFFFFFFFE00
01BFFFFFFFE400
0006BFFEA50000
ENDCHAR
STARTCHAR emacron
ENCODING 275
SWIDTH 393 0
DWIDTH 13 0
BBX 16 21 1 0
BITMAP
01555500
07FFFF80
0BFFFF80
07FFFF40
00000000
00000000
006FD000
02FFF800
0FFFFC00
2FFAFD00
3FC0FD00
BF41FC00
BF07F800
FF6FF000
FFFF801E
FFF800BE
BF8007FD
7FF9BFF8
2FFFFFE0
0BFFFF40
01BFE400
ENDCHAR
STARTCHAR Ebreve
ENCODING 276
SWIDTH 686 0
DWIDTH 22 0
BBX 25 35 1 0
BITMAP
0000BD000B8000
0000FF002FD000
0000FFE6BFC000
00007FFFFF4000
00001FFFFD0000
000002BF900000
00000000000000
00000000000000
00001AFFA00000
0002FFFFFE0000
001FFFFFFF8000
007FFE96FFD000
00FFE0003FE000
02FF80002FE000
02FF00001FE000
03FF00002FE000
02FF00002FD000
01FF80001F8000
00FFE400000000
002FFFF0000000
000BFFF4000000
00BFFFF0000000
07FFEA50000000
1FFD0000000000
3FF00000000000
BFD00000000000
FFC00000000000
FF800000000000
FFC00000000000
BFD00000000680
7FF8000005BFC0
2FFFE96AFFFF80
0BFFFFFFFFFE00
01BFFFFFFFE400
0006BFFEA50000
ENDCHAR
STARTCHAR ebreve
ENCODING 277
SWIDTH 393 0
DWIDTH 13 0
BBX 16 24 1 0
BITMAP
0B4001F4
2FC003F8
1FE00BF4
1FFAAFF0
0BFFFFD0
02FFFF40
006FE400
00000000
00000000
006FD000
02FFF800
0FFFFC00
2FFAFD00
3FC0FD00
BF41FC00
BF07F800
FF6FF000
FFFF801E
FFF800BE
BF8007FD
7FF9BFF8
2FFFFFE0
0BFFFF40
01BFE400
ENDCHAR
STARTCHAR Edotaccent
ENCODING 278
SWIDTH 686 0
DWIDTH 22 0
BBX 25 34 1 0
BITMAP
0000006F400000
000000FFD00000
000001FFD00000
000001FFC00000
0000007E400000
00000000000000
00000000000000
00001AFFA00000
0002FFFFFE0000
001FFFFFFF8000
007FFE96FFD000
00FFE0003FE000
02FF80002FE000
02FF00001FE000
03FF00002FE000
02FF00002FD000
01FF80001F8000
00FFE400000000
002FFFF0000000
000BFFF4000000
00BFFFF0000000
07FFEA50000000
1FFD0000000000
3FF00000000000
BFD00000000000
FFC00000000000
FF800000000000
FFC00000000000
BFD00000000680
7FF8000005BFC0
2FFFE96AFFFF80
0BFFFFFFFFFE00
01BFFFFFFFE400
0006BFFEA50000
ENDCHAR
STARTCHAR edotaccent
ENCODING 279
SWIDTH 393 0
DWIDTH 13 0
BBX 16 22 1 0
BITMAP
000BE000
002FF800
003FF800
003FF400
001BD000
00000000
00000000
006FD000
02FFF800
0FFFFC00
2FFAFD00
3FC0FD00
BF41FC00
BF07F800
FF6FF000
FFFF801E
FFF800BE
BF8007FD
7FF9BFF8
2FFFFFE0
0BFFFF40
01BFE400
ENDCHAR
STARTCHAR Eogonek
ENCODING 280
SWIDTH 686 0
DWIDTH 22 0
BBX 25 36 1 -9
BITMAP
00001AFFA00000
0002FFFFFE0000
001FFFFFFF8000
007FFE96FFD000
00FFE0003FE000
02FF80002FE000
02FF00001FE000
03FF00002FE000
02FF00002FD000
01FF80001F8000
00FFE400000000
002FFFF0000000
000BFFF4000000
00BFFFF0000000
07FFEA50000000
1FFD0000000000
3FF00000000000
BFD00000000000
FFC00000000000
FF800000000000
FFC00000000000
BFD00000000680
7FF8000005BFC0
2FFFE96AFFFF80
0BFFFFFFFFFF00
01FFFFFFFFE400
001AFFFFE90000
000007F4000000
00000FD0000000
00001FC0000000
00001FC0000000
00001FE0500000
00000FFFF00000
00000BFFF00000
000002FFE00000
00000015000000
ENDCHAR
STARTCHAR eogonek
ENCODING 281
SWIDTH 393 0
DWIDTH 13 0
BBX 16 23 1 -8
BITMAP
006FD000
02FFF800
0FFFFC00
2FFAFD00
3FC0FD00
7F40FD00
BF02FC00
FF1FF400
FFFFD01D
FFFE007E
BF9001FE
7FD01BFC
2FFFFFF0
0FFFFF80
02FFF800
002F8000
00BE0000
00FD0000
00FD0000
00FE0100
00BFFF40
007FFF40
000BF900
ENDCHAR
STARTCHAR Ecaron
ENCODING 282
SWIDTH 686 0
DWIDTH 22 0
BBX 25 37 1 0
BITMAP
00000B401F4000
00001FC07F4000
00000FD0BF0000
00000BE1FD0000
000003F7F40000
000002FFE00000
000000FFC00000
0000007E000000
00000000000000
00000000000000
00001AFFA00000
0002FFFFFE0000
001FFFFFFF8000
007FFE96FFD000
00FFE0003FE000
02FF80002FE000
02FF00001FE000
03FF00002FE000
02FF00002FD000
01FF80001F8000
00FFE400000000
002FFFF0000000
000BFFF4000000
00BFFFF0000000
07FFEA50000000
1FFD0000000000
3FF00000000000
BFD00000000000
FFC00000000000
FF800000000000
FFC00000000000
BFD00000000680
7FF8000005BFC0
2FFFE96AFFFF80
0BFFFFFFFFFE00
01BFFFFFFFE400
0006BFFEA50000
ENDCHAR
STARTCHAR ecaron
ENCODING 283
SWIDTH 393 0
DWIDTH 13 0
BBX 16 28 1 0
BITMAP
00500050
01FC03F4
01FC0BF0
01FD0FE0
00FD2FC0
00BE3F40
007E7E00
007EFD00
003FF800
002FF000
000B9000
00000000
00000000
006FD000
02FFF800
0FFFFC00
2FFAFD00
3FC0FD00
BF41FC00
BF07F800
FF6FF000
FFFF801E
FFF800BE
BF8007FD
7FF9BFF8
2FFFFFE0
0BFFFF40
01BFE400
ENDCHAR
STARTCHAR Gcircumflex
ENCODING 284
SWIDTH 811 0
DWIDTH 26 0
BBX 28 53 2 -15
BITMAP
0000002F800000
000000BFE00000
000002FFF00000
000007FBF40000
00000BF2F80000
00001FE1FC0000
00003FC1FD0000
00007F40FE0000
00003E00780000
00000000000000
00000000000000
00001AFF900000
0001FFFFFD0000
000BFFFFFF0000
007FFE9AFF8000
01FFE000BFC000
03FF40003FD000
0BFD00003FD000
0FF800003FD000
2FF400007FC000
3FE000003F8000
7FD00000190000
BFC00000000000
BFC00000000000
BFC00000000000
FF800000000000
FF80002FFFE000
FF80003FFFF000
FFC0003FFFF000
BFD000055FF000
7FE000000FE000
3FF000001FE01C
2FFC00001FD0BD
0FFF40002FD7FD
03FFFA5AFFEFF4
00BFFFFFFFFF80
001FFFFFFFFD00
0001AFFA7FE000
00000001FF8000
00000007FF4000
0000001FFF0000
0000007FFF0000
000001FDFE0000
000007F5FD0000
00000BD1FC0000
00001F82F80000
00003F03F40000
00007E0BF00000
00007E0FE00000
00007FBFC00000
00007FFF400000
00002FFE000000
00000BE4000000
ENDCHAR
STARTCHAR gcircumflex
ENCODING 285
SWIDTH 479 0
DWIDTH 15 0
BBX 19 43 0 -15
BITMAP
0000054000
00002FD000
0000BFE000
0001FFF000
0002FBF000
0007F2F400
000FE2F800
002FC2FC00
003F81FC00
007F01FD00
007D00B800
0000000000
0000000000
0006F80000
002FFE9000
00BFFFF000
02FFAFE000
07FD1FE000
0FF81FD000
1FF02FD000
2FE02FC000
2FD03FC078
3FC07F86F8
3FD0BF9FF8
2FFAFFFFE0
1FFFFFFF40
0BFFBFF800
02F9BFD000
0002FF0000
000FFE0000
007FFD0000
01FEFD0000
03F6FC0000
0BE2F80000
2F83F40000
3F07F00000
BE0BE00000
BD1FD00000
FC2FC00000
FEBF400000
FFFE000000
7FF8000000
1FE0000000
ENDCHAR
STARTCHAR Gbreve
ENCODING 286
SWIDTH 811 0
DWIDTH 26 0
BBX 28 50 2 -15
BITMAP
0000BC000B8000
0000FE002FC000
0000FFE6FF8000
00007FFFFF4000
00001FFFFD0000
000002BF900000
00000000000000
00000000000000
00001AFF900000
0001FFFFFD0000
000BFFFFFF0000
007FFE9AFF8000
01FFE000BFC000
03FF40003FD000
0BFD00003FD000
0FF800003FD000
2FF400007FC000
3FE000003F8000
7FD00000190000
BFC00000000000
BFC00000000000
BFC00000000000
FF800000000000
FF80002FFFE000
FF80003FFFF000
FFC0003FFFF000
BFD000055FF000
7FE000000FE000
3FF000001FE01C
2FFC00001FD0BD
0FFF40002FD7FD
03FFFA5AFFEFF4
00BFFFFFFFFF80
001FFFFFFFFD00
0001AFFA7FE000
00000001FF8000
00000007FF4000
0000001FFF0000
0000007FFF0000
000001FDFE0000
000007F5FD0000
00000BD1FC0000
00001F82F80000
00003F03F40000
00007E0BF00000
00007E0FE00000
00007FBFC00000
00007FFF400000
00002FFE000000
00000BE4000000
ENDCHAR
STARTCHAR gbreve
ENCODING 287
SWIDTH 479 0
DWIDTH 15 0
BBX 19 39 0 -15
BITMAP
00B8000B80
01FD002FC0
00FF007F80
00FFE6FF40
007FFFFE00
001FFFF800
0002BF9000
0000000000
0000000000
0006F80000
002FFE9000
00BFFFF000
02FFAFE000
07FD1FE000
0FF81FD000
1FF02FD000
2FE02FC000
2FD03FC078
3FC07F86F8
3FD0BF9FF8
2FFAFFFFE0
1FFFFFFF40
0BFFBFF800
02F9BFD000
0002FF0000
000FFE0000
007FFD0000
01FEFD0000
03F6FC0000
0BE2F80000
2F83F40000
3F07F00000
BE0BE00000
BD1FD00000
FC2FC00000
FEBF400000
FFFE000000
7FF8000000
1FE0000000
ENDCHAR
STARTCHAR Gdotaccent
ENCODING 288
SWIDTH 811 0
DWIDTH 26 0
BBX 28 49 2 -15
BITMAP
0000006F400000
000001FFC00000
000002FFD00000
000001FFC00000
000000BE400000
00000000000000
00000000000000
00001AFF900000
0001FFFFFD0000
000BFFFFFF0000
007FFE9AFF8000
01FFE000BFC000
03FF40003FD000
0BFD00003FD000
0FF800003FD000
2FF400007FC000
3FE000003F8000
7FD00000190000
BFC00000000000
BFC00000000000
BFC00000000000
FF800000000000
FF80002FFFE000
FF80003FFFF000
FFC0003FFFF000
BFD000055FF000
7FE000000FE000
3FF000001FE01C
2FFC00001FD0BD
0FFF40002FD7FD
03FFFA5AFFEFF4
00BFFFFFFFFF80
001FFFFFFFFD00
0001AFFA7FE000
00000001FF8000
00000007FF4000
0000001FFF0000
0000007FFF0000
000001FDFE0000
000007F5FD0000
00000BD1FC0000
00001F82F80000
00003F03F40000
00007E0BF00000
00007E0FE00000
00007FBFC00000
00007FFF400000
00002FFE000000
00000BE4000000
ENDCHAR
STARTCHAR gdotaccent
ENCODING 289
SWIDTH 479 0
DWIDTH 15 0
BBX 19 37 0 -15
BITMAP
00007E4000
0001FFC000
0002FFC000
0002FF8000
0000BE0000
0000000000
0000000000
0006F80000
002FFE9000
00BFFFF000
02FFAFE000
07FD1FE000
0FF81FD000
1FF02FD000
2FE02FC000
2FD03FC078
3FC07F86F8
3FD0BF9FF8
2FFAFFFFE0
1FFFFFFF40
0BFFBFF800
02F9BFD000
0002FF0000
000FFE0000
007FFD0000
01FEFD0000
03F6FC0000
0BE2F80000
2F83F40000
3F07F00000
BE0BE00000
BD1FD00000
FC2FC00000
FEBF400000
FFFE000000
7FF8000000
1FE0000000
ENDCHAR
STARTCHAR uni0122
ENCODING 290
SWIDTH 811 0
DWIDTH 26 0
BBX 28 42 2 -15
BITMAP
00001AFF900000
0001FFFFFD0000
000BFFFFFF0000
007FFE9AFF8000
01FFE000BFC000
03FF40003FD000
0BFD00003FD000
0FF800003FD000
2FF400007FC000
3FE000003F8000
7FD00000190000
BFC00000000000
BFC00000000000
BFC00000000000
FF800000000000
FF80002FFFE000
FF80003FFFF000
FFC0003FFFF000
BFD000055FF000
7FE000000FE000
3FF000001FE01C
2FFC00001FD0BD
0FFF40002FD7FD
03FFFA5AFFEFF4
00BFFFFFFFFF80
001FFFFFFFFD00
0001AFFA7FE000
00000001FF8000
002E0007FF4000
007F401FFF0000
007F407FFF0000
007F01FDFE0000
007E07F5FD0000
007D0BD1FC0000
00781F82F80000
00003F03F40000
00007E0BF00000
00007E0FE00000
00007FBFC00000
00007FFF400000
00002FFE000000
00000BE4000000
ENDCHAR
STARTCHAR uni0123
ENCODING 291
SWIDTH 479 0
DWIDTH 15 0
BBX 19 40 0 -15
BITMAP
00001F4000
00003F8000
00003F8000
00003F4000
00007F0000
00007E0000
00007E0000
00003C0000
0000000000
0000000000
0006F80000
002FFE9000
00BFFFF000
02FFAFE000
07FD1FE000
0FF81FD000
1FF02FD000
2FE02FC000
2FD03FC078
3FC07F86F8
3FD0BF9FF8
2FFAFFFFE0
1FFFFFFF40
0BFFBFF800
02F9BFD000
0002FF0000
000FFE0000
007FFD0000
01FEFD0000
03F6FC0000
0BE2F80000
2F83F40000
3F07F00000
BE0BE00000
BD1FD00000
FC2FC00000
FEBF400000
FFFE000000
7FF8000000
1FE0000000
ENDCHAR
STARTCHAR Hcircumflex
ENCODING 292
SWIDTH 873 0
DWIDTH 28 0
BBX 33 38 -1 0
BITMAP
000000002F80000000
00000000BFE0000000
00000001FFF0000000
00000003FBF4000000
0000000BF6FC000000
0000001FE1FD000000
0000003FC0FE000000
0000007F80FE000000
0000002E007D000000
000000000000000000
0000000000001BE000
000AF90000007FF800
00BFFF400001FFFC00
02FFFFC00007F87D00
0FFABFD0000BF07D00
2FD03FD0001FE07D00
7F003FE0002FD07D00
7C002FE0003FC0BC00
24003FD0007F80FC00
00003FD000BF42F400
00003FD000FF0BF000
00007FC001FF6FD000
00007FC001FFFF4000
0000BFD55AFFFD0000
007FFFFFFFFFE00000
00FFFFFFFFFE400000
00BFFFFEA7FD000000
0016FF0003FD000000
0002FE0003FD000000
0003FE0003FD000000
0003FD0003FD000000
0007FC0003FE0003C0
000BFC0002FE000BC0
000BF80001FF402F80
000FF40000FFE6FF40
001FF400007FFFFD00
001FE000001FFFE000
000B80000002FE4000
ENDCHAR
STARTCHAR hcircumflex
ENCODING 293
SWIDTH 502 0
DWIDTH 16 0
BBX 19 41 1 0
BITMAP
00006F4000
0001FFD000
0002FFE000
000BFBF000
001FE3F400
002FD3F800
007F82FC00
00BF01FD00
007D00B800
0000000000
0000000000
0001B90000
000BFF0000
002FFF4000
007FBF8000
00BE1F8000
00FD1F8000
02FC1F8000
03F82F4000
07F43F0000
0BF07E0000
0BF0BD0000
0FE1F80000
1FE3F00000
1FDBD00000
2FEF800000
2FFF1BD000
2FFC7FF000
3FF5FFF000
3FD7FFE000
3F8FFFE000
3F9F5FD000
7FBE2FD000
7FFC2FC000
7FF83FC02C
7FF43F80BC
7FF07F82FC
7FE07FEBF4
7FD03FFFD0
7F802FFF40
2E000BE400
ENDCHAR
STARTCHAR Hbar
ENCODING 294
SWIDTH 856 0
DWIDTH 27 0
BBX 26 27 2 0
BITMAP
002F400001B800
007FC00002FE00
00BFC00003FE00
00BFC00003FD00
05FFD5555BFE40
2FFFFFFFFFFFF0
3FFFFFFFFFFFF0
2FFFFFFFFFFFD0
01FF00000BF800
02FF00000FF800
02FE00000FF400
17FE55556FF900
FFFFFFFFFFFFC0
FFFFFFFFFFFFC0
BFFFFFFFFFFF40
0BFC00003FE000
0BF800003FD000
0FF800007FD000
0FF400007FC000
1FF40000BFC000
1FF40000BF8000
2FF00000FF8000
2FF00000FF8000
2FF00000FF4000
3FE00001FF4000
2FE00001FF0000
1F800000BD0000
ENDCHAR
STARTCHAR hbar
ENCODING 295
SWIDTH 502 0
DWIDTH 16 0
BBX 19 27 1 0
BITMAP
002F400000
00BF400000
00FF400000
01FF000000
02FE000000
3FFFFF8000
7FFFFFD000
2FFFFFC000
0BFD550000
0BF8000000
0FF4000000
0FF0000000
1FF01BD000
1FE07FF000
2FE1FFF000
2FD7FFE000
2FCFFFE000
3FDF5FD000
3FBE2FD000
3FFC2FC000
3FF83FC02C
3FF43F80BC
3FF07F82FC
3FE07FEBF4
3FD03FFFD0
2FC02FFF40
1F400BE800
ENDCHAR
STARTCHAR Itilde
ENCODING 296
SWIDTH 495 0
DWIDTH 16 0
BBX 20 36 -1 0
BITMAP
0000540000
0001FE406D
0007FFD0FE
000FFFFAFD
001FD7FFF8
002F80BFF0
0005001F80
0000000000
0000000000
002FFFFFF4
00BFFFFFF8
00BFFFFFF4
0015BFE550
00007FD000
00007FD000
0000BFC000
0000BFC000
0000BF8000
0000FF8000
0000FF4000
0001FF4000
0001FF0000
0002FF0000
0002FE0000
0003FE0000
0003FD0000
0007FD0000
0007FC0000
000BFC0000
000BFC0000
000FF80000
000FF80000
056FF95000
3FFFFFFC00
7FFFFFFC00
7FFFFFF400
ENDCHAR
STARTCHAR itilde
ENCODING 297
SWIDTH 246 0
DWIDTH 8 0
BBX 14 24 -1 0
BITMAP
01400000
0FF402D0
2FFE0BE0
7FFFDFD0
FE2FFF80
F807FF00
5001B900
00000000
00000000
007D0000
00FE0000
01FE0000
02FD0000
03FD0000
03FC0000
07F80000
07F80000
07F403C0
07F40BC0
07F42F80
07FEFF00
03FFFD00
02FFF000
00BE4000
ENDCHAR
STARTCHAR Imacron
ENCODING 298
SWIDTH 495 0
DWIDTH 16 0
BBX 19 33 -1 0
BITMAP
0000555540
0002FFFFC0
0003FFFFD0
0002FFFF80
0000000000
0000000000
002FFFFFF4
00BFFFFFF8
00BFFFFFF4
0015BFE550
00007FD000
00007FD000
0000BFC000
0000BFC000
0000BF8000
0000FF8000
0000FF4000
0001FF4000
0001FF0000
0002FF0000
0002FE0000
0003FE0000
0003FD0000
0007FD0000
0007FC0000
000BFC0000
000BFC0000
000FF80000
000FF80000
056FF95000
3FFFFFFC00
7FFFFFFC00
7FFFFFF400
ENDCHAR
STARTCHAR imacron
ENCODING 299
SWIDTH 246 0
DWIDTH 8 0
BBX 12 21 0 0
BITMAP
155550
7FFFF4
BFFFF4
7FFFE0
000000
000000
01F400
03F800
07F800
0BF400
0FF400
0FF000
1FE000
1FE000
1FD00F
1FD02F
1FD0BE
1FFBFC
0FFFF4
0BFFC0
02F900
ENDCHAR
STARTCHAR Ibreve
ENCODING 300
SWIDTH 495 0
DWIDTH 16 0
BBX 19 35 -1 0
BITMAP
000BC000B8
000FE002FC
000FFE6FF8
0007FFFFF4
0001FFFFD0
00002BF900
0000000000
0000000000
002FFFFFF4
00BFFFFFF8
00BFFFFFF4
0015BFE550
00007FD000
00007FD000
0000BFC000
0000BFC000
0000BF8000
0000FF8000
0000FF4000
0001FF4000
0001FF0000
0002FF0000
0002FE0000
0003FE0000
0003FD0000
0007FD0000
0007FC0000
000BFC0000
000BFC0000
000FF80000
000FF80000
056FF95000
3FFFFFFC00
7FFFFFFC00
7FFFFFF400
ENDCHAR
STARTCHAR ibreve
ENCODING 301
SWIDTH 246 0
DWIDTH 8 0
BBX 14 24 -1 0
BITMAP
7D0007C0
BF000FD0
BF802FD0
7FEAFF80
2FFFFF40
0BFFFD00
01BF9000
00000000
00000000
007D0000
00FE0000
01FE0000
02FD0000
03FD0000
03FC0000
07F80000
07F80000
07F403C0
07F40BC0
07F42F80
07FEFF00
03FFFD00
02FFF000
00BE4000
ENDCHAR
STARTCHAR Iogonek
ENCODING 302
SWIDTH 495 0
DWIDTH 16 0
BBX 19 35 -1 -8
BITMAP
002FFFFFF4
00BFFFFFF8
00BFFFFFF4
0015BFE550
00007FD000
00007FD000
0000BFC000
0000BFC000
0000BF8000
0000FF8000
0000FF4000
0001FF4000
0001FF0000
0002FF0000
0002FE0000
0003FE0000
0003FD0000
0007FD0000
0007FC0000
000BFC0000
000BFC0000
000FF80000
000FF80000
056FF95000
3FFFFFFC00
7FFFFFFC00
7FFFFFF400
002F800000
007F000000
00BE000000
00BE000000
00BF9A4000
007FFF8000
002FFF8000
0006FA0000
ENDCHAR
STARTCHAR iogonek
ENCODING 303
SWIDTH 246 0
DWIDTH 8 0
BBX 11 30 1 -8
BITMAP
02F800
0FFD00
0FFD00
0FFD00
07E400
000000
000000
07D000
0FE000
1FE000
2FD000
3FD000
3FC000
7F8000
7F8000
7F403C
7F40BC
7F42F8
7FDBF4
3FFFD0
2FFF40
1FF800
3FD000
BE0000
FD0000
FC0000
FE0100
BFFF40
7FFF00
0BF900
ENDCHAR
STARTCHAR Idotaccent
ENCODING 304
SWIDTH 495 0
DWIDTH 16 0
BBX 19 34 -1 0
BITMAP
000006F400
00001FFC00
00002FFD00
00001FFC00
00000BE400
0000000000
0000000000
002FFFFFF4
00BFFFFFF8
00BFFFFFF4
0015BFE550
00007FD000
00007FD000
0000BFC000
0000BFC000
0000BF8000
0000FF8000
0000FF4000
0001FF4000
0001FF0000
0002FF0000
0002FE0000
0003FE0000
0003FD0000
0007FD0000
0007FC0000
000BFC0000
000BFC0000
000FF80000
000FF80000
056FF95000
3FFFFFFC00
7FFFFFFC00
7FFFFFF400
ENDCHAR
STARTCHAR dotlessi
ENCODING 305
SWIDTH 246 0
DWIDTH 8 0
BBX 11 15 1 0
BITMAP
07D000
0FE000
1FE000
2FD000
3FD000
3FC000
7F8000
7F8000
7F403C
7F40BC
7F42F8
7FEFF0
3FFFD0
2FFF00
0BE400
ENDCHAR
STARTCHAR Jcircumflex
ENCODING 308
SWIDTH 743 0
DWIDTH 24 0
BBX 23 42 2 -4
BITMAP
000001F80000
00000BFE0000
00001FFF4000
00003FFF8000
0000BF6FC000
0001FE1FD000
0003FD0FE000
0007F80BE000
0002E007D000
000000000000
000000000000
0005AFFFE940
007FFFFFFFF4
07FFFFFFFFF4
1FFFA95AFFF4
3FE40000BF80
7F800000FF80
BF400000FF80
BF000000FF40
BF400001FF40
7F800001FF00
3F800001FF00
1A000002FE00
00000002FE00
0000006FFD00
000006FFFD00
00002FFFFC00
0001FFFBFC00
0007FF4BF800
001FF80FF400
007FD00FF000
00FF401FE000
02FE002FD000
03FD003FC000
03FC00BF8000
07F800FF0000
07FC02FE0000
03FE1BFC0000
02FFFFF40000
01FFFFD00000
007FFE000000
000550000000
ENDCHAR
STARTCHAR jcircumflex
ENCODING 309
SWIDTH 254 0
DWIDTH 8 0
BBX 20 43 -8 -15
BITMAP
0000001500
0000007F80
000001FFC0
000002FFD0
000007FBE0
00000FE7E0
00002FC7F0
00003F83F4
0000BF03F8
0000FD02F8
0000B801F4
0000000000
0000000000
000002F400
000007F800
000007F800
00000BF400
00000BF400
00000BF400
00000FF000
00000FF000
00000FE01D
00001FE0BE
00001FD7FD
00001FEFF4
00002FFF80
00002FFD00
00002FE400
0000BF8000
0002FF4000
000FFF4000
003FFF0000
00FDBE0000
02F4FE0000
0BE1FD0000
1F82FC0000
2F43F80000
3F07F40000
7F0FE00000
7FAFD00000
3FFF800000
2FFE000000
0BE4000000
ENDCHAR
STARTCHAR uni0136
ENCODING 310
SWIDTH 937 0
DWIDTH 30 0
BBX 33 36 1 -9
BITMAP
0006BFF940000BD000
007FFFFFE0002FE000
02FFFFFFF0003FE000
0BFF96FFE0007FD000
1FF400FF4000BFC000
2FD001FF4001FF4000
3FC001FF0002FF0000
3FC002FF0007FD0000
2FD002FE000FF80000
1FE003FE002FF00000
0FD003FD00BFD00000
014003FD07FF000000
00001BFEBFF8000000
0000BFFFFF90000000
0000BFFFFD00000000
00007FFFFF80000000
00000FF9BFE0000000
00000FF43FF4000000
00000FF41FF8000000
00001FF00BFD000000
B8002FF007FE0002C0
FD003FE003FF400BC0
FF00BFD001FFC02FC0
BFE6FF8000BFFAFF40
7FFFFF00007FFFFD00
1FFFFD00001FFFF400
01BF90000002FE4000
000000000000000000
000000000000000000
0000001F4000000000
0000002FC000000000
0000003FC000000000
0000003F8000000000
0000003F4000000000
0000003F0000000000
0000002D0000000000
ENDCHAR
STARTCHAR uni0137
ENCODING 311
SWIDTH 525 0
DWIDTH 17 0
BBX 20 40 1 -10
BITMAP
0001B90000
000BFF0000
002FFF4000
007FBF8000
00BE1F8000
00FD1F8000
02FC1F8000
03F82F4000
07F43F0000
0BF07E0000
0BF0BC0000
0FE1F40000
1FD3E00000
1FDBC00000
2FEF400000
2FFE1BE000
2FF8BFF800
3FE2FFFD00
3FC7FBFD00
3F8F82FD00
3FAF02FC00
7FBD07F800
7FFC2FF005
7FF9FF801F
7FF2FE003F
7FE1FF00FE
3FD1FFEBF8
3FD0BFFFF0
2FC03FFF80
1F400BF900
0000000000
0000000000
002E000000
007F400000
00BF400000
00BF000000
00BE000000
00BD000000
00BC000000
0074000000
ENDCHAR
STARTCHAR kgreenlandic
ENCODING 312
SWIDTH 465 0
DWIDTH 15 0
BBX 18 15 1 0
BITMAP
07E02FD000
0FE1FFF400
1FD7FFFC00
2FCBFAFC00
3FDFD1FC00
3FAFC1F800
7FBF81E000
7FBF800000
7FFF8000F0
7FFF8003F0
7FFFD00FE0
7FEFF9BFD0
7FCBFFFF40
3F82FFFD00
1F406FE000
ENDCHAR
STARTCHAR Lacute
ENCODING 313
SWIDTH 673 0
DWIDTH 22 0
BBX 28 37 -2 0
BITMAP
00000000000050
000000000007F4
00000000001FF8
0000000000BFF4
0000000002FFD0
000000000FFE00
000000002FE000
000000002E0000
00000000000000
00000000000000
00000006FFA000
000000BFFFFD00
000002FFFFFF40
00000FFFAAFFC0
00002FF8007FD0
00007FE0003FD0
0000FFC0002FD0
0001FF80003FD0
0001FF40003FC0
0002FF00003F80
0002FF00000500
0003FE00000000
0003FE00000000
0003FE00000000
0003FD00000000
0003FD00000000
0007FD00000000
0007FC00000000
0007FC00000000
0007FC00000009
02BFF90000002E
1FFFFFE40000BE
3FFFFFFFA407FD
7FFFFFFFFFFFF8
7FFFDBFFFFFFE0
2FFF406FFFFF40
0BF90001AFE400
ENDCHAR
STARTCHAR lacute
ENCODING 314
SWIDTH 326 0
DWIDTH 10 0
BBX 18 40 1 0
BITMAP
0000000140
0000000BE0
0000007FF0
000001FFE0
000007FF80
00002FF900
00007F9000
0000790000
0000000000
0000000000
0001F80000
000BFF0000
002FFF4000
007FBF8000
00BE2F8000
01FD1F8000
02FC1F8000
03F81F8000
07F42F4000
0BF02F4000
0FF03F0000
0FE07E0000
1FD0BD0000
1FD0FC0000
2FC2F40000
2FC3F00000
3FC7E00000
3F8FC00000
3FAF800000
7FBF000000
7FFD000000
7FF8000000
3FF0000000
3FD001D000
3FC007E000
2FD01FD000
1FFABF8000
0BFFFE0000
07FFF80000
00BF900000
ENDCHAR
STARTCHAR uni013B
ENCODING 315
SWIDTH 673 0
DWIDTH 22 0
BBX 28 36 -2 -9
BITMAP
00000006FFA000
000000BFFFFD00
000002FFFFFF40
00000FFFAAFFC0
00002FF8007FD0
00007FE0003FD0
0000FFC0002FD0
0001FF80003FD0
0001FF40003FC0
0002FF00003F80
0002FF00000500
0003FE00000000
0003FE00000000
0003FE00000000
0003FD00000000
0003FD00000000
0007FD00000000
0007FC00000000
0007FC00000000
0007FC00000009
02BFF90000002E
1FFFFFE40000BE
3FFFFFFFA407FD
7FFFFFFFFFFFF8
7FFFDBFFFFFFE0
2FFF406FFFFF40
0BF90001AFE400
00000000000000
00000000000000
000007D0000000
00000BF0000000
00000FF0000000
00000FE0000000
00000FD0000000
00000FC0000000
00000B80000000
ENDCHAR
STARTCHAR uni013C
ENCODING 316
SWIDTH 326 0
DWIDTH 10 0
BBX 14 40 1 -10
BITMAP
0001F800
000BFF00
002FFF40
007FBF80
00BE2F80
01FD1F80
02FC1F80
03F81F80
07F42F40
0BF02F40
0FF03F00
0FE07E00
1FD0BD00
1FD0FC00
2FC2F400
2FC3F000
3FC7E000
3F8FC000
3FAF8000
7FBF0000
7FFD0000
7FF80000
3FF00000
3FD001D0
3FC007E0
2FD01FD0
1FFABF80
0BFFFE00
07FFF800
00BF9000
00000000
00000000
02E00000
07F40000
07F40000
07F40000
07F00000
0BE00000
0BD00000
07800000
ENDCHAR
STARTCHAR Lcaron
ENCODING 317
SWIDTH 673 0
DWIDTH 22 0
BBX 31 27 -2 0
BITMAP
00000006FFA00050
000000BFFFFD03F4
000002FFFFFF47F8
00000FFFAAFFC7F4
00002FF8007FD7F0
00007FE0003FD7E0
0000FFC0002FD7D0
0001FF80003FD780
0001FF40003FC000
0002FF00003F8000
0002FF0000050000
0003FE0000000000
0003FE0000000000
0003FE0000000000
0003FD0000000000
0003FD0000000000
0007FD0000000000
0007FC0000000000
0007FC0000000000
0007FC0000000900
02BFF90000002E00
1FFFFFE40000BE00
3FFFFFFFA407FD00
7FFFFFFFFFFFF800
7FFFDBFFFFFFE000
2FFF406FFFFF4000
0BF90001AFE40000
ENDCHAR
STARTCHAR lcaron
ENCODING 318
SWIDTH 237 0
DWIDTH 8 0
BBX 13 30 1 0
BITMAP
00000500
00002F80
00003FC0
007E3F80
00FF3F40
01FF3F00
02FE3E00
02FE2D00
03FD0000
07FC0000
07FC0000
0BF80000
0BF40000
0FF00000
1FF00000
1FE00000
2FE00000
2FD00000
3FC00000
3FC00000
7F800000
7F800000
7F401000
BF407800
BF41F800
BF47F400
7FAFE000
7FFF8000
2FFE0000
0BE40000
ENDCHAR
STARTCHAR Ldot
ENCODING 319
SWIDTH 673 0
DWIDTH 22 0
BBX 28 27 -2 0
BITMAP
00000006FFA000
000000BFFFFD00
000002FFFFFF40
00000FFFAAFFC0
00002FF8007FD0
00007FE0003FD0
0000FFC0002FD0
0001FF80003FD0
0001FF40003FC0
0002FF00003F80
0002FF00000500
0003FE00000000
0003FE01BD0000
0003FE07FF0000
0003FD07FF4000
0003FD07FF0000
0007FD02F90000
0007FC00000000
0007FC00000000
0007FC00000009
02BFF90000002E
1FFFFFE40000BE
3FFFFFFFA407FD
7FFFFFFFFFFFF8
7FFFDBFFFFFFE0
2FFF406FFFFF40
0BF90001AFE400
ENDCHAR
STARTCHAR ldot
ENCODING 320
SWIDTH 363 0
DWIDTH 12 0
BBX 15 30 1 0
BITMAP
001F8000
003FC000
007FC000
00BF8000
00FF4000
01FF0000
01FE0000
02FE0000
03FD0000
03FC0000
07FC0000
0BF80000
0BF40000
0FF5B900
0FF3FE00
1FE7FF00
2FE3FE00
2FD1F800
3FC00000
3FC00000
7FC00000
7F800000
7F800000
7F800078
7FC001F8
7FD007F8
3FF9BFE0
1FFFFF80
0BFFFD00
01BFA000
ENDCHAR
STARTCHAR Lslash
ENCODING 321
SWIDTH 673 0
DWIDTH 22 0
BBX 28 33 -2 0
BITMAP
00000001AFFE40
0000006FFFFFF0
000007FFFFFFF4
00001FFFEA6AE0
00001FF9000000
00000A40000000
00000000554000
0000001FFFF800
000001FFFFFE00
000007FFFFFF80
00001FFE41BFC0
00003FF0003FD0
0000BFD0002FD0
0000FF80002FD0
0001FF40003FD0
0002FF00003FC0
0002FF00002F40
0003FE00000000
0003FE00000000
0003FE00000000
0003FD00000000
0003FD00000000
0007FD00000000
0007FC00000000
0007FC00000000
0007FC00000009
02BFF90000002E
1FFFFFE40000BE
3FFFFFFFA407FD
7FFFFFFFFFFFF8
7FFFDBFFFFFFE0
2FFF406FFFFF40
0BF90001AFE400
ENDCHAR
STARTCHAR lslash
ENCODING 322
SWIDTH 326 0
DWIDTH 10 0
BBX 18 33 1 0
BITMAP
00006BFE40
000BFFFFE0
00BFFFFFF0
01FFFA5BE0
02FF400000
02F4000000
0042F80000
001FFF0000
003FFF4000
00BFBF8000
01FE1F8000
02FC1F8000
03F81F8000
0BF42F4000
0FF02F4000
0FE03F0000
1FD07E0000
2FD0BC0000
2FC1F80000
3FC3F40000
3FC7E00000
3F8FC00000
3FAF400000
7FFE000000
7FFC000000
3FF4000000
3FD001D000
3FC007E000
2FD01FD000
1FFABF8000
0BFFFE0000
07FFF80000
00BF900000
ENDCHAR
STARTCHAR Nacute
ENCODING 323
SWIDTH 884 0
DWIDTH 28 0
BBX 33 37 0 0
BITMAP
000000000001400000
00000000000BF00000
00000000002FF40000
0000000001FFF00000
0000000007FF800000
000000001FF9000000
000000007FD0000000
000000003D00000000
000000000000000000
000000000000000000
001BF4000AFE000000
01FFFD007FFFD00000
07FFFE02FFFFF00000
1FEAFE0BF9BFF40000
7F41FF1FD01FF40000
FD01FF3F000FF80000
F801FE7C000FF40000
6001FEF4001FF40000
0002FEF0001FF40000
0002FFD0002FF00000
0002FFC0003FE00000
0003FF80003FE00000
0003FF40007FD00000
0007FF0000BFC00000
0007FE0000BFC00000
000BFD0000FF800000
000BFC0000FF400000
000FFC0001FF400000
000FF80002FF000000
001FF40002FF000000
001FF40002FF000740
002FF00002FF001F40
002FF00002FF407F40
002FF00001FFEAFE00
002FE00000BFFFF800
002FD000003FFFD000
001F80000006FA0000
ENDCHAR
STARTCHAR nacute
ENCODING 324
SWIDTH 496 0
DWIDTH 16 0
BBX 19 27 1 0
BITMAP
0000005000
000002F800
000007FC00
00000BF800
00000FF000
00002FD000
00003F4000
0000BE0000
0000FC0000
0000B00000
0000000000
0000000000
07E01BD000
0FE0BFE000
1FD2FFE000
2FC7FFE000
3FCFFFD000
3FAF6FD000
7FBE2FC000
7FFC3FC000
7FF43F803C
7FF07F80BC
7FE07F42F8
7FD07FEFF0
7FC07FFFD0
3F803FFE00
1F401BE400
ENDCHAR
STARTCHAR uni0145
ENCODING 325
SWIDTH 884 0
DWIDTH 28 0
BBX 33 36 0 -9
BITMAP
001BF4000AFE000000
01FFFD007FFFD00000
07FFFE02FFFFF00000
1FEAFE0BF9BFF40000
7F41FF1FD01FF40000
FD01FF3F000FF80000
F801FE7C000FF40000
6001FEF4001FF40000
0002FEF0001FF40000
0002FFD0002FF00000
0002FFC0003FE00000
0003FF80003FE00000
0003FF40007FD00000
0007FF0000BFC00000
0007FE0000BFC00000
000BFD0000FF800000
000BFC0000FF400000
000FFC0001FF400000
000FF80002FF000000
001FF40002FF000000
001FF40002FF000740
002FF00002FF001F40
002FF00002FF407F40
002FF00001FFEAFE00
002FE00000BFFFF800
002FD000003FFFD000
001F80000006FA0000
000000000000000000
000000000000000000
000000B80000000000
000001FD0000000000
000001FD0000000000
000001FC0000000000
000001F80000000000
000001F80000000000
000001E00000000000
ENDCHAR
STARTCHAR uni0146
ENCODING 326
SWIDTH 496 0
DWIDTH 16 0
BBX 19 25 1 -10
BITMAP
07E01BD000
0FE0BFE000
1FD2FFE000
2FC7FFE000
3FCFFFD000
3FAF6FD000
7FBE2FC000
7FFC3FC000
7FF43F803C
7FF07F80BC
7FE07F42F8
7FD07FEFF0
7FC07FFFD0
3F803FFE00
1F401BE400
0000000000
0000000000
002E000000
007F400000
00BF400000
00BF000000
00BE000000
00BD000000
00BC000000
0074000000
ENDCHAR
STARTCHAR Ncaron
ENCODING 327
SWIDTH 884 0
DWIDTH 28 0
BBX 33 37 0 0
BITMAP
0000001F402E000000
0000002F807F000000
0000001FC0FE000000
0000000FE2FC000000
00000007F7F4000000
00000003FFD0000000
00000001FF80000000
000000007E00000000
000000000000000000
000000000000000000
001BF4000AFE000000
01FFFD007FFFD00000
07FFFE02FFFFF00000
1FEAFE0BF9BFF40000
7F41FF1FD01FF40000
FD01FF3F000FF80000
F801FE7C000FF40000
6001FEF4001FF40000
0002FEF0001FF40000
0002FFD0002FF00000
0002FFC0003FE00000
0003FF80003FE00000
0003FF40007FD00000
0007FF0000BFC00000
0007FE0000BFC00000
000BFD0000FF800000
000BFC0000FF400000
000FFC0001FF400000
000FF80002FF000000
001FF40002FF000000
001FF40002FF000740
002FF00002FF001F40
002FF00002FF407F40
002FF00001FFEAFE00
002FE00000BFFFF800
002FD000003FFFD000
001F80000006FA0000
ENDCHAR
STARTCHAR ncaron
ENCODING 328
SWIDTH 496 0
DWIDTH 16 0
BBX 19 28 1 0
BITMAP
0005001400
002F407E00
003F80FE00
002F81FC00
001FC3F800
001FC7F000
000FDFD000
000BEF8000
0007FF4000
0003FE0000
0001F80000
0000000000
0000000000
07E01BD000
0FE0BFE000
1FD2FFE000
2FC7FFE000
3FCFFFD000
3FAF6FD000
7FBE2FC000
7FFC3FC000
7FF43F803C
7FF07F80BC
7FE07F42F8
7FD07FEFF0
7FC07FFFD0
3F803FFE00
1F401BE400
ENDCHAR
STARTCHAR napostrophe
ENCODING 329
SWIDTH 496 0
DWIDTH 16 0
BBX 20 25 0 0
BITMAP
7D00000000
BF00000000
FF00000000
FE00000000
FD00000000
FC00000000
F800000000
B400000000
0000000000
0000000000
01F806F400
03F82FF800
07F4BFF800
0BF1FFF800
0FF3FFF400
0FEBDBF400
1FEF8BF000
1FFF0FF000
1FFD0FE00F
1FFC1FE02F
1FF81FD0BE
1FF41FFBFC
1FF01FFFF4
0FE00FFF80
07D006F900
ENDCHAR
STARTCHAR Eng
ENCODING 330
SWIDTH 884 0
DWIDTH 28 0
BBX 33 38 0 -11
BITMAP
001BF40006FE000000
01FFFD007FFFC00000
07FFFE02FFFFE00000
1FFFFE07FFFFF00000
7FD2FF1FE47FF40000
BE01FF2F401FF40000
FC01FE7D001FF40000
B001FEB8001FF40000
0002FEF0001FF00000
0002FFE0002FF00000
0002FFC0002FE00000
0003FF80003FE00000
0003FF40007FD00000
0007FF00007FC00000
0007FE0000BFC00000
000BFD0000FF800000
000BFC0000FF400000
000FFC0001FF000000
000FF80002FF000000
001FF80002FE000000
001FF40003FD000700
002FF00007FD001F40
002FF00007FD007F40
002FF0000BFFA6FE00
002FE0000FFFFFF800
002FD0000FFFFFE000
000B80001FF6FE4000
000000002FE0000000
000000003FD0000000
000000007FC0000000
00000000BF40000000
00050000FF00000000
001FC001FE00000000
002FE007FC00000000
001FFE6FF400000000
0007FFFFE000000000
0001FFFF8000000000
00001BF90000000000
ENDCHAR
STARTCHAR eng
ENCODING 331
SWIDTH 495 0
DWIDTH 16 0
BBX 19 25 1 -10
BITMAP
07E01BD000
0FE0BFE000
1FD2FFE000
2FC7FFE000
3FCFFFD000
3FAF6FD000
7FBE2FC000
7FFC3F8000
7FF43F803C
7FF07F40FC
7FE07F43F8
7FD0BFAFF0
7FC0FFFFD0
3F80FFFE00
1F41FFE400
0002FC0000
0002F80000
0003F40000
0007F00000
640FE00000
FC1FC00000
FD3F400000
BFFE000000
3FFC000000
1BE0000000
ENDCHAR
STARTCHAR Omacron
ENCODING 332
SWIDTH 816 0
DWIDTH 26 0
BBX 24 33 2 0
BITMAP
000015555000
00007FFFF800
00007FFFF800
00003FFFF400
000000000000
000000000000
00001BFE9000
0001FFFFF800
001FFFFFFF40
007FFE9BFFD0
01FFD000BFF0
03FF40002FF4
0BFD00000FFC
0FF800000BFC
2FF4000007FD
3FE0000007FD
7FD0000007FE
7FD0000007FD
BFC0000007FD
BFC0000007FD
FF80000007FD
FF8000000BFC
FF8000000FF8
FFC000000FF4
BFC000002FF0
BFD000003FE0
7FE00000BFC0
3FF40002FF40
1FFD000BFE00
0BFFE6BFF800
02FFFFFFE000
007FFFFE4000
0006FFA40000
ENDCHAR
STARTCHAR omacron
ENCODING 333
SWIDTH 451 0
DWIDTH 14 0
BBX 18 21 1 0
BITMAP
0155550000
07FFFF4000
0BFFFF8000
07FFFF0000
0000000000
0000000000
006FE00000
03FFF80000
0FFFFE0000
2FFBFF4000
7FC3FF8000
BF82FFEAD0
BF41FFFFE0
FF00BFFFE0
FF003FFE40
BF407F4000
BF80BF0000
7FEAFE0000
2FFFFC0000
0BFFE00000
01BE400000
ENDCHAR
STARTCHAR Obreve
ENCODING 334
SWIDTH 816 0
DWIDTH 26 0
BBX 24 35 2 0
BITMAP
0000B8000B40
0001FD003F80
0001FFA6FF40
0000BFFFFE00
00002FFFF800
000006FF9000
000000000000
000000000000
00001BFE9000
0001FFFFF800
001FFFFFFF40
007FFE9BFFD0
01FFD000BFF0
03FF40002FF4
0BFD00000FFC
0FF800000BFC
2FF4000007FD
3FE0000007FD
7FD0000007FE
7FD0000007FD
BFC0000007FD
BFC0000007FD
FF80000007FD
FF8000000BFC
FF8000000FF8
FFC000000FF4
BFC000002FF0
BFD000003FE0
7FE00000BFC0
3FF40002FF40
1FFD000BFE00
0BFFE6BFF800
02FFFFFFE000
007FFFFE4000
0006FFA40000
ENDCHAR
STARTCHAR obreve
ENCODING 335
SWIDTH 451 0
DWIDTH 14 0
BBX 18 24 1 0
BITMAP
1F4001F000
2FC003F400
2FE00BF400
1FFABFE000
0BFFFFD000
02FFFF4000
006FE40000
0000000000
0000000000
006FE00000
03FFF80000
0FFFFE0000
2FFBFF4000
7FC3FF8000
BF82FFEAD0
BF41FFFFE0
FF00BFFFE0
FF003FFE40
BF407F4000
BF80BF0000
7FEAFE0000
2FFFFC0000
0BFFE00000
01BE400000
ENDCHAR
STARTCHAR Ohungarumlaut
ENCODING 336
SWIDTH 816 0
DWIDTH 26 0
BBX 24 37 2 0
BITMAP
000000501500
000002F43F40
000007F87F40
000007F4BF40
00000BE0FE00
00000FD1FC00
00001F82F400
00000E01E000
000000000000
000000000000
00001BFE9000
0001FFFFF800
001FFFFFFF40
007FFE9BFFD0
01FFD000BFF0
03FF40002FF4
0BFD00000FFC
0FF800000BFC
2FF4000007FD
3FE0000007FD
7FD0000007FE
7FD0000007FD
BFC0000007FD
BFC0000007FD
FF80000007FD
FF8000000BFC
FF8000000FF8
FFC000000FF4
BFC000002FF0
BFD000003FE0
7FE00000BFC0
3FF40002FF40
1FFD000BFE00
0BFFE6BFF800
02FFFFFFE000
007FFFFE4000
0006FFA40000
ENDCHAR
STARTCHAR ohungarumlaut
ENCODING 337
SWIDTH 451 0
DWIDTH 14 0
BBX 18 27 1 0
BITMAP
000B80F400
001FD2FC00
002FD3FD00
003FC7F800
007F4BF400
00BF0FE000
00FD0FC000
01F81F8000
02F02F0000
01D02D0000
0000000000
0000000000
006FE00000
03FFF80000
0FFFFE0000
2FFBFF4000
7FC3FF8000
BF82FFEAD0
BF41FFFFE0
FF00BFFFE0
FF003FFE40
BF407F4000
BF80BF0000
7FEAFE0000
2FFFFC0000
0BFFE00000
01BE400000
ENDCHAR
STARTCHAR OE
ENCODING 338
SWIDTH 1124 0
DWIDTH 36 0
BBX 38 27 2 0
BITMAP
00001BFE9001BFFFFE00
0001FFFFF807FFFFFF00
001FFFFFFF0FFFFFFF00
007FFE9BFFDFFFFFFD00
01FFE000BFFFF0000000
03FF40002FFFE0000000
0BFD00000FFFD0000000
0FF800000BFFC0000000
2FF4000007FFC0000000
3FE0000007FF80000000
7FD0000007FF40000000
7FD0000007FF95554000
BFC0000007FFFFFFE000
BFC0000007FFFFFFE000
FF80000007FFFFFF9000
FF8000000BFD00000000
FF8000000FFD00000000
FFC000000FFC00000000
BFC000002FFC00000000
BFD000003FFD00000000
7FE00000BFFE00000000
3FF40002FFFF000001A0
1FFD000BFFFFD0001BF0
0BFFE6BFF4FFFA5AFFE0
02FFFFFFD07FFFFFFF80
007FFFFE000BFFFFF900
0006FFA40001AFFE4000
ENDCHAR
STARTCHAR oe
ENCODING 339
SWIDTH 668 0
DWIDTH 21 0
BBX 25 15 1 0
BITMAP
006F901BE40000
03FFF4BFFD0000
0FFFFEFFFF0000
2FFAFFF9BF0000
7FC0BFE07F0000
BF807FD07F0000
BF403FC1FE0000
FF003F9BF80100
FF007FFFE00B40
BF40BFF9002F40
BF80FFE001FF40
7FEBFFFA6FFE00
2FFFFBFFFFF400
0BFFE2FFFF9000
01BE406FF90000
ENDCHAR
STARTCHAR Racute
ENCODING 340
SWIDTH 880 0
DWIDTH 28 0
BBX 32 37 1 0
BITMAP
0000000000140000
0000000000FE0000
0000000007FF0000
000000001FFE0000
00000000BFF80000
00000002FF900000
00000007F9000000
0000000790000000
0000000000000000
0000000000000000
000001BFF9400000
00006FFFFFE00000
0002FFFFFFFD0000
000FFFA6BFFF0000
003FF40007FF4000
00BF800002FF8000
02FE02A400FFC000
03F807F800FFC000
0BF00BF800FF8000
0FE00FF801FF4000
1FD00FF402FF0000
2FC01FF407FD0000
2F801FF02FF80000
3F806FFAFFE00000
3F43FFFFFE400000
3F43FFFFF4000000
7F42FFFFFD000000
7F407FD7FF400000
3F407FC1FF800000
3F40BF80BFD00000
3F80BF807FE0001C
2FC0FF402FF4007D
1FE1FF401FFD01FC
0BFAFF000BFFABF4
03FFFE0003FFFFD0
00FFFD0001FFFF40
001BE400002FE400
ENDCHAR
STARTCHAR racute
ENCODING 341
SWIDTH 455 0
DWIDTH 15 0
BBX 18 27 1 0
BITMAP
0000014000
000007F000
00000FF400
00001FF000
00003FD000
00007F8000
0000BE0000
0001FC0000
0002F40000
0001D00000
0000000000
0000000000
07E01BD000
0FE0BFE000
1FD2FFE000
2FC7FFE000
3FCFFFD000
3FAF6FD0A0
7FBE2FD2F0
7FFC2FFFF0
7FF81FFFD0
7FF00BFE00
7FE0015000
7FD0000000
7FC0000000
3F80000000
1F40000000
ENDCHAR
STARTCHAR uni0156
ENCODING 342
SWIDTH 880 0
DWIDTH 28 0
BBX 32 36 1 -9
BITMAP
000001BFF9400000
00006FFFFFE00000
0002FFFFFFFD0000
000FFFA6BFFF0000
003FF40007FF4000
00BF800002FF8000
02FE02A400FFC000
03F807F800FFC000
0BF00BF800FF8000
0FE00FF801FF4000
1FD00FF402FF0000
2FC01FF407FD0000
2F801FF02FF80000
3F806FFAFFE00000
3F43FFFFFE400000
3F43FFFFF4000000
7F42FFFFFD000000
7F407FD7FF400000
3F407FC1FF800000
3F40BF80BFD00000
3F80BF807FE0001C
2FC0FF402FF4007D
1FE1FF401FFD01FC
0BFAFF000BFFABF4
03FFFE0003FFFFD0
00FFFD0001FFFF40
001BE400002FE400
0000000000000000
0000000000000000
0000002E00000000
0000007F80000000
0000007F40000000
0000007F40000000
0000007F00000000
0000007E00000000
0000003C00000000
ENDCHAR
STARTCHAR uni0157
ENCODING 343
SWIDTH 455 0
DWIDTH 15 0
BBX 18 25 1 -10
BITMAP
07E01BD000
0FE0BFE000
1FD2FFE000
2FC7FFE000
3FCFFFD000
3FAF6FD0A0
7FBE2FD2F0
7FFC2FFFF0
7FF81FFFD0
7FF00BFE00
7FE0015000
7FD0000000
7FC0000000
3F80000000
1F40000000
0000000000
0000000000
2E00000000
7F40000000
BF40000000
BF00000000
BE00000000
BD00000000
BC00000000
7400000000
ENDCHAR
STARTCHAR Rcaron
ENCODING 344
SWIDTH 880 0
DWIDTH 28 0
BBX 32 37 1 0
BITMAP
000001E002E00000
000003F80BE00000
000002FC1FD00000
000000FD3F800000
000000BEBF000000
0000003FFD000000
0000002FF4000000
0000000BD0000000
0000000000000000
0000000000000000
000001BFF9400000
00006FFFFFE00000
0002FFFFFFFD0000
000FFFA6BFFF0000
003FF40007FF4000
00BF800002FF8000
02FE02A400FFC000
03F807F800FFC000
0BF00BF800FF8000
0FE00FF801FF4000
1FD00FF402FF0000
2FC01FF407FD0000
2F801FF02FF80000
3F806FFAFFE00000
3F43FFFFFE400000
3F43FFFFF4000000
7F42FFFFFD000000
7F407FD7FF400000
3F407FC1FF800000
3F40BF80BFD00000
3F80BF807FE0001C
2FC0FF402FF4007D
1FE1FF401FFD01FC
0BFAFF000BFFABF4
03FFFE0003FFFFD0
00FFFD0001FFFF40
001BE400002FE400
ENDCHAR
STARTCHAR rcaron
ENCODING 345
SWIDTH 455 0
DWIDTH 15 0
BBX 18 28 1 0
BITMAP
0014001400
007E00FC00
00BF02FC00
007F07F400
003F4BE000
003F5FD000
002F6F8000
001FBF0000
000FFE0000
000BFC0000
0007E00000
0000000000
0000000000
07E01BD000
0FE0BFE000
1FD2FFE000
2FC7FFE000
3FCFFFD000
3FAF6FD0A0
7FBE2FD2F0
7FFC2FFFF0
7FF81FFFD0
7FF00BFE00
7FE0015000
7FD0000000
7FC0000000
3F80000000
1F40000000
ENDCHAR
STARTCHAR Sacute
ENCODING 346
SWIDTH 693 0
DWIDTH 22 0
BBX 21 37 1 0
BITMAP
000000000500
000000002FC0
00000000FFC0
00000007FFC0
0000001FFE00
0000007FE400
000001FE4000
000000E40000
000000000000
000000000000
00006BFE4000
000BFFFFF800
007FFFFFFE00
01FFFA6BFF40
03FF4000BFC0
07FD00003FC0
0BFC00003FC0
0BFC00003FC0
0BFC00003F80
07FE00002F40
03FFD0000000
01FFF9000000
007FFFE00000
001FFFFE0000
0001BFFFD000
00001BFFF800
0000007FFD00
2E00000BFE00
BF400002FF00
BF400001FF00
FF400002FF00
BF400003FE00
BFD0000BFD00
7FFE96BFF800
1FFFFFFFE000
07FFFFFF4000
006BFFA40000
ENDCHAR
STARTCHAR sacute
ENCODING 347
SWIDTH 427 0
DWIDTH 14 0
BBX 19 28 -1 -1
BITMAP
0000005000
000001FC00
000002FD00
000007FC00
00000BF400
00001FE000
00002F8000
00003F0000
00007D0000
0000740000
0000000000
0000000000
0001F80000
0003F80000
000BF40000
000FF00000
002FF00000
003FF80000
00BFFD0000
01FEFF4000
03F4FFC078
0BE07FD1F8
1FC03FD7F8
7F5BFFFFF0
7D2FFFFFD0
143FFFFF40
002FFFE400
0007F80000
ENDCHAR
STARTCHAR Scircumflex
ENCODING 348
SWIDTH 693 0
DWIDTH 22 0
BBX 21 38 1 0
BITMAP
000000BD0000
000003FF4000
00000BFF8000
00001FEFC000
00003FCFE000
0000BF4BF000
0001FE07F400
0002FD03F400
0001F402E000
000000000000
000000000000
00006BFE4000
000BFFFFF800
007FFFFFFE00
01FFFA6BFF40
03FF4000BFC0
07FD00003FC0
0BFC00003FC0
0BFC00003FC0
0BFC00003F80
07FE00002F40
03FFD0000000
01FFF9000000
007FFFE00000
001FFFFE0000
0001BFFFD000
00001BFFF800
0000007FFD00
2E00000BFE00
BF400002FF00
BF400001FF00
FF400002FF00
BF400003FE00
BFD0000BFD00
7FFE96BFF800
1FFFFFFFE000
07FFFFFF4000
006BFFA40000
ENDCHAR
STARTCHAR scircumflex
ENCODING 349
SWIDTH 427 0
DWIDTH 14 0
BBX 19 29 -1 -1
BITMAP
0000050000
00007F8000
0000FFD000
0002FFD000
0007FBE000
000BE7F000
001FC3F400
003F83F400
00BF03F800
00FE02F800
00B801F400
0000000000
0000000000
0001F80000
0003F80000
000BF40000
000FF00000
002FF00000
003FF80000
00BFFD0000
01FEFF4000
03F4FFC078
0BE07FD1F8
1FC03FD7F8
7F5BFFFFF0
7D2FFFFFD0
143FFFFF40
002FFFE400
0007F80000
ENDCHAR
STARTCHAR Scedilla
ENCODING 350
SWIDTH 693 0
DWIDTH 22 0
BBX 21 36 1 -9
BITMAP
00006BFE4000
000BFFFFF400
007FFFFFFE00
01FFFA6BFF40
02FF4000BFC0
07FD00003FC0
0BFC00003FC0
0BF800003FC0
0BFC00003FC0
07FE00002F40
03FF80000400
02FFF8000000
00BFFF900000
002FFFF90000
0006FFFF8000
00002FFFF400
000001BFFC00
1900001FFE00
7F400003FF00
BF400002FF00
FF400001FF00
FF400002FE00
BF800007FE00
7FE5006FFC00
3FFFFFFFF400
1FFFFFFFD000
02FFFFFE4000
002FFF900000
001FFF800000
00002FC00000
00001FC00000
00006FC00000
00FFFF800000
01FFFF000000
00FFF8000000
001540000000
ENDCHAR
STARTCHAR scedilla
ENCODING 351
SWIDTH 427 0
DWIDTH 14 0
BBX 19 24 -1 -9
BITMAP
0001F80000
0003F80000
000BF40000
000FF00000
001FF00000
003FF40000
007FFC0000
00FFFE0000
02F9FF4014
07F4BFC078
1FD03FD1F8
3F802FD7F4
7E1FFFFFD0
283FFFFF40
003FFFE800
007FFD0000
003FFE0000
0000BF0000
00003F0000
0000BF0000
02FFFD0000
03FFF80000
03FFE00000
0055000000
ENDCHAR
STARTCHAR Scaron
ENCODING 352
SWIDTH 693 0
DWIDTH 22 0
BBX 21 37 1 0
BITMAP
00007D00B800
0000BE02FC00
00007F07F800
00003F4BE000
00001FDFC000
00000FFF4000
000007FE0000
000001F80000
000000000000
000000000000
00006BFE4000
000BFFFFF800
007FFFFFFE00
01FFFA6BFF40
03FF4000BFC0
07FD00003FC0
0BFC00003FC0
0BFC00003FC0
0BFC00003F80
07FE00002F40
03FFD0000000
01FFF9000000
007FFFE00000
001FFFFE0000
0001BFFFD000
00001BFFF800
0000007FFD00
2E00000BFE00
BF400002FF00
BF400001FF00
FF400002FF00
BF400003FE00
BFD0000BFD00
7FFE96BFF800
1FFFFFFFE000
07FFFFFF4000
006BFFA40000
ENDCHAR
STARTCHAR scaron
ENCODING 353
SWIDTH 427 0
DWIDTH 14 0
BBX 19 29 -1 -1
BITMAP
0005000500
001F803F40
001FC0BF00
001FD0FE00
000FD2FC00
000BD3F400
000BEBE000
0007EFD000
0003FF8000
0002FF0000
0000B80000
0000000000
0000000000
0001F80000
0003F80000
000BF40000
000FF00000
002FF00000
003FF80000
00BFFD0000
01FEFF4000
03F4FFC078
0BE07FD1F8
1FC03FD7F8
7F5BFFFFF0
7D2FFFFFD0
143FFFFF40
002FFFE400
0007F80000
ENDCHAR
STARTCHAR uni0162
ENCODING 354
SWIDTH 697 0
DWIDTH 22 0
BBX 28 35 1 -8
BITMAP
00016AFFFFFFE8
006FFFFFFFFFFE
07FFFFFFFFFFFE
2FFEA5FF9556A8
7FD000FF800000
BF4001FF400000
BF0001FF000000
FF0002FF000000
BF4003FE000000
7F8003FE000000
2F4007FD000000
000007FD000000
00000BFC000000
00000BF8000000
00000FF8000000
00000FF4000000
00001FF4000000
00001FF0000000
00002FF0000000
00002FF0000000
00003FE0000000
00003FE0000000
00007FD0000000
00007FD0000000
00007FD0000000
0001FFC0000000
0003FFD0000000
0002FFF0000000
000007F4000000
000003F4000000
000003F4000000
00056FF0000000
002FFFE0000000
003FFF80000000
001FF900000000
ENDCHAR
STARTCHAR uni0163
ENCODING 355
SWIDTH 393 0
DWIDTH 13 0
BBX 17 37 0 -9
BITMAP
00002F4000
0000FFD000
0003FFE000
000BFBF000
001FD3F000
002F83F000
003F47E000
007F07D000
00BF0FC000
00FE1F8000
01FD3F0000
01FDBD0000
02FFF40000
BFFFFFF400
FFFFFFF400
FFFFFFE000
1BFD554000
03F8000000
03F8000000
07F8000000
03F8000000
03FC000240
03FC000F80
02FE003F80
01FF95FF00
00FFFFFD00
003FFFF000
00BFFF8000
00FFF80000
0016FC0000
0000FD0000
0000FD0000
0002FC0000
0BFFF80000
0FFFF00000
0BFF800000
0154000000
ENDCHAR
STARTCHAR Tcaron
ENCODING 356
SWIDTH 697 0
DWIDTH 22 0
BBX 28 37 1 0
BITMAP
000002E007D000
000003F40FE000
000003F82FC000
000001FC7F4000
000000FDFE0000
0000007FFC0000
0000002FF40000
0000000B900000
00000000000000
00000000000000
00016AFFFFFFE8
006FFFFFFFFFFE
07FFFFFFFFFFFE
1FFEA5FF9556A8
7FD000FF800000
BF4001FF400000
BF0001FF000000
FF0002FF000000
BF4003FE000000
7F8003FE000000
2F4007FD000000
040007FD000000
00000BFC000000
00000BFC000000
00000FF8000000
00000FF4000000
00001FF4000000
00001FF4000000
00002FF0000000
00002FF0000000
00003FE0000000
00003FE0000000
00003FE0000000
00007FD0000000
00007FD0000000
00007FC0000000
00002F40000000
ENDCHAR
STARTCHAR tcaron
ENCODING 357
SWIDTH 343 0
DWIDTH 11 0
BBX 15 30 0 0
BITMAP
00000050
000002F8
000003FC
000003F8
000003F4
000543F0
002FD3E0
003FD2D0
007FC000
007F8000
00BF8000
00FF4000
01FF0000
01FE0000
7FFFFF80
BFFFFF80
7FFFFF40
1BFD5400
07F80000
07F80000
0BF40000
0BF40000
0BF40000
0BF4002C
0BF400BC
0BF802FC
07FE6FF4
03FFFFD0
01FFFE40
002FE400
ENDCHAR
STARTCHAR Tbar
ENCODING 358
SWIDTH 697 0
DWIDTH 22 0
BBX 28 27 1 0
BITMAP
00016AFFFFFFE8
006FFFFFFFFFFE
07FFFFFFFFFFFE
1FFFA5FF9556A8
7FE000FF800000
BF4001FF400000
BF0001FF000000
FF0002FF000000
BF4003FE000000
7F8003FE000000
3F4007FD000000
040007FD000000
001FFFFFFE0000
003FFFFFFF4000
003FFFFFFF0000
00155FF9540000
00001FF4000000
00001FF4000000
00002FF0000000
00002FF0000000
00003FE0000000
00003FE0000000
00003FE0000000
00007FD0000000
00007FD0000000
00007FC0000000
00002F40000000
ENDCHAR
STARTCHAR tbar
ENCODING 359
SWIDTH 343 0
DWIDTH 11 0
BBX 16 25 -1 0
BITMAP
00015000
000BF400
000FF400
001FF000
001FE000
002FE000
003FD000
007FC000
007F8000
1FFFFFE0
2FFFFFE0
1FFFFFD0
06FF5500
01FE0000
16FE5500
3FFFFF40
7FFFFF40
2FFFF900
02FD000B
02FD002F
02FE00BF
01FF9BFD
00FFFFF4
007FFFD0
001BF900
ENDCHAR
STARTCHAR Utilde
ENCODING 360
SWIDTH 890 0
DWIDTH 28 0
BBX 33 36 0 0
BITMAP
000000050000000000
0000007FD00B400000
000000FFF82F800000
000002FFFF7F400000
000007F4BFFF000000
000007E02FFD000000
0000014006E4000000
000000000000000000
000000000000000000
001BF8000002E00000
01FFFE00000BF40000
07FFFF40000BF80000
1FFAFF80000FF80000
7F80FF80000FF80000
BE00FF80001FF40000
F800FF80001FF40000
A000FF40002FF00000
0001FF40002FF00000
0002FF00003FE00000
0002FF00007FE00000
0003FE00007FD00000
0007FD0000BFD00000
0007FD0000FFC00000
000BFC0001FFC00000
000FF80002FFC00000
000FF80003FF800000
001FF4000BFF800000
001FF0000FFF400000
002FF0002EFF400000
002FF0007DFF400240
002FF001F8FF400F80
002FF007F0FF807F40
002FFEAFD0FFE6FF00
000FFFFF40BFFFF800
0007FFFD003FFFE000
0001BF900006FE4000
ENDCHAR
STARTCHAR utilde
ENCODING 361
SWIDTH 462 0
DWIDTH 15 0
BBX 18 24 1 0
BITMAP
0014000000
00FF402D00
02FFE0BE00
07FFFDFD00
0FE2FFFC00
0FC07FF400
05000B9000
0000000000
0000000000
07E00BC000
0FE02FC000
1FE03F8000
2FD07F8000
3FC0BF4000
3FC0FF4000
7F81FF0000
7F82FE0050
7F47FE01F0
7F9FFD07E0
7FFFFD0FE0
7FFEFFBF80
3FFCFFFF00
2FF4BFF800
0BD02F9000
ENDCHAR
STARTCHAR Umacron
ENCODING 362
SWIDTH 890 0
DWIDTH 28 0
BBX 33 33 0 0
BITMAP
000000155550000000
000000BFFFF4000000
000000BFFFF4000000
0000007FFFE0000000
000000000000000000
000000000000000000
001BF8000002E00000
01FFFE00000BF40000
07FFFF40000BF80000
1FFAFF80000FF80000
7F80FF80000FF80000
BE00FF80001FF40000
F800FF80001FF40000
A000FF40002FF00000
0001FF40002FF00000
0002FF00003FE00000
0002FF00007FE00000
0003FE00007FD00000
0007FD0000BFD00000
0007FD0000FFC00000
000BFC0001FFC00000
000FF80002FFC00000
000FF80003FF800000
001FF4000BFF800000
001FF0000FFF400000
002FF0002EFF400000
002FF0007DFF400240
002FF001F8FF400F80
002FF007F0FF807F40
002FFEAFD0FFE6FF00
000FFFFF40BFFFF800
0007FFFD003FFFE000
0001BF900006FE4000
ENDCHAR
STARTCHAR umacron
ENCODING 363
SWIDTH 462 0
DWIDTH 15 0
BBX 18 21 1 0
BITMAP
0055554000
01FFFFE000
02FFFFE000
01FFFFC000
0000000000
0000000000
07E00BC000
0FE02FC000
1FE03F8000
2FD07F8000
3FC0BF4000
3FC0FF4000
7F81FF0000
7F82FE0050
7F47FE01F0
7F9FFD07E0
7FFFFD0FE0
7FFEFFBF80
3FFCFFFF00
2FF4BFF800
0BD02F9000
ENDCHAR
STARTCHAR Ubreve
ENCODING 364
SWIDTH 890 0
DWIDTH 28 0
BBX 33 35 0 0
BITMAP
000001F4001F000000
000003FC007F400000
000002FF9AFF000000
000001FFFFFD000000
0000007FFFF4000000
00000006FE40000000
000000000000000000
000000000000000000
001BF8000002E00000
01FFFE00000BF40000
07FFFF40000BF80000
1FFAFF80000FF80000
7F80FF80000FF80000
BE00FF80001FF40000
F800FF80001FF40000
A000FF40002FF00000
0001FF40002FF00000
0002FF00003FE00000
0002FF00007FE00000
0003FE00007FD00000
0007FD0000BFD00000
0007FD0000FFC00000
000BFC0001FFC00000
000FF80002FFC00000
000FF80003FF800000
001FF4000BFF800000
001FF0000FFF400000
002FF0002EFF400000
002FF0007DFF400240
002FF001F8FF400F80
002FF007F0FF807F40
002FFEAFD0FFE6FF00
000FFFFF40BFFFF800
0007FFFD003FFFE000
0001BF900006FE4000
ENDCHAR
STARTCHAR ubreve
ENCODING 365
SWIDTH 462 0
DWIDTH 15 0
BBX 18 24 1 0
BITMAP
07D0007C00
0BF000FD00
0BF802FD00
07FEAFFC00
02FFFFF400
00BFFFD000
001BF90000
0000000000
0000000000
07E00BC000
0FE02FC000
1FE03F8000
2FD07F8000
3FC0BF4000
3FC0FF4000
7F81FF0000
7F82FE0050
7F47FE01F0
7F9FFD07E0
7FFFFD0FE0
7FFEFFBF80
3FFCFFFF00
2FF4BFF800
0BD02F9000
ENDCHAR
STARTCHAR Uring
ENCODING 366
SWIDTH 890 0
DWIDTH 28 0
BBX 33 38 0 0
BITMAP
00000001BE40000000
00000007FFD0000000
0000000FFFF0000000
0000001F83F0000000
0000001F42F0000000
0000001F83F0000000
0000000FFFE0000000
0000000BFFC0000000
00000001BE00000000
000000000000000000
000000000000000000
001BF8000002E00000
01FFFE00000BF40000
07FFFF40000BF80000
1FFAFF80000FF80000
7F80FF80000FF80000
BE00FF80001FF40000
F800FF80001FF40000
A000FF40002FF00000
0001FF40002FF00000
0002FF00003FE00000
0002FF00007FE00000
0003FE00007FD00000
0007FD0000BFD00000
0007FD0000FFC00000
000BFC0001FFC00000
000FF80002FFC00000
000FF80003FF800000
001FF4000BFF800000
001FF0000FFF400000
002FF0002EFF400000
002FF0007DFF400240
002FF001F8FF400F80
002FF007F0FF807F40
002FFEAFD0FFE6FF00
000FFFFF40BFFFF800
0007FFFD003FFFE000
0001BF900006FE4000
ENDCHAR
STARTCHAR uring
ENCODING 367
SWIDTH 462 0
DWIDTH 15 0
BBX 18 26 1 0
BITMAP
0002F90000
001FFF4000
002FFFC000
007E0BD000
007E0BD000
007E0FC000
003FFF8000
001FFF0000
0006F80000
0000000000
0000000000
07E00BC000
0FE02FC000
1FE03F8000
2FD07F8000
3FC0BF4000
3FC0FF4000
7F81FF0000
7F82FE0050
7F47FE01F0
7F9FFD07E0
7FFFFD0FE0
7FFEFFBF80
3FFCFFFF00
2FF4BFF800
0BD02F9000
ENDCHAR
STARTCHAR Uhungarumlaut
ENCODING 368
SWIDTH 890 0
DWIDTH 28 0
BBX 33 37 0 0
BITMAP
000000014014000000
00000007F07E000000
0000000BF4BF000000
0000000FF0FE000000
0000000FD1FD000000
0000001F82F8000000
0000002F43F0000000
0000001E02D0000000
000000000000000000
000000000000000000
001BF8000002E00000
01FFFE00000BF40000
07FFFF40000BF80000
1FFAFF80000FF80000
7F80FF80000FF80000
BE00FF80001FF40000
F800FF80001FF40000
A000FF40002FF00000
0001FF40002FF00000
0002FF00003FE00000
0002FF00007FE00000
0003FE00007FD00000
0007FD0000BFD00000
0007FD0000FFC00000
000BFC0001FFC00000
000FF80002FFC00000
000FF80003FF800000
001FF4000BFF800000
001FF0000FFF400000
002FF0002EFF400000
002FF0007DFF400240
002FF001F8FF400F80
002FF007F0FF807F40
002FFEAFD0FFE6FF00
000FFFFF40BFFFF800
0007FFFD003FFFE000
0001BF900006FE4000
ENDCHAR
STARTCHAR uhungarumlaut
ENCODING 369
SWIDTH 462 0
DWIDTH 15 0
BBX 18 27 1 0
BITMAP
0002E03D00
0007F4BF00
000BF4FF40
000FF1FF00
001FD2FD00
002FC3F800
003F43F000
007E07E000
007D0BC000
0074074000
0000000000
0000000000
07E00BC000
0FE02FC000
1FE03F8000
2FD07F8000
3FC0BF4000
3FC0FF4000
7F81FF0000
7F82FE0050
7F47FE01F0
7F9FFD07E0
7FFFFD0FE0
7FFEFFBF80
3FFCFFFF00
2FF4BFF800
0BD02F9000
ENDCHAR
STARTCHAR Uogonek
ENCODING 370
SWIDTH 890 0
DWIDTH 28 0
BBX 33 35 0 -8
BITMAP
001BF8000002E00000
01FFFE00000BF40000
07FFFF40000BF80000
1FFAFF80000FF80000
7F80FF80000FF80000
BE00FF80001FF40000
F800FF80001FF40000
A000FF40002FF00000
0001FF40002FF00000
0002FF00003FE00000
0002FF00007FE00000
0003FE00007FD00000
0007FD0000BFD00000
0007FD0000FFC00000
000BFC0001FFC00000
000FF80002FFC00000
000FF80003FF800000
001FF4000BFF800000
001FF0000FFF400000
002FF0002EFF400000
002FF0007DFF400240
002FF001F8FF400F80
002FF007F0FF802F40
002FFEAFD0FFD5FE00
000FFFFF40BFFFF800
0007FFFD003FFFE000
0001BF900007FE4000
000000000002F80000
000000000007F00000
00000000000BE00000
00000000000BE00000
00000000000BF9A400
000000000007FFF800
000000000002FFF800
0000000000006FA000
ENDCHAR
STARTCHAR uogonek
ENCODING 371
SWIDTH 462 0
DWIDTH 15 0
BBX 18 23 1 -8
BITMAP
07E00BC000
0FE02FC000
1FE03F8000
2FD07F8000
3FC0BF4000
3FC0FF0000
7F81FF0000
7F82FE0050
7F47FE01F0
7F9FFD07E0
7FFFFD1FE0
7FFDFFFF80
3FFCFFFE00
2FF4BFF800
0BD07FD000
0001FE0000
0002F80000
0003F00000
0007F00000
0003F81400
0003FFFC00
0001FFFC00
00002BA000
ENDCHAR
STARTCHAR Wcircumflex
ENCODING 372
SWIDTH 1217 0
DWIDTH 39 0
BBX 40 38 4 0
BITMAP
000000001BD000000000
000000007FF000000000
00000000FFF800000000
00000002FEFC00000000
00000007F9FD00000000
0000000FF0FE00000000
0000002FE0BF00000000
0000003FC07F00000000
0000001F402E00000000
00000000000000000000
000000000000002FD000
1F8000007E0001FFF800
3FD00000FF4003FFFD00
7FD00001FF400BFBFE00
7FD00002FF000FD1FE00
7FC00002FF001FC0FF00
BFC00003FF001F80FF00
BFC00003FE001F80FE00
FF800007FE001F81FE00
FF80000BFE001FC1FD00
FF80000FFE001FD2FD00
FF80000FFD000FF3FC00
FF40001FFD0007FFF800
FF40002FFD0002FFF800
FF40003FFD0000BFFFFD
FF40007FFD00002FFFFE
FF4000BFFD00003FFFFD
FF4000FEFD00007F8554
FF8002FDFE0000FF4000
BF8003F9FE0002FE0000
BFC00BF4FE0007FC0000
7FC00FE0FF000FF40000
3FD02FD0BF402FE00000
2FF4BF807FD1BF800000
1FFFFE003FFFFF000000
0FFFFC002FFFF8000000
07FFE0000BFFE0000000
00BE400002FE40000000
ENDCHAR
STARTCHAR wcircumflex
ENCODING 373
SWIDTH 700 0
DWIDTH 22 0
BBX 26 28 1 0
BITMAP
00000150000000
00000BF4000000
00001FFC000000
00003FFC000000
0000BEBD000000
0000FDBE000000
0002F87F000000
0007F47F000000
000BE07F400000
001FD03F400000
000F802E000000
00000000000000
00000000000000
2F001F402F4000
7F403F40BFC000
7F407F41FFC000
7F40FF42FFC000
7F81FF82FF8000
7F82FF82FFABE0
7F83FF81FFFFE0
7F8BFF82FFFFD0
7F8FFF87FBFE40
3F9FAF8FE00000
3FFF6FEFD00000
3FFF2FFF800000
2FFD1FFE000000
1FF80FFC000000
0BE007E0000000
ENDCHAR
STARTCHAR Ycircumflex
ENCODING 374
SWIDTH 851 0
DWIDTH 27 0
BBX 31 49 0 -11
BITMAP
000000006F400000
00000001FFD00000
00000003FFE00000
0000000BFBF00000
0000001FE3F40000
0000002FD3F80000
0000007F82FC0000
000000BF01FD0000
0000007D00B80000
0000000000000000
0000000000000000
001BF8000002E400
01FFFE00000BF800
07FFFF40000BF800
1FFAFF80000FF800
7F80FF80000FF800
BE00FF80001FF400
F800FF80001FF400
A000FF40002FF000
0001FF40003FF000
0002FF00003FE000
0002FF00007FE000
0003FE0000BFE000
0007FD0000FFD000
0007FD0001FFD000
000BFC0003FFC000
000BFC0007FFC000
000BF8000FBF8000
000FF8002FBF8000
000BFC00BDBF8000
000BFE06F8BF4000
0007FFFFF0FF56B4
0002FFFFC0FFFFF8
0000BFFE06FFFFF4
000005506FFFFE50
00000007FFFE4000
0000007FFBFD0000
000002FF82FD0000
00000BF803FC0000
00002FD007FC0000
00007F400BF80000
0000BF000FF40000
0000FE001FE00000
0001FE007FD00000
0001FF41FF800000
0000FFFFFE000000
00007FFFF8000000
00001FFFD0000000
0000015400000000
ENDCHAR
STARTCHAR ycircumflex
ENCODING 375
SWIDTH 479 0
DWIDTH 15 0
BBX 19 43 0 -15
BITMAP
0000050000
00007F8000
0000FFC000
0002FFD000
0007FBE000
000BE7F000
001FC3F000
003F83F400
00BF03F800
00FE02F800
00B801F400
0000000000
0000000000
01F802F000
03F80BF000
07F80FF000
0BF41FE000
0FF02FE000
0FF03FD000
1FE07FC000
1FD0BFC014
1FD1FF80B8
1FE7FF87F8
1FFFFFAFF4
1FFFBFFFD0
0FFF7FFE00
0BFD7FF400
02F4BF8000
0007FE0000
001FFD0000
007FFD0000
01FEFC0000
07F6F80000
0FD3F80000
2F83F40000
7F07F00000
BD0BE00000
FC1FD00000
FC2F800000
FEBF400000
FFFE000000
7FF8000000
1FD0000000
ENDCHAR
STARTCHAR Ydieresis
ENCODING 376
SWIDTH 851 0
DWIDTH 27 0
BBX 31 45 0 -11
BITMAP
0000002F40B80000
0000007FC2FE0000
000000BFC3FE0000
000000BFC3FE0000
0000002E41F80000
0000000000000000
0000000000000000
001BF8000002E400
01FFFE00000BF800
07FFFF40000BF800
1FFAFF80000FF800
7F80FF80000FF800
BE00FF80001FF400
F800FF80001FF400
A000FF40002FF000
0001FF40003FF000
0002FF00003FE000
0002FF00007FE000
0003FE0000BFE000
0007FD0000FFD000
0007FD0001FFD000
000BFC0003FFC000
000BFC0007FFC000
000BF8000FBF8000
000FF8002FBF8000
000BFC00BDBF8000
000BFE06F8BF4000
0007FFFFF0FF56B4
0002FFFFC0FFFFF8
0000BFFE06FFFFF4
000005506FFFFE50
00000007FFFE4000
0000007FFBFD0000
000002FF82FD0000
00000BF803FC0000
00002FD007FC0000
00007F400BF80000
0000BF000FF40000
0000FE001FE00000
0001FE007FD00000
0001FF41FF800000
0000FFFFFE000000
00007FFFF8000000
00001FFFD0000000
0000015400000000
ENDCHAR
STARTCHAR Zacute
ENCODING 377
SWIDTH 721 0
DWIDTH 23 0
BBX 27 37 0 0
BITMAP
00000000005000
0000000003F800
000000001FFC00
000000007FF800
00000002FFE000
0000000BFE4000
0000001FE40000
0000001E400000
00000000000000
00000000000000
0001AFFFEA5000
002FFFFFFFFE40
01FFFFFFFFFF80
03FFE95AAFFF80
0BFD00000FFE00
0FF000002FF400
0FE000007FE000
0FE00000BFD000
0FF00001FF8000
0BF40007FF0000
02E0000BFD0000
0000001FF80000
0000007FF00000
000000FFD00000
000002FF800000
000007FF000000
00001FFD000000
00003FF4000000
0000BFE0000000
0002FFC0000018
06FFFF4000007C
1FFFFFE40001FC
7FFFFFFF901BF8
7FFFFFFFFFFFF0
7FFFEBFFFFFFD0
3FFF406FFFFE00
0BF80001BFE400
ENDCHAR
STARTCHAR zacute
ENCODING 378
SWIDTH 445 0
DWIDTH 14 0
BBX 17 27 2 0
BITMAP
0000050000
00002F8000
00003FC000
0000BF8000
0000FF4000
0001FD0000
0003F80000
0007E00000
000BC00000
000B400000
0000000000
0000000000
BFFFFF8000
FFFFFFC000
FFFFFFC000
556FFF4000
007FF80000
07FF800000
1FF8000000
7FE0000100
BF80000B40
FF40002F40
FF8001FF00
BFF9AFFD00
7FFFFFF400
1FFFFF8000
01BFE80000
ENDCHAR
STARTCHAR Zdotaccent
ENCODING 379
SWIDTH 721 0
DWIDTH 23 0
BBX 27 34 0 0
BITMAP
0000002F800000
000000BFE00000
000000FFE00000
000000BFD00000
0000006F800000
00000000000000
00000000000000
0001AFFFEA5000
002FFFFFFFFE40
01FFFFFFFFFF80
03FFE95AAFFF80
0BFD00000FFE00
0FF000002FF400
0FE000007FE000
0FE00000BFD000
0FF00001FF8000
0BF40007FF0000
02E0000BFD0000
0000001FF80000
0000007FF00000
000000FFD00000
000002FF800000
000007FF000000
00001FFD000000
00003FF4000000
0000BFE0000000
0002FFC0000018
06FFFF4000007C
1FFFFFE40001FC
7FFFFFFF901BF8
7FFFFFFFFFFFF0
7FFFEBFFFFFFD0
3FFF406FFFFE00
0BF80001BFE400
ENDCHAR
STARTCHAR zdotaccent
ENCODING 380
SWIDTH 445 0
DWIDTH 14 0
BBX 17 22 2 0
BITMAP
001BD00000
003FF00000
007FF40000
007FF00000
001F900000
0000000000
0000000000
BFFFFF8000
FFFFFFC000
FFFFFFC000
556FFF4000
007FF80000
07FF800000
1FF8000000
7FE0000100
BF80000B40
FF40002F40
FF8001FF00
BFF9AFFD00
7FFFFFF400
1FFFFF8000
01BFE80000
ENDCHAR
STARTCHAR Zcaron
ENCODING 381
SWIDTH 721 0
DWIDTH 23 0
BBX 27 37 0 0
BITMAP
000007800B8000
00000FE02FC000
00000BF07F4000
000003F4FE0000
000002FAFC0000
000000FFF40000
000000BFD00000
0000002F400000
00000000000000
00000000000000
0001AFFFEA5000
002FFFFFFFFE40
01FFFFFFFFFF80
03FFE95AAFFF80
0BFD00000FFE00
0FF000002FF400
0FE000007FE000
0FE00000BFD000
0FF00001FF8000
0BF40007FF0000
02E0000BFD0000
0000001FF80000
0000007FF00000
000000FFD00000
000002FF800000
000007FF000000
00001FFD000000
00003FF4000000
0000BFE0000000
0002FFC0000018
06FFFF4000007C
1FFFFFE40001FC
7FFFFFFF901BF8
7FFFFFFFFFFFF0
7FFFEBFFFFFFD0
3FFF406FFFFE00
0BF80001BFE400
ENDCHAR
STARTCHAR zcaron
ENCODING 382
SWIDTH 445 0
DWIDTH 14 0
BBX 17 28 2 0
BITMAP
0050015000
02F807F000
02F80FE000
02FC1FD000
01FC3F8000
00FC7F0000
00BDFD0000
00BEFC0000
007FF40000
003FE00000
001F800000
0000000000
0000000000
BFFFFF8000
FFFFFFC000
FFFFFFC000
556FFF4000
007FF80000
07FF800000
1FF8000000
7FE0000100
BF80000B40
FF40002F40
FF8001FF00
BFF9AFFD00
7FFFFFF400
1FFFFF8000
01BFE80000
ENDCHAR
STARTCHAR uni018F
ENCODING 399
SWIDTH 792 0
DWIDTH 25 0
BBX 23 27 2 0
BITMAP
0001AFFA4000
001FFFFFE400
00BFFFFFFD00
03FFE9AFFF40
07FD0002FFC0
0BE00000BFE0
074000003FF0
000000002FF4
000000001FF4
000000000FF8
000000000FF8
000000000FF8
155555555FF8
7FFFFFFFFFF8
FFFFFFFFFFF4
FFFFFFFFFFF4
FF8000002FF0
FF8000003FE0
FF8000007FD0
BFC00000FFC0
7FD00001FF40
3FF00007FE00
2FF9001FFC00
0BFFA6FFF400
03FFFFFFD000
00BFFFFE0000
0006FF900000
ENDCHAR
STARTCHAR florin
ENCODING 402
SWIDTH 478 0
DWIDTH 15 0
BBX 19 34 -2 -10
BITMAP
0000006FF4
000002FFFC
00000FFFFC
00002FFE50
00003FE000
00003FC000
00007FC000
00007F8000
0000BF8000
0000BF4000
01FFFFFFE0
02FFFFFFE0
02FFFFFFD0
0056FF5500
0001FF0000
0001FE0000
0002FE0000
0002FE0000
0002FD0000
0003FD0000
0003FC0000
0003FC0000
0007FC0000
0007F80000
000BF80000
000BF80000
000BF40000
000FF40000
000FF00000
002FF00000
16FFE00000
FFFFC00000
FFFE000000
7FE4000000
ENDCHAR
STARTCHAR Ohorn
ENCODING 416
SWIDTH 816 0
DWIDTH 26 0
BBX 26 32 2 0
BITMAP
00000000000B80
00000000000FD0
00000000001FD0
00000000002FD0
0000000001BFC0
00001BFFFFFF40
0001FFFFFFFE00
001FFFFFFFF800
007FFE9BFFE000
01FFD000BFF000
03FF40002FF800
0BFD00000FFC00
0FF800000BFC00
2FF4000007FD00
3FE0000007FD00
7FD0000007FE00
7FD0000007FD00
BFC0000007FD00
BFC0000007FD00
FF80000007FD00
FF8000000BFC00
FF8000000FF800
FFC000000FF400
BFC000002FF000
BFD000003FE000
7FE00000BFC000
3FF40002FF4000
1FFD000BFE0000
0BFFE6BFF80000
02FFFFFFE00000
007FFFFE400000
0006FFA4000000
ENDCHAR
STARTCHAR ohorn
ENCODING 417
SWIDTH 451 0
DWIDTH 14 0
BBX 18 19 1 0
BITMAP
000000B800
000000FC00
000001FC00
000007F800
006FFFF400
03FFFFE000
0FFFFF4000
2FFBFF4000
7FC3FF8000
BF82FFEAD0
BF41FFFFE0
FF00BFFFE0
FF003FFE40
BF407F4000
BF80BF0000
7FEAFE0000
2FFFFC0000
0BFFE00000
01BE400000
ENDCHAR
STARTCHAR Uhorn
ENCODING 431
SWIDTH 890 0
DWIDTH 28 0
BBX 33 32 0 0
BITMAP
000000000000007D00
00000000000000FE00
00000000000000FE00
00000000000002FE00
0000000000000BFD00
001BF8000002FFF800
01FFFE00000BFFF000
07FFFF40000BFF8000
1FFAFF80000FF90000
7F80FF80000FF80000
BE00FF80001FF40000
F800FF80001FF40000
A000FF40002FF00000
0001FF40002FF00000
0002FF00003FE00000
0002FF00007FE00000
0003FE00007FD00000
0007FD0000BFD00000
0007FD0000FFC00000
000BFC0001FFC00000
000FF80002FFC00000
000FF80003FF800000
001FF4000BFF800000
001FF0000FFF400000
002FF0002EFF400000
002FF0007DFF400240
002FF001F8FF400F80
002FF007F0FF807F40
002FFEAFD0FFE6FF00
000FFFFF40BFFFF800
0007FFFD003FFFE000
0001BF900006FE4000
ENDCHAR
STARTCHAR uhorn
ENCODING 432
SWIDTH 512 0
DWIDTH 16 0
BBX 20 19 1 0
BITMAP
0000000B80
0000000FC0
0000001FC0
0000007F80
07E00BFF40
0FE02FFE00
1FE03FE400
2FD07F8000
3FC0BF4000
3FC0FF4000
7F81FF0000
7F82FE0004
7F47FE002D
7F9FFD00BD
7FFFFE02FC
7FFDFFAFF4
3FFCFFFFD0
2FF47FFF40
0BD01FE400
ENDCHAR
STARTCHAR uni01C4
ENCODING 452
SWIDTH 1531 0
DWIDTH 49 0
BBX 51 37 2 0
BITMAP
00000000000000000B800B8000
00000000000000000FD02F8000
00000000000000000BF07F4000
000000000000000007F4FE0000
000000000000000002FAF80000
000000000000000001FFF00000
000000000000000000BFD00000
0000000000000000002F400000
00000000000000000000000000
00000000000000000000000000
0006BFF900000001AFFFEA5000
00BFFFFFE000002FFFFFFFFE40
02FFFFFFFD0001FFFFFFFFFF80
03FFA6AFFF4003FFE95AAFFF80
01900006FFD00BF900000FFE00
00000000BFF00FF000002FF400
001900002FF40FE000007FE000
00FF40001FF80FE00000FFC000
01FF00000BFC0FF00002FF4000
02FE00000BFD0BF40007FE0000
03FE000007FD02E0000FFD0000
07FD000007FD0000002FF40000
07FC000007FD0000007FE00000
0BFC00000BFD000000FFD00000
0FF800000BFC000002FF400000
0FF400000FFC000007FE000000
1FF400000FF800001FFC000000
1FF000002FF400003FF4000000
2FF000003FF00000BFE0000000
2FE00000BFD00002FFC0000018
3FE00001FF8006FFFF4000007C
3FE0000BFF402FFFFFE40001FC
3FD0007FFD007FFFFFFF901BF8
7FE5ABFFF400BFFFFFFFFFFFF0
7FFFFFFF8000BFFFDBFFFFFFD0
7FFFFFF900003FFF406FFFFE00
1AFFFA4000000BF80001BFE400
ENDCHAR
STARTCHAR uni01C5
ENCODING 453
SWIDTH 1191 0
DWIDTH 38 0
BBX 39 29 2 -1
BITMAP
00000000000000500050
0006BFF9000001FC03F4
00BFFFFFE00001FD07F0
02FFFFFFFD0000FD0FE0
03FFA6AFFF4000FD1FC0
01900006FFD000BE3F40
00000000BFF0007E7F00
001900002FF4007FFD00
00FF40001FF8003FF800
01FF00000BFC002FF000
02FE00000BFD000B9000
03FE000007FD00000000
07FD000007FD00000000
07FC000007FD7FFFFF40
0BFC00000BFDBFFFFF80
0FF800000BFC7FFFFF80
0FF400000FFC156FFF00
1FF400000FF8007FF800
1FF000002FF401FF9000
2FF000003FF007FE0000
2FE00000BFD01FF80000
3FE00001FF803FE00000
3FE0000BFF40BF800000
3FD0007FFD01FF000000
7FE5ABFFF402FE555500
7FFFFFFF8003FFFFFF80
7FFFFFF90003FFFFFF80
1AFFFA400002FFFFFF40
00000000000050000000
ENDCHAR
STARTCHAR uni01C6
ENCODING 454
SWIDTH 895 0
DWIDTH 29 0
BBX 32 27 1 0
BITMAP
0000000002E007C0
000001FD07F01FD0
000002FD07F42FC0
000003FD03F47F40
000007FC02F8BE00
000007FC01F9FC00
000007F801FAF400
00000BF400FFE000
00000BF400BFD000
00000FF0003F4000
00000FE000000000
00001FE000000000
001BFFD1FFFFFF40
00BFFFD2FFFFFF40
02FFFFC2FFFFFF40
0BFFBF80556FFE00
1FF43F8001BFE400
3FE07F400BFE4000
7FC0BF402FF40000
BF80BF00BFC00000
BF40FF01FF00001E
FF01FE02FF00007E
FF42FE0BFF4006FD
BFEBFFAFFFEABFF8
7FFFBFFFFFFFFFE0
2FFE2FFD2FFFFF40
0BF40BE006FFA400
ENDCHAR
STARTCHAR uni01C7
ENCODING 455
SWIDTH 1276 0
DWIDTH 41 0
BBX 44 31 -2 -4
BITMAP
0000001AFE400001AFFA90
000000BFFFF4001FFFFFFD
000007FFFFFC00BFFFFFFE
00001FFEABFE03FFE9BFFD
00003FF402FF0BFD002FF0
00007FD000FF0FF0003FE0
0000FF8000FF4FE0003FE0
0001FF4001FF0FE0003FD0
0002FF0001FE0FF0007FD0
0002FF0000FD0BF4007FC0
0002FF00001007F0007FC0
0003FE000000014000BFC0
0003FE000000000000BF80
0003FE00000000000BFF80
0003FD0000000000BFFF40
0003FD000000000BFFFF00
0007FD000000007FF6FF00
0007FC00000001FF82FE00
0007FC00000007FD03FD00
0007FC0000001FF403FC00
02BFF90000003FD007F800
1FFFFFE400007F800BF400
3FFFFFFFA406FF400FF000
7FFFFFFFFFFFFF002FE000
7FFFDBFFFFFFFF003FC000
2FFF806FFFFFFF00BF8000
0BF90001AFE9FF86FF0000
000000000000BFFFFD0000
0000000000007FFFF40000
0000000000001FFF800000
0000000000000154000000
ENDCHAR
STARTCHAR uni01C8
ENCODING 456
SWIDTH 927 0
DWIDTH 30 0
BBX 35 42 -2 -15
BITMAP
00000006FF90000000
000000BFFFFD000000
000002FFFFFF400000
00000FFFAAFFC00000
00002FF8007FD00000
00007FE0003FD2F800
0000FFC0002FDFFD00
0001FF80003FEFFD00
0001FF40003FDFFD00
0002FF00003F87F400
0002FF00001A000000
0003FE000000000000
0003FE00000006F000
0003FE0000000BF400
0003FD0000000FF000
0003FD0000000FF000
0007FD0000000FF000
0007FC0000001FE000
0007FC0000001FE000
0007FC0000001FD014
02BFF90000002FD0BC
1FFFFFE400007FC2FC
3FFFFFFFA406FFCBF8
7FFFFFFFFFFFFFFFD0
7FFFDBFFFFFFFFFE00
2FFF406FFFFFBFF400
0BF90001AFE97FD000
000000000001FF0000
000000000007FF0000
00000000002FFE0000
0000000000BFFE0000
0000000002F9FD0000
0000000007E1FC0000
000000000FC2F80000
000000002F43F40000
000000003E07F00000
000000007E0BE00000
00000000BD1FD00000
00000000BFBF800000
00000000BFFF000000
000000003FFD000000
000000001BE0000000
ENDCHAR
STARTCHAR uni01C9
ENCODING 457
SWIDTH 610 0
DWIDTH 20 0
BBX 22 45 1 -15
BITMAP
0001F8000000
000BFF000000
002FFF400000
007FBF800000
00BE2F800000
01FD1F800000
02FC1F800000
03F81F800000
07F42F5BD000
0BF03F7FF400
0FF03F7FF400
0FE07E3FF000
1FD0BD1F9000
1FD0FC000000
2FC2F4000000
2FC3F01F8000
3FC7E03FC000
3F8FC03FC000
3FAF403FC000
7FFF007F8000
7FFD007F8000
7FF800BF4000
3FF000BF4000
3FD001FF01E0
3FC007FF0BF0
2FD01FFF7FE0
1FFABFFFFF80
0BFFFFFFFD00
07FFF9FFE000
00BF92FF4000
000007FC0000
00002FFC0000
0000BFF80000
0002FFF40000
000BE7F40000
002F8BF00000
007F0FE00000
00FD1FD00000
01F82FC00000
02F43F800000
02F4BF000000
03FAFE000000
02FFFC000000
01FFF4000000
006F80000000
ENDCHAR
STARTCHAR uni01CA
ENCODING 458
SWIDTH 1497 0
DWIDTH 48 0
BBX 49 31 0 -4
BITMAP
001BF40006FE000006BFFE9400
01FFFD007FFFD0007FFFFFFF40
07FFFE02FFFFF003FFFFFFFF80
1FFFFE07FFFFF40FFFFFFFFF40
7FD2FF1FE42FF42FF9400BFD00
BE01FF2F401FF83FD0000BF800
FC01FE7D000FF47F80000FF800
B001FEB8001FF47F40000FF800
0002FEF0001FF47F80000FF400
0002FFE0002FF03FC0001FF400
0002FFC0002FE02FD0001FF000
0003FF80003FE01B40001FF000
0003FF40007FD00000002FE000
0007FF00007FC0000001BFE000
0007FE0000BFC000001FFFD000
000BFD0000FF800001FFFFD000
000BFC0000FF40000BFFBFC000
000FFC0001FF40003FF87F8000
000FF80001FF0001FFD0BF4000
001FF80002FF0003FE00FF4000
001FF40002FF000BF801FF0000
002FF00002FF001FF002FE0000
002FF00002FF407FD003FC0000
002FF00001FFE6FFC007F80000
002FE00000BFFFFFC00FF40000
002FD000003FFFFFC02FE00000
001F8000000AFE7FE0BFC00000
000000000000002FFFFF400000
000000000000000FFFFD000000
0000000000000006FFE4000000
00000000000000005500000000
ENDCHAR
STARTCHAR uni01CB
ENCODING 459
SWIDTH 1138 0
DWIDTH 36 0
BBX 40 42 0 -15
BITMAP
001BF4000AFE00000000
01FFFD007FFFD0000000
07FFFE02FFFFF0000000
1FFFFE07FFFFF4000000
7FD2FF1FE42FF4000000
BE01FF2F401FF801BD00
F801FE7D000FF403FF00
B001FEB8001FF407FF40
0002FEF0001FF407FF00
0002FFE0002FF001F900
0002FFC0002FE0000000
0003FF80003FE0000000
0003FF40007FD001F800
0007FF00007FC003FC00
0007FE0000BFC003FC00
000BFD0000FF8007F800
000BFC0000FF4007F800
000FFC0001FF4007F400
000FF80001FF000BF400
001FF80002FF000BF400
001FF40002FF000BF01A
002FF00002FF001FF07F
002FF00002FF407FE2FE
002FF00001FFEAFFEFF8
002FE00000BFFFFFFFD0
002FD000003FFFFFFE00
001F8000000AFE6FF400
000000000000007FD000
00000000000002FF8000
0000000000000BFF8000
0000000000002FFF4000
000000000000BEBF0000
000000000002F8BF0000
000000000007E0FE0000
00000000000FC1FD0000
00000000001F82FC0000
00000000002F43F40000
00000000003F4BF00000
00000000003FAFE00000
00000000002FFFC00000
00000000001FFF000000
000000000006F8000000
ENDCHAR
STARTCHAR uni01CC
ENCODING 460
SWIDTH 750 0
DWIDTH 24 0
BBX 27 37 1 -15
BITMAP
000000000BE000
000000002FF800
000000002FF800
000000002FF800
000000000BE000
00000000000000
00000000000000
07E01BD00BD000
0FE0BFE01FE000
1FD2FFE02FD000
2FC7FFE02FD000
3FCFFFD02FD000
3FAF6FD03FC000
7FBE2FC03FC000
7FFC3FC03F8000
7FF43F807F80B4
7FF07F80BF47F4
7FE07F42FF6FF4
7FD07FEFFFFFD0
7FC07FFFFFFE00
3F803FFEFFF400
1F401BE4FF8000
00000007FE0000
0000001FFD0000
0000007FFC0000
000001FFFC0000
000007F7F80000
00000FD3F40000
00002F47F00000
00007E0BE00000
0000BD0FD00000
0000FC2FC00000
0001F83F800000
0001FEFF000000
0001FFFD000000
0000BFF8000000
00002F90000000
ENDCHAR
STARTCHAR Gcaron
ENCODING 486
SWIDTH 811 0
DWIDTH 26 0
BBX 28 52 2 -15
BITMAP
00000F401F0000
00001FC07F4000
00001FD0FE0000
00000BE2FC0000
000007F7F40000
000002FFE00000
000000FF800000
0000007E000000
00000000000000
00000000000000
00001AFF900000
0001FFFFFD0000
000BFFFFFF0000
007FFE9AFF8000
01FFE000BFC000
03FF40003FD000
0BFD00003FD000
0FF800003FD000
2FF400007FC000
3FE000003F8000
7FD00000190000
BFC00000000000
BFC00000000000
BFC00000000000
FF800000000000
FF80002FFFE000
FF80003FFFF000
FFC0003FFFF000
BFD000055FF000
7FE000000FE000
3FF000001FE01C
2FFC00001FD0BD
0FFF40002FD7FD
03FFFA5AFFEFF4
00BFFFFFFFFF80
001FFFFFFFFD00
0001AFFA7FE000
00000001FF8000
00000007FF4000
0000001FFF0000
0000007FFF0000
000001FDFE0000
000007F5FD0000
00000BD1FC0000
00001F82F80000
00003F03F40000
00007E0BF00000
00007E0FE00000
00007FBFC00000
00007FFF400000
00002FFE000000
00000BE4000000
ENDCHAR
STARTCHAR gcaron
ENCODING 487
SWIDTH 479 0
DWIDTH 15 0
BBX 19 43 0 -15
BITMAP
0001400500
000FD02F80
000FD07F40
000FE0BF00
000BE1FD00
0007F2F800
0003F7F400
0003FBE000
0002FFC000
0001FF4000
0000BD0000
0000000000
0000000000
0006F80000
002FFE9000
00BFFFF000
02FFAFE000
07FD1FE000
0FF81FD000
1FF02FD000
2FE02FC000
2FD03FC078
3FC07F86F8
3FD0BF9FF8
2FFAFFFFE0
1FFFFFFF40
0BFFBFF800
02F9BFD000
0002FF0000
000FFE0000
007FFD0000
01FEFD0000
03F6FC0000
0BE2F80000
2F83F40000
3F07F00000
BE0BE00000
BD1FD00000
FC2FC00000
FEBF400000
FFFE000000
7FF8000000
1FE0000000
ENDCHAR
STARTCHAR uni01EA
ENCODING 490
SWIDTH 816 0
DWIDTH 26 0
BBX 24 36 2 -9
BITMAP
00001BFE9000
0001FFFFF800
000FFFFFFF40
007FFE9BFFD0
01FFD000BFF0
03FF40002FF4
0BFD00000FF8
0FF800000BFC
2FF0000007FD
3FE0000007FD
7FD0000007FE
7FC0000007FE
BFC0000007FD
BFC0000007FD
FF80000007FD
FF8000000BFC
FF8000000FF8
FFC000001FF4
BFC000002FF0
BFD000007FE0
7FE00000FFD0
3FF80002FF80
1FFE001FFE00
0BFFFAFFF800
02FFFFFFE000
007FFFFF4000
0006FFE40000
00003F800000
0000BE000000
0000FD000000
0000FD000000
0000FF450000
0000BFFF8000
00007FFF4000
00001FFE0000
000001540000
ENDCHAR
STARTCHAR uni01EB
ENCODING 491
SWIDTH 451 0
DWIDTH 14 0
BBX 18 23 1 -8
BITMAP
006F900000
02FFF80000
0FFFFE0000
2FFBFF4000
3FC3FF8000
7F82FF8590
BF42FFFFE0
FF00FFFFE0
FF007FFF90
FF403F9400
BF807F4000
7FD1FE0000
3FFFFC0000
1FFFF40000
02FFC00000
00BE000000
01FC000000
03F4000000
03F4000000
03F8040000
02FFFD0000
00FFFD0000
002FE40000
ENDCHAR
STARTCHAR Aringacute
ENCODING 506
SWIDTH 786 0
DWIDTH 25 0
BBX 30 42 1 0
BITMAP
00000000000002E0
0000000000000FF0
0000000000007FF0
000000002A81FF80
00000001FFF2F400
00000003FFF84000
00000007E1FC0000
00000007D0FC0000
0000000BD0FC0000
00000007E1F80000
00000003FFF40000
00000001FFE00000
000000006A400000
0000000000000000
0000000000000000
0000001AFFEA4000
000006FFFFFFE000
00006FFFFFFFE000
0001FFFE96AFD000
000BFF9000010000
002FFD0006900000
007FE0000FF40000
01FFC0001FF40000
02FF40001FF00000
07FE00002FF00000
0BFC00003FE00000
0FF800003FD00000
1FF400007FD00000
2FF00000BFC00000
3FE00000FFC00000
3FE00000FF800000
3FE00001FF800000
7FE00002FF400000
7FE00007FF400000
3FE0000BFF400000
3FF0001FFF400B00
2FF4003FFF401F40
1FFC00BEFF807F00
0BFF9BFCFFEAFD00
03FFFFF4BFFFF400
00BFFFD03FFFD000
001BF9000BFA0000
ENDCHAR
STARTCHAR aringacute
ENCODING 507
SWIDTH 470 0
DWIDTH 15 0
BBX 20 29 1 0
BITMAP
000000002D
00000000BF
00000002FF
0001BE0BF9
000BFF8B90
001FFFD000
002F47E000
003F03E000
002F4BE000
002FFFD000
000BFF4000
0001A90000
0000000000
0000000000
001BE00000
00BFFA4000
02FFFFC000
0BFFBF8000
1FF43F8000
3FE07F4000
7FC0BF4000
BF80BF0000
BF40FF00B0
FF01FE02F0
FF42FE0BF0
BFEBFFAFD0
7FFFBFFF40
2FFE2FFD00
0BF40BE000
ENDCHAR
STARTCHAR AEacute
ENCODING 508
SWIDTH 1015 0
DWIDTH 32 0
BBX 36 37 1 0
BITMAP
000000000000014000
0000000000000BE000
0000000000007FF000
000000000001FFE000
000000000007FF8000
00000000002FF90000
00000000007F900000
000000000079000000
000000000000000000
000000000000000000
0000006BD01FFFFFD0
00000BFFF0BFFFFFE0
00007FFFF1FFFFFFD0
0002FFFF92FE955500
000BFFD003FD000000
002FFD0007FC000000
00BFF4000BF8000000
01FFC0000FF8000000
03FF40000FF4000000
07FE00001FF0000000
0BFC00002FF0000000
1FF800003FF5555400
1FF400007FFFFFFD00
2FF000007FFFFFFD00
3FE00000BFFFFFF800
3FE00000FFC0000000
3FE00001FF80000000
7FE00002FF80000000
7FE00007FF80000000
3FE0000BFF80000000
3FF0001FFFC0000000
2FF4002FFFE000002D
1FFC00BF7FF80006FD
0BFF9BFD1FFFA6BFFD
03FFFFF80BFFFFFFF4
00BFFFE001FFFFFF80
001BFE40001AFFA400
ENDCHAR
STARTCHAR aeacute
ENCODING 509
SWIDTH 653 0
DWIDTH 21 0
BBX 24 27 1 0
BITMAP
000000005000
00000003F800
00000007F800
0000000BF800
0000001FF000
0000002FD000
0000007F4000
000000BE0000
000000F80000
000000A00000
000000000000
000000000000
000AF86FE000
00BFFEFFFC00
02FFFFFFFD00
0BFFAFFAFE00
2FF42FD0BE00
3FD03F80FD00
7F807F42FC00
BF40BF5FF400
BF40FFFFD01F
BF01FFF9007F
BF42FFC002FE
BFEBFFF9AFFC
7FFFDFFFFFE0
2FFF47FFFF80
06F9006FE400
ENDCHAR
STARTCHAR Oslashacute
ENCODING 510
SWIDTH 816 0
DWIDTH 26 0
BBX 24 41 2 -4
BITMAP
000000005000
00000002F800
0000001FFC00
0000007FF800
000001FFE000
00000BFE4000
00001FE40000
00001E47D000
0000000FE000
0000001FD000
00001BFFD000
0001FFFFF900
000FFFFFFF40
007FFEBFFFD0
01FFD0BFBFF0
03FF40FE2FF4
0BFD00FD1FFC
0FF801FC0BFC
2FF002F807FD
3FE003F807FD
7FD003F407FE
7FD007F007FD
BFC00BE007FD
BFC00FD007FD
FFC00FD007FD
FF801FC00BFC
FF802F800FF8
FFC03F400FF4
BFC07F402FF0
BFD07F003FE0
7FE0BE00BFC0
3FF4FD02FF40
1FFEFC0BFE00
0BFFFEBFF800
02FFFFFFE000
007FFFFE4000
000BFFA40000
000BE0000000
000FE0000000
000FD0000000
000140000000
ENDCHAR
STARTCHAR oslashacute
ENCODING 511
SWIDTH 459 0
DWIDTH 15 0
BBX 18 31 1 -4
BITMAP
0001400000
0007F00000
000BF40000
001FF00000
002FE00000
003F800000
00BF000000
00FD000000
01F5E00000
01E2E00000
0003D00000
0003D00000
00BFE00000
03FFFC0000
0FFFFF0000
2FEFFF8000
7F8F7FC000
BF4F2FD6A0
BF1F2FFFF0
FF1E2FFFE0
FF2E2FFE80
FF2D3F8000
BF7D7F4000
7FFEFF0000
2FFFFD0000
0FFFF40000
02FF800000
00F4000000
00F4000000
01F0000000
01E0000000
ENDCHAR
STARTCHAR uni0200
ENCODING 512
SWIDTH 786 0
DWIDTH 25 0
BBX 29 37 1 0
BITMAP
0000001405000000
000000FC1FC00000
000001FD2FD00000
000000FE1FE00000
000000BF0BE00000
0000003F47F00000
0000001F82F40000
0000000B40B40000
0000000000000000
0000000000000000
0000001AFFEA4000
000006FFFFFFE000
00006FFFFFFFE000
0001FFFE96AFD000
000BFF9000010000
002FFD0006900000
007FE0000FF40000
01FFC0001FF40000
02FF40001FF00000
07FE00002FF00000
0BFC00003FE00000
0FF800003FD00000
1FF400007FD00000
2FF00000BFC00000
3FE00000FFC00000
3FE00000FF800000
3FE00001FF800000
7FE00002FF400000
7FE00007FF400000
3FE0000BFF400000
3FF0001FFF400B00
2FF4003FFF401F40
1FFC00BEFF807F00
0BFF9BFCFFEAFD00
03FFFFF4BFFFF400
00BFFFD03FFFD000
001BF9000BFA0000
ENDCHAR
STARTCHAR uni0201
ENCODING 513
SWIDTH 470 0
DWIDTH 15 0
BBX 18 27 1 0
BITMAP
0B41F40000
2FC3FC0000
2FD3FD0000
1FE2FD0000
0BF0FE0000
07F47F0000
02F83F4000
00FC1F8000
00BC0BC000
002C038000
0000000000
0000000000
001BE00000
00BFFA4000
02FFFFC000
0BFFBF8000
1FF43F8000
3FE07F4000
7FC0BF4000
BF80BF0000
BF40FF00B0
FF01FE02F0
FF42FE0BF0
BFEBFFAFD0
7FFFBFFF40
2FFE2FFD00
0BF40BE000
ENDCHAR
STARTCHAR uni0202
ENCODING 514
SWIDTH 786 0
DWIDTH 25 0
BBX 29 36 1 0
BITMAP
0000000015400000
00000006FFF80000
0000001FFFFF0000
0000007FFFFF8000
000000BF907FD000
000000FE001FD000
000000B8000B8000
0000000000000000
0000000000000000
0000001AFFEA4000
000006FFFFFFE000
00006FFFFFFFE000
0001FFFE96AFD000
000BFF9000010000
002FFD0006900000
007FE0000FF40000
01FFC0001FF40000
02FF40001FF00000
07FE00002FF00000
0BFC00003FE00000
0FF800003FD00000
1FF400007FD00000
2FF00000BFC00000
3FE00000FFC00000
3FE00000FF800000
3FE00001FF800000
7FE00002FF400000
7FE00007FF400000
3FE0000BFF400000
3FF0001FFF400B00
2FF4003FFF401F40
1FFC00BEFF807F00
0BFF9BFCFFEAFD00
03FFFFF4BFFFF400
00BFFFD03FFFD000
001BF9000BFA0000
ENDCHAR
STARTCHAR uni0203
ENCODING 515
SWIDTH 470 0
DWIDTH 15 0
BBX 18 25 1 0
BITMAP
0000550000
001BFF9000
007FFFF400
01FFFFFC00
02FE07FE00
03F801FE00
07F000BE00
02D0007D00
0000000000
0000000000
001BE00000
00BFFA4000
02FFFFC000
0BFFBF8000
1FF43F8000
3FE07F4000
7FC0BF4000
BF80BF0000
BF40FF00B0
FF01FE02F0
FF42FE0BF0
BFEBFFAFD0
7FFFBFFF40
2FFE2FFD00
0BF40BE000
ENDCHAR
STARTCHAR uni0204
ENCODING 516
SWIDTH 686 0
DWIDTH 22 0
BBX 25 37 1 0
BITMAP
00005405000000
0001FC1FC00000
0001FD2FD00000
0001FE1FE00000
0000BF0BE00000
00003F47F00000
00001F82F40000
00000B40B00000
00000000000000
00000000000000
00001AFFA00000
0002FFFFFE0000
001FFFFFFF8000
007FFE96FFD000
00FFE0003FE000
02FF80002FE000
02FF00001FE000
03FF00002FE000
02FF00002FD000
01FF80001F8000
00FFE400000000
002FFFF0000000
000BFFF4000000
00BFFFF0000000
07FFEA50000000
1FFD0000000000
3FF00000000000
BFD00000000000
FFC00000000000
FF800000000000
FFC00000000000
BFD00000000680
7FF8000005BFC0
2FFFE96AFFFF80
0BFFFFFFFFFE00
01BFFFFFFFE400
0006BFFEA50000
ENDCHAR
STARTCHAR uni0205
ENCODING 517
SWIDTH 393 0
DWIDTH 13 0
BBX 16 27 1 0
BITMAP
7D0B8000
FE1FE000
FF1FF000
BF4FF000
7F87F400
2FC2F800
0FD1FC00
07E0BD00
03E03E00
01E01D00
00000000
00000000
006FD000
02FFF800
0FFFFC00
2FFAFD00
3FC0FD00
BF41FC00
BF07F800
FF6FF000
FFFF801E
FFF800BE
BF8007FD
7FF9BFF8
2FFFFFE0
0BFFFF40
01BFE400
ENDCHAR
STARTCHAR uni0206
ENCODING 518
SWIDTH 686 0
DWIDTH 22 0
BBX 25 36 1 0
BITMAP
00000015400000
000006FFF80000
00001FFFFF0000
00007FFFFF8000
0000BF807FC000
0000FE001FD000
0000B8000B8000
00000000000000
00000000000000
00001AFFA00000
0002FFFFFE0000
001FFFFFFF8000
007FFE96FFD000
00FFE0003FE000
02FF80002FE000
02FF00001FE000
03FF00002FE000
02FF00002FD000
01FF80001F8000
00FFE400000000
002FFFF0000000
000BFFF4000000
00BFFFF0000000
07FFEA50000000
1FFD0000000000
3FF00000000000
BFD00000000000
FFC00000000000
FF800000000000
FFC00000000000
BFD00000000680
7FF8000005BFC0
2FFFE96AFFFF80
0BFFFFFFFFFE00
01BFFFFFFFE400
0006BFFEA50000
ENDCHAR
STARTCHAR uni0207
ENCODING 519
SWIDTH 393 0
DWIDTH 13 0
BBX 16 25 1 0
BITMAP
00055000
007FFE00
02FFFFC0
0BFFFFE0
0FF41FF4
1FD007F4
2F8003F4
1E0001E0
00000000
00000000
006FD000
02FFF800
0FFFFC00
2FFAFD00
3FC0FD00
BF41FC00
BF07F800
FF6FF000
FFFF801E
FFF800BE
BF8007FD
7FF9BFF8
2FFFFFE0
0BFFFF40
01BFE400
ENDCHAR
STARTCHAR uni0208
ENCODING 520
SWIDTH 495 0
DWIDTH 16 0
BBX 19 37 -1 0
BITMAP
0005005000
001FC1F800
002FD2FC00
001FE1FD00
000BF0FE00
0003F47F00
0001F42F40
0000B40B00
0000000000
0000000000
002FFFFFF4
00BFFFFFF8
00BFFFFFF4
0015BFE550
00007FD000
00007FD000
0000BFC000
0000BFC000
0000BF8000
0000FF8000
0000FF4000
0001FF4000
0001FF0000
0002FF0000
0002FE0000
0003FE0000
0003FD0000
0007FD0000
0007FC0000
000BFC0000
000BFC0000
000FF80000
000FF80000
056FF95000
3FFFFFFC00
7FFFFFFC00
7FFFFFF400
ENDCHAR
STARTCHAR uni0209
ENCODING 521
SWIDTH 246 0
DWIDTH 8 0
BBX 15 27 -3 0
BITMAP
2E02E000
7F87F400
7FC7F800
3FD3FC00
1FD2FD00
0BE0FE00
07F07F00
02F42F40
00F81F40
00740B40
00000000
00000000
0007D000
000FE000
001FE000
002FD000
003FD000
003FC000
007F8000
007F8000
007F403C
007F40BC
007F42F8
007FEFF0
003FFFD0
002FFF00
000BE400
ENDCHAR
STARTCHAR uni020A
ENCODING 522
SWIDTH 495 0
DWIDTH 16 0
BBX 19 36 -1 0
BITMAP
0000015400
00006FFF80
0001FFFFF0
0007FFFFF8
000BF807FC
000FD002FC
000B8000B8
0000000000
0000000000
002FFFFFF4
00BFFFFFF8
00BFFFFFF4
0015BFE550
00007FD000
00007FD000
0000BFC000
0000BFC000
0000BF8000
0000FF8000
0000FF4000
0001FF4000
0001FF0000
0002FF0000
0002FE0000
0003FE0000
0003FD0000
0007FD0000
0007FC0000
000BFC0000
000BFC0000
000FF80000
000FF80000
056FF95000
3FFFFFFC00
7FFFFFFC00
7FFFFFF400
ENDCHAR
STARTCHAR uni020B
ENCODING 523
SWIDTH 246 0
DWIDTH 8 0
BBX 14 25 -1 0
BITMAP
00154000
02FFF800
0BFFFE00
2FFFFF80
7FD0BFC0
BF402FD0
BE001FD0
78000B80
00000000
00000000
007D0000
00FE0000
01FE0000
02FD0000
03FD0000
03FC0000
07F80000
07F80000
07F403C0
07F40BC0
07F42F80
07FEFF00
03FFFD00
02FFF000
00BE4000
ENDCHAR
STARTCHAR uni020C
ENCODING 524
SWIDTH 816 0
DWIDTH 26 0
BBX 24 37 2 0
BITMAP
000050050000
0002F83F4000
0003FC3F8000
0002FD3FC000
0000FE1FD000
00007E0BE000
00003F03F000
00001E01E000
000000000000
000000000000
00001BFE9000
0001FFFFF800
001FFFFFFF40
007FFE9BFFD0
01FFD000BFF0
03FF40002FF4
0BFD00000FFC
0FF800000BFC
2FF4000007FD
3FE0000007FD
7FD0000007FE
7FD0000007FD
BFC0000007FD
BFC0000007FD
FF80000007FD
FF8000000BFC
FF8000000FF8
FFC000000FF4
BFC000002FF0
BFD000003FE0
7FE00000BFC0
3FF40002FF40
1FFD000BFE00
0BFFE6BFF800
02FFFFFFE000
007FFFFE4000
0006FFA40000
ENDCHAR
STARTCHAR uni020D
ENCODING 525
SWIDTH 451 0
DWIDTH 14 0
BBX 19 27 0 0
BITMAP
1E02E00000
7F87F40000
7FC7F80000
3FD3FC0000
1FE2FD0000
0BE0FE0000
03F07F0000
02F42F4000
00F81F4000
00740B4000
0000000000
0000000000
001BF80000
00FFFE0000
03FFFF8000
0BFEFFD000
1FF0FFE000
2FE0BFFAB4
2FD07FFFF8
3FC02FFFF8
3FC00FFF90
2FD01FD000
2FE02FC000
1FFABF8000
0BFFFF0000
02FFF80000
006F900000
ENDCHAR
STARTCHAR uni020E
ENCODING 526
SWIDTH 816 0
DWIDTH 26 0
BBX 24 36 2 0
BITMAP
000000554000
000007FFF400
00002FFFFE00
0000BFFFFF40
0001FF41BF80
0001FC003F80
0001F4001F40
000000000000
000000000000
00001BFE9000
0001FFFFF800
001FFFFFFF40
007FFE9BFFD0
01FFD000BFF0
03FF40002FF4
0BFD00000FFC
0FF800000BFC
2FF4000007FD
3FE0000007FD
7FD0000007FE
7FD0000007FD
BFC0000007FD
BFC0000007FD
FF80000007FD
FF8000000BFC
FF8000000FF8
FFC000000FF4
BFC000002FF0
BFD000003FE0
7FE00000BFC0
3FF40002FF40
1FFD000BFE00
0BFFE6BFF800
02FFFFFFE000
007FFFFE4000
0006FFA40000
ENDCHAR
STARTCHAR uni020F
ENCODING 527
SWIDTH 451 0
DWIDTH 14 0
BBX 18 25 1 0
BITMAP
0005500000
007FFE0000
02FFFF8000
0BFFFFE000
1FF42FF000
2FD00BF400
2F8003F400
1E0002E000
0000000000
0000000000
006FE00000
03FFF80000
0FFFFE0000
2FFBFF4000
7FC3FF8000
BF82FFEAD0
BF41FFFFE0
FF00BFFFE0
FF003FFE40
BF407F4000
BF80BF0000
7FEAFE0000
2FFFFC0000
0BFFE00000
01BE400000
ENDCHAR
STARTCHAR uni0210
ENCODING 528
SWIDTH 880 0
DWIDTH 28 0
BBX 32 37 1 0
BITMAP
0000050050000000
00002F83F4000000
00003FC3F8000000
00002FD3FC000000
00001FD1FD000000
00000BE0BE000000
000003F03E000000
000001E01E000000
0000000000000000
0000000000000000
000001BFF9400000
00006FFFFFE00000
0002FFFFFFFD0000
000FFFA6BFFF0000
003FF40007FF4000
00BF800002FF8000
02FE02A400FFC000
03F807F800FFC000
0BF00BF800FF8000
0FE00FF801FF4000
1FD00FF402FF0000
2FC01FF407FD0000
2F801FF02FF80000
3F806FFAFFE00000
3F43FFFFFE400000
3F43FFFFF4000000
7F42FFFFFD000000
7F407FD7FF400000
3F407FC1FF800000
3F40BF80BFD00000
3F80BF807FE0001C
2FC0FF402FF4007D
1FE1FF401FFD01FC
0BFAFF000BFFABF4
03FFFE0003FFFFD0
00FFFD0001FFFF40
001BE400002FE400
ENDCHAR
STARTCHAR uni0211
ENCODING 529
SWIDTH 455 0
DWIDTH 15 0
BBX 18 27 1 0
BITMAP
2E02E00000
7F87F40000
7FC7F80000
3FD3FC0000
1FD2FD0000
0BE0FE0000
07F07F0000
02F42F4000
00F81F4000
00740B4000
0000000000
0000000000
07E01BD000
0FE0BFE000
1FD2FFE000
2FC7FFE000
3FCFFFD000
3FAF6FD0A0
7FBE2FD2F0
7FFC2FFFF0
7FF81FFFD0
7FF00BFE00
7FE0015000
7FD0000000
7FC0000000
3F80000000
1F40000000
ENDCHAR
STARTCHAR uni0212
ENCODING 530
SWIDTH 880 0
DWIDTH 28 0
BBX 32 36 1 0
BITMAP
0000000554000000
000000BFFF400000
000002FFFFD00000
00000BFFFFF40000
00001FF41BF80000
00001FC003F80000
00001F4001F40000
0000000000000000
0000000000000000
000001BFF9400000
00006FFFFFE00000
0002FFFFFFFD0000
000FFFA6BFFF0000
003FF40007FF4000
00BF800002FF8000
02FE02A400FFC000
03F807F800FFC000
0BF00BF800FF8000
0FE00FF801FF4000
1FD00FF402FF0000
2FC01FF407FD0000
2F801FF02FF80000
3F806FFAFFE00000
3F43FFFFFE400000
3F43FFFFF4000000
7F42FFFFFD000000
7F407FD7FF400000
3F407FC1FF800000
3F40BF80BFD00000
3F80BF807FE0001C
2FC0FF402FF4007D
1FE1FF401FFD01FC
0BFAFF000BFFABF4
03FFFE0003FFFFD0
00FFFD0001FFFF40
001BE400002FE400
ENDCHAR
STARTCHAR uni0213
ENCODING 531
SWIDTH 455 0
DWIDTH 15 0
BBX 18 25 1 0
BITMAP
0001540000
002FFF8000
00BFFFE000
02FFFFF800
07FD0BFC00
0BF402FD00
0BE001FD00
078000B800
0000000000
0000000000
07E01BD000
0FE0BFE000
1FD2FFE000
2FC7FFE000
3FCFFFD000
3FAF6FD0A0
7FBE2FD2F0
7FFC2FFFF0
7FF81FFFD0
7FF00BFE00
7FE0015000
7FD0000000
7FC0000000
3F80000000
1F40000000
ENDCHAR
STARTCHAR uni0214
ENCODING 532
SWIDTH 890 0
DWIDTH 28 0
BBX 33 37 0 0
BITMAP
000000501400000000
000003F47F00000000
000007F87F40000000
000003FC7F80000000
000001FC2FC0000000
000000FD0FD0000000
0000007E07D0000000
0000002D02D0000000
000000000000000000
000000000000000000
001BF8000002E00000
01FFFE00000BF40000
07FFFF40000BF80000
1FFAFF80000FF80000
7F80FF80000FF80000
BE00FF80001FF40000
F800FF80001FF40000
A000FF40002FF00000
0001FF40002FF00000
0002FF00003FE00000
0002FF00007FE00000
0003FE00007FD00000
0007FD0000BFD00000
0007FD0000FFC00000
000BFC0001FFC00000
000FF80002FFC00000
000FF80003FF800000
001FF4000BFF800000
001FF0000FFF400000
002FF0002EFF400000
002FF0007DFF400240
002FF001F8FF400F80
002FF007F0FF807F40
002FFEAFD0FFE6FF00
000FFFFF40BFFFF800
0007FFFD003FFFE000
0001BF900006FE4000
ENDCHAR
STARTCHAR uni0215
ENCODING 533
SWIDTH 462 0
DWIDTH 15 0
BBX 18 27 1 0
BITMAP
1F02E00000
3F87F40000
7FC7F80000
3FD3FC0000
1FE2FD0000
0BF0FE0000
03F07F0000
02F42F4000
00F81F4000
0074074000
0000000000
0000000000
07E00BC000
0FE02FC000
1FE03F8000
2FD07F8000
3FC0BF4000
3FC0FF4000
7F81FF0000
7F82FE0050
7F47FE01F0
7F9FFD07E0
7FFFFD0FE0
7FFEFFBF80
3FFCFFFF00
2FF4BFF800
0BD02F9000
ENDCHAR
STARTCHAR uni0216
ENCODING 534
SWIDTH 890 0
DWIDTH 28 0
BBX 33 36 0 0
BITMAP
000000005500000000
0000000BFFE0000000
0000007FFFFD000000
000000FFFFFF000000
000002FE41FF400000
000002F8007F400000
000001E0002E000000
000000000000000000
000000000000000000
001BF8000002E00000
01FFFE00000BF40000
07FFFF40000BF80000
1FFAFF80000FF80000
7F80FF80000FF80000
BE00FF80001FF40000
F800FF80001FF40000
A000FF40002FF00000
0001FF40002FF00000
0002FF00003FE00000
0002FF00007FE00000
0003FE00007FD00000
0007FD0000BFD00000
0007FD0000FFC00000
000BFC0001FFC00000
000FF80002FFC00000
000FF80003FF800000
001FF4000BFF800000
001FF0000FFF400000
002FF0002EFF400000
002FF0007DFF400240
002FF001F8FF400F80
002FF007F0FF807F40
002FFEAFD0FFE6FF00
000FFFFF40BFFFF800
0007FFFD003FFFE000
0001BF900006FE4000
ENDCHAR
STARTCHAR uni0217
ENCODING 535
SWIDTH 462 0
DWIDTH 15 0
BBX 18 25 1 0
BITMAP
0001540000
001FFF8000
00BFFFF000
02FFFFF800
07FD0BFC00
0BF402FD00
0BE000FD00
078000B800
0000000000
0000000000
07E00BC000
0FE02FC000
1FE03F8000
2FD07F8000
3FC0BF4000
3FC0FF4000
7F81FF0000
7F82FE0050
7F47FE01F0
7F9FFD07E0
7FFFFD0FE0
7FFEFFBF80
3FFCFFFF00
2FF4BFF800
0BD02F9000
ENDCHAR
STARTCHAR uni0218
ENCODING 536
SWIDTH 693 0
DWIDTH 22 0
BBX 21 36 1 -9
BITMAP
00006BFE4000
000BFFFFF800
007FFFFFFE00
01FFFA6BFF40
03FF4000BFC0
07FD00003FC0
0BFC00003FC0
0BFC00003FC0
0BFC00003F80
07FE00002F40
03FFD0000000
01FFF9000000
007FFFE00000
001FFFFE0000
0001BFFFD000
00001BFFF800
0000007FFD00
2E00000BFE00
BF400002FF00
BF400001FF00
FF400002FF00
BF400003FE00
BFD0000BFD00
7FFE96BFF800
1FFFFFFFE000
07FFFFFF4000
006BFFA40000
000000000000
000000000000
0001F4000000
0002FC000000
0003FC000000
0003F8000000
0003F4000000
0003F0000000
0002E0000000
ENDCHAR
STARTCHAR uni0219
ENCODING 537
SWIDTH 427 0
DWIDTH 14 0
BBX 19 25 -1 -10
BITMAP
0001F80000
0003F80000
000BF40000
000FF00000
002FF00000
003FF80000
00BFFD0000
01FEFF4000
03F4FFC078
0BE07FD1F8
1FC03FD7F8
7F5BFFFFF0
7D2FFFFFD0
143FFFFF40
002FFFE400
0007F80000
0000000000
0002D00000
000BF00000
000BF00000
000FE00000
000FD00000
000FC00000
000F800000
000B400000
ENDCHAR
STARTCHAR uni021A
ENCODING 538
SWIDTH 697 0
DWIDTH 22 0
BBX 28 36 1 -9
BITMAP
00016AFFFFFFE8
006FFFFFFFFFFE
07FFFFFFFFFFFE
1FFEA5FF9556A8
7FD000FF800000
BF4001FF400000
BF0001FF000000
FF0002FF000000
BF4003FE000000
7F8003FE000000
2F4007FD000000
040007FD000000
00000BFC000000
00000BFC000000
00000FF8000000
00000FF4000000
00001FF4000000
00001FF4000000
00002FF0000000
00002FF0000000
00003FE0000000
00003FE0000000
00003FE0000000
00007FD0000000
00007FD0000000
00007FC0000000
00002F40000000
00000000000000
00000000000000
00002E00000000
00007F40000000
0000BF40000000
0000BF00000000
0000BE00000000
0000BD00000000
00007800000000
ENDCHAR
STARTCHAR uni021B
ENCODING 539
SWIDTH 393 0
DWIDTH 13 0
BBX 17 39 0 -10
BITMAP
0000050000
00007FC000
0001FFD000
0007FFE000
000BE7F000
001FC3F000
002F83F000
003F47E000
007F0BD000
00BF0FC000
00FE1F8000
01FD3F0000
01FDFD0000
02FFF40000
BFFFFFF400
FFFFFFF400
FFFFFFE000
1BFD554000
03F8000000
03F8000000
07F8000000
03F8000000
03FC000740
03FD001F80
02FE007F40
01FFAAFE00
00BFFFF800
002FFFE000
0006FE4000
0000000000
0000000000
000B800000
001FD00000
002FD00000
002FC00000
002F800000
002F400000
002F000000
001E000000
ENDCHAR
STARTCHAR uni022A
ENCODING 554
SWIDTH 816 0
DWIDTH 26 0
BBX 24 40 2 0
BITMAP
000005555400
00001FFFFE00
00001FFFFE00
00001FFFFD00
000000000000
000000000000
00002F40B800
00007FC2FE00
0000BFC3FE00
0000BFC3FE00
00002E41F800
000000000000
000000000000
00001BFE9000
0001FFFFF800
001FFFFFFF40
007FFE9BFFD0
01FFD000BFF0
03FF40002FF4
0BFD00000FFC
0FF800000BFC
2FF4000007FD
3FE0000007FD
7FD0000007FE
7FD0000007FD
BFC0000007FD
BFC0000007FD
FF80000007FD
FF8000000BFC
FF8000000FF8
FFC000000FF4
BFC000002FF0
BFD000003FE0
7FE00000BFC0
3FF40002FF40
1FFD000BFE00
0BFFE6BFF800
02FFFFFFE000
007FFFFE4000
0006FFA40000
ENDCHAR
STARTCHAR uni022B
ENCODING 555
SWIDTH 451 0
DWIDTH 14 0
BBX 18 28 1 0
BITMAP
0055554000
02FFFFD000
02FFFFD000
01FFFF8000
0000000000
0000000000
02E01F8000
0BF83FD000
0FF87FD000
0BF83FD000
07E02F4000
0000000000
0000000000
006FE00000
03FFF80000
0FFFFE0000
2FFBFF4000
7FC3FF8000
BF82FFEAD0
BF41FFFFE0
FF00BFFFE0
FF003FFE40
BF407F4000
BF80BF0000
7FEAFE0000
2FFFFC0000
0BFFE00000
01BE400000
ENDCHAR
STARTCHAR uni022C
ENCODING 556
SWIDTH 816 0
DWIDTH 26 0
BBX 24 42 2 0
BITMAP
000005555400
00000FFFFF00
00001FFFFF00
00000FFFFD00
000000000000
000000000000
000005400000
00002FE00780
0000BFFD1FC0
0001FFFF7F80
0002FCBFFF40
0003F41FFE00
00015002F800
000000000000
000000000000
00001BFE9000
0001FFFFF800
001FFFFFFF40
007FFE9BFFD0
01FFD000BFF0
03FF40002FF4
0BFD00000FFC
0FF800000BFC
2FF4000007FD
3FE0000007FD
7FD0000007FE
7FD0000007FD
BFC0000007FD
BFC0000007FD
FF80000007FD
FF8000000BFC
FF8000000FF8
FFC000000FF4
BFC000002FF0
BFD000003FE0
7FE00000BFC0
3FF40002FF40
1FFD000BFE00
0BFFE6BFF800
02FFFFFFE000
007FFFFE4000
0006FFA40000
ENDCHAR
STARTCHAR uni022D
ENCODING 557
SWIDTH 451 0
DWIDTH 14 0
BBX 18 30 1 0
BITMAP
0055554000
01FFFFE000
02FFFFE000
01FFFFD000
0000000000
0000000000
0050000000
03FD00B400
0BFF82F800
1FFFF7F400
3F8BFFE000
3F01FFD000
14002E4000
0000000000
0000000000
006FE00000
03FFF80000
0FFFFE0000
2FFBFF4000
7FC3FF8000
BF82FFEAD0
BF41FFFFE0
FF00BFFFE0
FF003FFE40
BF407F4000
BF80BF0000
7FEAFE0000
2FFFFC0000
0BFFE00000
01BE400000
ENDCHAR
STARTCHAR uni0230
ENCODING 560
SWIDTH 816 0
DWIDTH 26 0
BBX 24 40 2 0
BITMAP
000005555400
00001FFFFE00
00001FFFFE00
00001FFFFD00
000000000000
000000000000
000000BE0000
000002FF8000
000003FF8000
000002FF8000
000000BE0000
000000000000
000000000000
00001BFE9000
0001FFFFF800
001FFFFFFF40
007FFE9BFFD0
01FFD000BFF0
03FF40002FF4
0BFD00000FFC
0FF800000BFC
2FF4000007FD
3FE0000007FD
7FD0000007FE
7FD0000007FD
BFC0000007FD
BFC0000007FD
FF80000007FD
FF8000000BFC
FF8000000FF8
FFC000000FF4
BFC000002FF0
BFD000003FE0
7FE00000BFC0
3FF40002FF40
1FFD000BFE00
0BFFE6BFF800
02FFFFFFE000
007FFFFE4000
0006FFA40000
ENDCHAR
STARTCHAR uni0231
ENCODING 561
SWIDTH 451 0
DWIDTH 14 0
BBX 18 28 1 0
BITMAP
0055554000
02FFFFD000
02FFFFD000
01FFFF8000
0000000000
0000000000
000BE00000
002FF40000
003FF40000
003FF40000
001FD00000
0000000000
0000000000
006FE00000
03FFF80000
0FFFFE0000
2FFBFF4000
7FC3FF8000
BF82FFEAD0
BF41FFFFE0
FF00BFFFE0
FF003FFE40
BF407F4000
BF80BF0000
7FEAFE0000
2FFFFC0000
0BFFE00000
01BE400000
ENDCHAR
STARTCHAR uni0232
ENCODING 562
SWIDTH 851 0
DWIDTH 27 0
BBX 31 44 0 -11
BITMAP
0000001555500000
0000003FFFF80000
0000007FFFFC0000
0000003FFFF40000
0000000000000000
0000000000000000
001BF8000002E400
01FFFE00000BF800
07FFFF40000BF800
1FFAFF80000FF800
7F80FF80000FF800
BE00FF80001FF400
F800FF80001FF400
A000FF40002FF000
0001FF40003FF000
0002FF00003FE000
0002FF00007FE000
0003FE0000BFE000
0007FD0000FFD000
0007FD0001FFD000
000BFC0003FFC000
000BFC0007FFC000
000BF8000FBF8000
000FF8002FBF8000
000BFC00BDBF8000
000BFE06F8BF4000
0007FFFFF0FF56B4
0002FFFFC0FFFFF8
0000BFFE06FFFFF4
000005506FFFFE50
00000007FFFE4000
0000007FFBFD0000
000002FF82FD0000
00000BF803FC0000
00002FD007FC0000
00007F400BF80000
0000BF000FF40000
0000FE001FE00000
0001FE007FD00000
0001FF41FF800000
0000FFFFFE000000
00007FFFF8000000
00001FFFD0000000
0000015400000000
ENDCHAR
STARTCHAR uni0233
ENCODING 563
SWIDTH 479 0
DWIDTH 15 0
BBX 19 36 0 -15
BITMAP
0015555000
007FFFF800
00BFFFF800
007FFFF000
0000000000
0000000000
01F802F000
03F80BF000
07F80FF000
0BF41FE000
0FF02FE000
0FF03FD000
1FE07FC000
1FD0BFC014
1FD1FF80B8
1FE7FF87F8
1FFFFFAFF4
1FFFBFFFD0
0FFF7FFE00
0BFD7FF400
02F4BF8000
0007FE0000
001FFD0000
007FFD0000
01FEFC0000
07F6F80000
0FD3F80000
2F83F40000
7F07F00000
BD0BE00000
FC1FD00000
FC2F800000
FEBF400000
FFFE000000
7FF8000000
1FD0000000
ENDCHAR
STARTCHAR uni0237
ENCODING 567
SWIDTH 254 0
DWIDTH 8 0
BBX 20 30 -8 -15
BITMAP
000002F400
000007F800
000007F800
00000BF400
00000BF400
00000BF400
00000FF000
00000FF000
00000FE01D
00001FE0BE
00001FD7FD
00001FEFF4
00002FFF80
00002FFD00
00002FE400
0000BF8000
0002FF4000
000FFF4000
003FFF0000
00FDBE0000
02F4FE0000
0BE1FD0000
1F82FC0000
2F43F80000
3F07F40000
7F0FE00000
7FAFD00000
3FFF800000
2FFE000000
0BE4000000
ENDCHAR
STARTCHAR uni0259
ENCODING 601
SWIDTH 458 0
DWIDTH 15 0
BBX 13 15 1 0
BITMAP
06FF9000
2FFFF800
3FFFFE00
3E9BFF40
0000BF80
00007FC0
00003FC0
2FFFFFC0
BFFFFFC0
BFFFFF80
BF00BF40
7FE6FF00
3FFFFD00
1FFFF400
02FF9000
ENDCHAR
STARTCHAR uni02BC
ENCODING 700
SWIDTH 600 0
DWIDTH 19 0
BBX 5 8 8 17
BITMAP
2E00
7F80
7F40
7F40
7F00
7E00
7D00
7800
ENDCHAR
STARTCHAR circumflex
ENCODING 710
SWIDTH 600 0
DWIDTH 19 0
BBX 11 11 4 17
BITMAP
000500
003FC0
00BFD0
01FFE0
03FBF0
0BF3F4
0FD3F4
2FC2F8
7F42FC
BF01FC
7D00F4
ENDCHAR
STARTCHAR caron
ENCODING 711
SWIDTH 600 0
DWIDTH 19 0
BBX 12 11 5 17
BITMAP
150014
3F00BD
7F41FD
3F43F8
3F87F0
2F8FE0
1F9FC0
0FFF40
0FFE00
0BFD00
02E400
ENDCHAR
STARTCHAR uni02C9
ENCODING 713
SWIDTH 600 0
DWIDTH 19 0
BBX 11 4 4 17
BITMAP
155550
7FFFF8
7FFFF8
3FFFF4
ENDCHAR
STARTCHAR breve
ENCODING 728
SWIDTH 600 0
DWIDTH 19 0
BBX 14 7 3 17
BITMAP
2E0002D0
7F400BE0
7F802FD0
3FFABFC0
2FFFFF40
0BFFFD00
01BFA000
ENDCHAR
STARTCHAR dotaccent
ENCODING 729
SWIDTH 600 0
DWIDTH 19 0
BBX 6 5 7 17
BITMAP
2F80
BFE0
FFE0
BFD0
2F80
ENDCHAR
STARTCHAR ring
ENCODING 730
SWIDTH 600 0
DWIDTH 19 0
BBX 9 9 6 17
BITMAP
0BF400
3FFE00
BFFF40
FC2F40
F81F40
FC2F40
BFFF00
7FFD00
1BE400
ENDCHAR
STARTCHAR ogonek
ENCODING 731
SWIDTH 600 0
DWIDTH 19 0
BBX 9 10 4 -8
BITMAP
02C000
0FE000
2F8000
7F0000
BE0000
BE0000
BF9540
7FFF80
2FFF80
06FE00
ENDCHAR
STARTCHAR tilde
ENCODING 732
SWIDTH 600 0
DWIDTH 19 0
BBX 14 7 3 17
BITMAP
01500000
0BF801E0
2FFE07F0
7FFFDFE0
BE2FFFC0
BC07FF40
1400BD00
ENDCHAR
STARTCHAR hungarumlaut
ENCODING 733
SWIDTH 600 0
DWIDTH 19 0
BBX 13 10 5 17
BITMAP
02E02E00
07F87F40
0BF8BF40
0BF4FF00
0FE1FE00
1FC2FC00
2F83F400
3F07E000
7D07D000
38078000
ENDCHAR
STARTCHAR gravecomb
ENCODING 768
SWIDTH 0 0
DWIDTH 0 0
BBX 8 10 -16 17
BITMAP
0500
3F40
7FC0
3FD0
1FE0
0BF4
02F8
00FC
007E
001D
ENDCHAR
STARTCHAR acutecomb
ENCODING 769
SWIDTH 0 0
DWIDTH 0 0
BBX 8 10 -11 17
BITMAP
0050
01FC
02FD
07FC
0BF4
1FE0
2F80
3F00
BD00
7400
ENDCHAR
STARTCHAR uni0302
ENCODING 770
SWIDTH 0 0
DWIDTH 0 0
BBX 11 11 -15 17
BITMAP
000500
007F80
00FFD0
02FFD0
07FBE0
0BE7F0
1FD3F4
3F83F4
7F42F8
FE02F8
B801F4
ENDCHAR
STARTCHAR tildecomb
ENCODING 771
SWIDTH 0 0
DWIDTH 0 0
BBX 14 7 -16 17
BITMAP
01400000
0FF402D0
2FFE07E0
7FFFDFD0
FE2FFFC0
FC07FF40
5000B900
ENDCHAR
STARTCHAR uni0304
ENCODING 772
SWIDTH 0 0
DWIDTH 0 0
BBX 11 4 -15 17
BITMAP
155550
7FFFF8
BFFFF8
7FFFF4
ENDCHAR
STARTCHAR uni0306
ENCODING 774
SWIDTH 0 0
DWIDTH 0 0
BBX 14 7 -16 17
BITMAP
7D0007C0
BF000FD0
BF802FD0
7FEAFFC0
2FFFFF40
0BFFFD00
01BF9000
ENDCHAR
STARTCHAR uni0307
ENCODING 775
SWIDTH 0 0
DWIDTH 0 0
BBX 6 5 -12 17
BITMAP
2F80
BFD0
FFE0
FFD0
6F40
ENDCHAR
STARTCHAR uni0308
ENCODING 776
SWIDTH 0 0
DWIDTH 0 0
BBX 12 5 -15 17
BITMAP
2E41F8
BF83FD
FF87FD
BF83FD
7E01F4
ENDCHAR
STARTCHAR hookabovecomb
ENCODING 777
SWIDTH 0 0
DWIDTH 0 0
BBX 9 9 -13 17
BITMAP
2FE400
7FFD00
2FFF00
003F40
002F40
003F00
0BFE00
0FF800
0FE000
ENDCHAR
STARTCHAR uni030A
ENCODING 778
SWIDTH 0 0
DWIDTH 0 0
BBX 10 9 -14 17
BITMAP
02F900
1FFF40
2FFFC0
3F0BD0
7E0BD0
7E0FC0
3FFF80
1FFF40
06F800
ENDCHAR
STARTCHAR uni030B
ENCODING 779
SWIDTH 0 0
DWIDTH 0 0
BBX 13 10 -14 17
BITMAP
02E02D00
07F4BF40
0BF4FF40
0FF1FF00
1FE2FD00
2FC2F800
3F43F400
7E07E000
7D0BC000
78074000
ENDCHAR
STARTCHAR uni030C
ENCODING 780
SWIDTH 0 0
DWIDTH 0 0
BBX 12 11 -14 17
BITMAP
140014
7E00FD
7F02FC
7F43F8
3F4BF0
2F4FD0
2FAF80
1FBF40
0FFE00
0BFC00
02E000
ENDCHAR
STARTCHAR uni030F
ENCODING 783
SWIDTH 0 0
DWIDTH 0 0
BBX 13 10 -18 17
BITMAP
1F02E000
3F87F400
7FC7F800
2FD3FC00
1FE1FD00
0BF0FE00
03F47F00
02F42F40
00F80F80
00740740
ENDCHAR
STARTCHAR uni0311
ENCODING 785
SWIDTH 0 0
DWIDTH 0 0
BBX 14 8 -16 17
BITMAP
00154000
01FFF800
0BFFFF00
2FFFFF80
7FD0BFC0
BF402FD0
BE000FD0
78000780
ENDCHAR
STARTCHAR uni0312
ENCODING 786
SWIDTH 0 0
DWIDTH 0 0
BBX 5 8 -11 17
BITMAP
2E00
7F40
BF40
BF00
BE00
BD00
BC00
7800
ENDCHAR
STARTCHAR uni031B
ENCODING 795
SWIDTH 0 0
DWIDTH 0 0
BBX 7 8 -11 12
BITMAP
0050
01F4
02F8
03F4
1FF4
3FE0
3F80
7900
ENDCHAR
STARTCHAR dotbelowcomb
ENCODING 803
SWIDTH 0 0
DWIDTH 0 0
BBX 6 5 -15 -7
BITMAP
2F80
BFE0
FFE0
FFD0
6F40
ENDCHAR
STARTCHAR uni0324
ENCODING 804
SWIDTH 0 0
DWIDTH 0 0
BBX 12 5 -18 -7
BITMAP
2F41F8
BF83FD
BF83FD
BF83FD
7E01F4
ENDCHAR
STARTCHAR uni0326
ENCODING 806
SWIDTH 0 0
DWIDTH 0 0
BBX 4 8 -14 -10
BITMAP
7D
BF
FF
FE
FD
FC
F8
B4
ENDCHAR
STARTCHAR uni0327
ENCODING 807
SWIDTH 0 0
DWIDTH 0 0
BBX 10 9 -18 -8
BITMAP
03FE00
07FFC0
06FFE0
000BF0
0007E0
156FE0
7FFFC0
7FFF40
2FE800
ENDCHAR
STARTCHAR uni0328
ENCODING 808
SWIDTH 0 0
DWIDTH 0 0
BBX 9 10 -15 -8
BITMAP
078000
1FD000
3F4000
7E0000
BD0000
FE0000
BF9500
BFFF80
2FFF40
0BF900
ENDCHAR
STARTCHAR uni032E
ENCODING 814
SWIDTH 0 0
DWIDTH 0 0
BBX 13 7 -19 -9
BITMAP
7C000780
FE001FC0
FF403FC0
BFE6FF80
3FFFFF00
1FFFF800
01BF9000
ENDCHAR
STARTCHAR uni0331
ENCODING 817
SWIDTH 0 0
DWIDTH 0 0
BBX 10 4 -17 -5
BITMAP
155550
FFFFF0
FFFFF0
BFFFE0
ENDCHAR
STARTCHAR uni0394
ENCODING 916
SWIDTH 700 0
DWIDTH 22 0
BBX 19 28 1 0
BITMAP
000002E000
000007F400
00000FF800
00001FF800
00002FFC00
00007FFC00
0000BFFD00
0000FEBD00
0002FDBE00
0003F8BF00
0007F47F00
000BF07F40
001FE03F40
002FC03F80
003F802FC0
00BF402FC0
00FF001FD0
01FD001FD0
02FC000FE0
07F8000FE0
0BF4000BF0
0FE0000BF4
2FD00007F4
3FC00007F8
7FFFFFFFF8
BFFFFFFFFC
FFFFFFFFFC
7FFFFFFFF8
ENDCHAR
STARTCHAR uni03A9
ENCODING 937
SWIDTH 816 0
DWIDTH 26 0
BBX 27 28 -1 0
BITMAP
0000006FFA4000
000007FFFFE000
00002FFFFFFD00
0000FFFFFFFF00
0003FFE41BFF80
000BFE0001FFD0
001FF800007FE0
003FF000003FF0
007FD000002FF4
00BFC000001FF4
00FF8000001FF4
01FF4000001FF8
02FF0000001FF4
02FF0000001FF4
03FE0000001FF4
03FE0000001FF0
03FE0000002FF0
03FF0000003FE0
02FF0000007FD0
02FF000000BFC0
01FF400001FF40
00FF800003FF00
00BFD0000BFD00
003FF4002FF400
2FFFFC00BFFFE0
7FFFFE02FFFFF4
BFFFFE02FFFFF4
7FFFFD01FFFFE0
ENDCHAR
STARTCHAR uni03BC
ENCODING 956
SWIDTH 462 0
DWIDTH 15 0
BBX 18 24 1 -9
BITMAP
0150054000
0BF01FC000
0FE02FC000
1FD03F8000
2FC07F4000
3FC0BF4000
3F81FF0000
7F82FE0000
7F47FE00A0
7F9FFD07F0
BFFFFE1FE0
BFFEFFFFC0
BFFCFFFF40
FFF4BFF800
FFD02F9000
FE00000000
FE00000000
FE00000000
FE00000000
FE00000000
FE00000000
FE00000000
FE00000000
BD00000000
ENDCHAR
STARTCHAR pi
ENCODING 960
SWIDTH 496 0
DWIDTH 16 0
BBX 20 16 0 0
BITMAP
2FFFFFFFD0
7FFFFFFFD0
3FFFFFFF80
07F807F400
0BF40BF400
0BF40FF000
0FF00FF000
0FF01FE000
1FE01FE005
1FE01FD01F
2FE01FD07F
2FD01FE1FE
2FD01FFFF8
3FD00FFFF0
3FC00BFF80
1F8001FD00
ENDCHAR
STARTCHAR uni0400
ENCODING 1024
SWIDTH 686 0
DWIDTH 22 0
BBX 25 37 1 0
BITMAP
00054000000000
001FD000000000
002FF800000000
001FFE00000000
0007FF80000000
00007FF4000000
00000BFC000000
000000B8000000
00000000000000
00000000000000
00001AFFA00000
0002FFFFFE0000
001FFFFFFF8000
007FFE96FFD000
00FFE0003FE000
02FF80002FE000
02FF00001FE000
03FF00002FE000
02FF00002FD000
01FF80001F8000
00FFE400000000
002FFFF0000000
000BFFF4000000
00BFFFF0000000
07FFEA50000000
1FFD0000000000
3FF00000000000
BFD00000000000
FFC00000000000
FF800000000000
FFC00000000000
BFD00000000680
7FF8000005BFC0
2FFFE96AFFFF80
0BFFFFFFFFFE00
01BFFFFFFFE400
0006BFFEA50000
ENDCHAR
STARTCHAR uni0401
ENCODING 1025
SWIDTH 686 0
DWIDTH 22 0
BBX 25 34 1 0
BITMAP
00001F80BD0000
00003FD1FF0000
00007FE2FF4000
00003FD1FF0000
00001F80BD0000
00000000000000
00000000000000
00001AFFA00000
0002FFFFFE0000
001FFFFFFF8000
007FFE96FFD000
00FFE0003FE000
02FF80002FE000
02FF00001FE000
03FF00002FE000
02FF00002FD000
01FF80001F8000
00FFE400000000
002FFFF0000000
000BFFF4000000
00BFFFF0000000
07FFEA50000000
1FFD0000000000
3FF00000000000
BFD00000000000
FFC00000000000
FF800000000000
FFC00000000000
BFD00000000680
7FF8000005BFC0
2FFFE96AFFFF80
0BFFFFFFFFFE00
01BFFFFFFFE400
0006BFFEA50000
ENDCHAR
STARTCHAR uni0402
ENCODING 1026
SWIDTH 974 0
DWIDTH 31 0
BBX 34 42 1 -15
BITMAP
00016AFFFFFFE80000
006FFFFFFFFFFE0000
07FFFFFFFFFFFE0000
1FFE95FF9555A80000
3FE000FF4000000000
BF4001FF4000000000
BF0001FF0000000000
FF0002FF0000000000
BF0003FE0000000000
BF8003FE0000000000
7F8007FD0000000000
1A0007FD0000000000
00000BFC06BF900000
00000BFC2FFFF80000
00000FF8FFFFFD0000
00000FFBFFFFFF0000
00001FFFF907FF0000
00001FFF8002FF4000
00002FFD0001FF4000
00002FF80001FF0080
00003FF00002FF07E0
00003FE00002FE2FE0
00003FE00002FFFFD0
00007FD00003FFFF40
00007FD00003FFF900
00007FD00007FFE000
00002F40000BFF4000
00000000002FFC0000
0000000001FFF80000
0000000007FFF40000
000000001FFFF00000
000000007FEFF00000
00000000FF6FE00000
00000002FD3FD00000
00000007F47FC00000
0000000BF0BF400000
0000000FE0FF000000
0000000FD1FE000000
0000000FEBFC000000
0000000FFFF4000000
0000000BFFD0000000
00000001FE00000000
ENDCHAR
STARTCHAR uni0403
ENCODING 1027
SWIDTH 635 0
DWIDTH 20 0
BBX 27 37 1 0
BITMAP
00000000050000
000000007F4000
00000001FF8000
0000000BFF8000
0000002FFE0000
000000BFE00000
000002FE000000
000001E0000000
00000000000000
00000000000040
0005AFFFFFFFF4
01BFFFFFFFFFF4
0BFFFFFFFFFFE0
2FFFBFF5555500
7FE43FE0000000
BF403FD0000000
BF007FD0000000
FF00BFC0000000
BF40BFC0000000
7F80FF80000000
3F40FF40000000
0401FF40000000
0001FF00000000
0002FF00000000
0002FE00000000
0003FE00000000
0003FD00000000
0007FD00000000
0007FC00000000
000BFC00000000
000BFC00000000
000FF800000000
000FF800000000
000FF800000000
001FF400000000
001FF400000000
000BE000000000
ENDCHAR
STARTCHAR uni0404
ENCODING 1028
SWIDTH 687 0
DWIDTH 22 0
BBX 24 27 2 0
BITMAP
00001BFE8000
0001FFFFF800
001FFFFFFD00
007FFE5BFF00
01FFE001FF40
03FF4000FF40
0BFE0000FF40
0FF80000FF40
2FF40000FF00
3FF000007900
7FE000000000
7FD000000000
BFFFFFFC0000
BFFFFFFD0000
FFFFFFFD0000
FFD555540000
FFC000000000
BFC000000000
BFD000000000
7FE000000000
3FF000000000
2FFC00000019
0FFF400006FF
03FFF956BFFE
00BFFFFFFFFD
001FFFFFFF90
0001AFFEA400
ENDCHAR
STARTCHAR uni0405
ENCODING 1029
SWIDTH 693 0
DWIDTH 22 0
BBX 21 27 1 0
BITMAP
00006BFE4000
000BFFFFF800
007FFFFFFE00
01FFFA6BFF40
03FF4000BFC0
07FD00003FC0
0BFC00003FC0
0BFC00003FC0
0BFC00003F80
07FE00002F40
03FFD0000000
01FFF9000000
007FFFE00000
001FFFFE0000
0001BFFFD000
00001BFFF800
0000007FFD00
2E00000BFE00
BF400002FF00
BF400001FF00
FF400002FF00
BF400003FE00
BFD0000BFD00
7FFE96BFF800
1FFFFFFFE000
07FFFFFF4000
006BFFA40000
ENDCHAR
STARTCHAR uni0406
ENCODING 1030
SWIDTH 495 0
DWIDTH 16 0
BBX 19 27 -1 0
BITMAP
002FFFFFF4
00BFFFFFF8
00BFFFFFF4
0015BFE550
00007FD000
00007FD000
0000BFC000
0000BFC000
0000BF8000
0000FF8000
0000FF4000
0001FF4000
0001FF0000
0002FF0000
0002FE0000
0003FE0000
0003FD0000
0007FD0000
0007FC0000
000BFC0000
000BFC0000
000FF80000
000FF80000
056FF95000
3FFFFFFC00
7FFFFFFC00
7FFFFFF400
ENDCHAR
STARTCHAR uni0407
ENCODING 1031
SWIDTH 495 0
DWIDTH 16 0
BBX 19 34 -1 0
BITMAP
0001F80BD0
0003FD1FF0
0007FD2FF0
0007FD2FF0
0002F40B90
0000000000
0000000000
002FFFFFF4
00BFFFFFF8
00BFFFFFF4
0015BFE550
00007FD000
00007FD000
0000BFC000
0000BFC000
0000BF8000
0000FF8000
0000FF4000
0001FF4000
0001FF0000
0002FF0000
0002FE0000
0003FE0000
0003FD0000
0007FD0000
0007FC0000
000BFC0000
000BFC0000
000FF80000
000FF80000
056FF95000
3FFFFFFC00
7FFFFFFC00
7FFFFFF400
ENDCHAR
STARTCHAR uni0408
ENCODING 1032
SWIDTH 743 0
DWIDTH 24 0
BBX 23 31 2 -4
BITMAP
0005AFFFE940
007FFFFFFFF4
07FFFFFFFFF4
1FFFA95AFFF4
3FE40000BF80
7F800000FF80
BF400000FF80
BF000000FF40
BF400001FF40
7F800001FF00
3F800001FF00
1A000002FE00
00000002FE00
0000006FFD00
000006FFFD00
00002FFFFC00
0001FFFBFC00
0007FF4BF800
001FF80FF400
007FD00FF000
00FF401FE000
02FE002FD000
03FD003FC000
03FC00BF8000
07F800FF0000
07FC02FE0000
03FE1BFC0000
02FFFFF40000
01FFFFD00000
007FFE000000
000550000000
ENDCHAR
STARTCHAR uni0409
ENCODING 1033
SWIDTH 1158 0
DWIDTH 37 0
BBX 37 27 0 0
BITMAP
0000000007F400000000
000000001FF800000000
000000002FF800000000
000000003FF800000000
000000007FF800000000
00000000BFF800000000
00000000FFF800000000
00000001FFF800000000
00000002FFF800000000
00000003FFF400000000
00000007FBF45BFE4000
0000000BFBFAFFFFF400
0000000FEBFFFFFFFD00
0000001FDBFFE56FFF00
0000003FCBF90007FF40
0000007F8BF40001FF80
000000BF4BF40000FF80
000001FF0BF40000FF80
000002FD0BF80000FF80
140007FC0BF80001FF40
7E000FF80BFC0002FF00
BF002FF007FD0007FE00
BF40BFD003FF401FFC00
7FE6FF8001FFE5BFF400
2FFFFE0000BFFFFFD000
0BFFF800001FFFFE4000
01BF90000002BFA40000
ENDCHAR
STARTCHAR uni040A
ENCODING 1034
SWIDTH 1182 0
DWIDTH 38 0
BBX 39 27 -1 0
BITMAP
000AF9000007E0000000
00BFFF40000FF4000000
02FFFFC0001FF4000000
0FF9BFD0001FF0000000
2FC03FD0002FE0000000
7F003FE0003FE0000000
7C003FE0003FD0000000
24003FD0007FC0000000
00003FD000BF80000000
00003FD000BF40554000
00007FC000FFAFFFF900
00007FC001FFFFFFFF40
0000BFD5ABFFFFFFFFD0
007FFFFFFFFFE501FFF0
00FFFFFFFFFE00003FF4
00BFFFFFA6FE00001FF4
0016FF0002FE00001FF4
0002FE0003FD00001FF4
0003FE0003FD00001FF4
0003FD0002FE00002FF0
0007FD0002FE00003FE0
000BFC0001FF0000BFD0
000BF80000FF8002FF80
000FF40000BFE56FFE00
001FF400003FFFFFF800
001FE000000BFFFFD000
000B90000001BFE90000
ENDCHAR
STARTCHAR uni040B
ENCODING 1035
SWIDTH 979 0
DWIDTH 31 0
BBX 35 27 1 0
BITMAP
00016AFFFFFFE80000
006FFFFFFFFFFE0000
07FFFFFFFFFFFE0000
1FFE95FF9555A80000
3FE000FF4000000000
BF4001FF4000000000
BF0001FF0000000000
FF0002FF0000000000
BF0003FE0000000000
BF8003FE0000000000
7F8007FD0000000000
1A0007FD0000000000
00000BFC06BF900000
00000BFC2FFFF80000
00000FF8FFFFFD0000
00000FFBFFFFFF0000
00001FFFF907FF0000
00001FFF8001FF4000
00002FFE0001FF0000
00002FF80001FF0000
00003FF00002FF0064
00003FE00002FE01F4
00003FE00003FE07F4
00007FD00003FF6FE0
00007FD00003FFFF80
00007FD00002FFFD00
00002F800000BFA000
ENDCHAR
STARTCHAR uni040C
ENCODING 1036
SWIDTH 937 0
DWIDTH 30 0
BBX 33 37 1 0
BITMAP
000000000000140000
000000000000BF0000
000000000002FF4000
00000000001FFF0000
00000000007FF80000
0000000001FF900000
0000000007F9000000
000000000390000000
000000000000000000
000000000000000000
0006BFF940000BD000
007FFFFFE0002FE000
02FFFFFFF0003FE000
0BFF96FFE0007FD000
1FF400FF4000BFC000
2FD001FF4001FF4000
3FC001FF0002FF0000
3FC002FF0007FD0000
2FD002FE000FF80000
1FE003FE002FF00000
0FD003FD00BFD00000
014003FD07FF000000
00001BFEBFF8000000
0000BFFFFF90000000
0000BFFFFD00000000
00007FFFFF80000000
00000FF9BFE0000000
00000FF43FF4000000
00000FF41FF8000000
00001FF00BFD000000
B8002FF007FE0002C0
FD003FE003FF400BC0
FF00BFD001FFC02FC0
BFE6FF8000BFFAFF40
7FFFFF00007FFFFD00
1FFFFD00001FFFF400
01BF90000002FE4000
ENDCHAR
STARTCHAR uni040D
ENCODING 1037
SWIDTH 890 0
DWIDTH 28 0
BBX 33 37 0 0
BITMAP
000015000000000000
00007F400000000000
0000BFE00000000000
00007FF80000000000
00001FFE0000000000
000002FFD000000000
0000002FF000000000
00000002E000000000
000000000000000000
000000000000000000
001BF8000002E00000
01FFFE00000BF40000
07FFFF40000BF80000
1FFAFF80000FF80000
7F80FF80000FF80000
BE00FF80001FF40000
F800FF80001FF40000
A000FF40002FF00000
0001FF40002FF00000
0002FF00003FE00000
0002FF00007FE00000
0003FE00007FD00000
0007FD0000BFD00000
0007FD0000FFC00000
000BFC0001FFC00000
000FF80002FFC00000
000FF80003FF800000
001FF4000BFF800000
001FF0000FFF400000
002FF0002EFF400000
002FF0007DFF400240
002FF001F8FF400F80
002FF007F0FF807F40
002FFEAFD0FFE6FF00
000FFFFF40BFFFF800
0007FFFD003FFFE000
0001BF900006FE4000
ENDCHAR
STARTCHAR uni040E
ENCODING 1038
SWIDTH 824 0
DWIDTH 26 0
BBX 30 44 1 -8
BITMAP
0000000000B40000
000002E001F80000
000007F402F80000
000007FD1BF00000
000003FFFFD00000
000001FFFF400000
0000002FE8000000
0000000000000000
0000000000000000
006FD000001B8000
07FFF800002FE000
2FFFFC00003FE000
7F9BFD00007FE000
BD03FD00007FD000
B403FD0000BFD000
0007FD0000FFC000
0007FD0001FFC000
000BFC0002FF8000
000FF80003FF8000
001FF4000BFF4000
001FF4000FFF4000
002FF0002FFF0000
002FF000BEFF0000
001FF402F9FE0000
001FFE6FF6FE0000
000BFFFFD2FD0000
0003FFFE03FD0140
0000BFE403FEBFD0
0000000007FFFFE0
000000006FFFFFC0
0000000BFFFFA500
000000BFFFF80000
000007FFEFF40000
00002FF90FF00000
0000BFD01FF00000
0001FE001FE00000
0003FC002FD00000
0007F8007FC00000
0007F400BF400000
0007F802FF000000
0007FE6FFD000000
0003FFFFF4000000
0001FFFF90000000
00002FF900000000
ENDCHAR
STARTCHAR uni040F
ENCODING 1039
SWIDTH 890 0
DWIDTH 28 0
BBX 33 33 0 -6
BITMAP
001BF8000002E00000
01FFFE00000BF40000
07FFFF40000BF80000
1FF6FF80000FF80000
7F80FF80000FF80000
BD00FF80001FF40000
F800FF80001FF40000
A000FF40002FF00000
0001FF40002FF00000
0002FF00003FE00000
0002FF00007FE00000
0003FE00007FD00000
0007FD0000BFD00000
0007FD0000FFC00000
000BFC0001FFC00000
000FF80002FFC00000
000FF80007FF800000
001FF4000BFF800000
001FF0001FFF400000
002FF0002EFF400000
002FF0007DFF400740
002FF001F8FF400F80
002FF40BF0FF807F40
002FFEBFD0FFE6FE00
000FFFFF40BFFFF800
0007FFFD003FFFE000
0001BFD00006FE4000
00007FC00000000000
0000BF800000000000
0000BF800000000000
0000FF400000000000
0000FF400000000000
0000BD000000000000
ENDCHAR
STARTCHAR uni0410
ENCODING 1040
SWIDTH 786 0
DWIDTH 25 0
BBX 29 27 1 0
BITMAP
0000001AFFEA4000
000006FFFFFFE000
00006FFFFFFFE000
0001FFFE96AFD000
000BFF9000010000
002FFD0006900000
007FE0000FF40000
01FFC0001FF40000
02FF40001FF00000
07FE00002FF00000
0BFC00003FE00000
0FF800003FD00000
1FF400007FD00000
2FF00000BFC00000
3FE00000FFC00000
3FE00000FF800000
3FE00001FF800000
7FE00002FF400000
7FE00007FF400000
3FE0000BFF400000
3FF0001FFF400B00
2FF4003FFF401F40
1FFC00BEFF807F00
0BFF9BFCFFEAFD00
03FFFFF4BFFFF400
00BFFFD03FFFD000
001BF9000BFA0000
ENDCHAR
STARTCHAR uni0411
ENCODING 1041
SWIDTH 917 0
DWIDTH 29 0
BBX 28 30 1 -2
BITMAP
00000000000040
0005AFFFFFFFF4
00BFFFFFFFFFF4
07FFFFFFFFFFE0
1FFFAFFD555500
3FE00BF8000000
BF400FF8000000
BF000FF4000000
FF001FF4000000
BF002FF0000000
BF802FF0000000
7F803FE0000000
19003FE0554000
00007FFFFFFE40
0001BFFFFFFFD0
000FFFFFFFFFF4
001FFFE5007FFC
001FFF80000BFD
0001FF400007FE
0001FF400003FE
0001FF400003FE
0001FF000003FE
0002FF00000BFD
0002FF00001FFC
0003FE00007FF4
0003FE0006FFE0
0003FE02BFFF80
0003FD0FFFF900
0002FC0FFE9000
00005001500000
ENDCHAR
STARTCHAR uni0412
ENCODING 1042
SWIDTH 827 0
DWIDTH 26 0
BBX 28 29 0 -2
BITMAP
000016BFFE9400
0016FFFFFFFE40
01BFFFFFFFFFE0
1BFFFEA96BFFF8
3FFE5000006FFD
7FE00000000BFE
3D0054000003FE
0003FD000003FE
0007FD000007FE
000BFC00000BFD
000FF800006FF8
000FF40016FFE0
001FF41FFFFF40
002FF02FFFE400
002FE02FFFD000
003FE016BFF800
003FD0000BFE00
007FD00002FF00
007FC00001FF40
00BFC00002FF40
00BF800003FF00
00FF80000BFE00
00FF40006FFC00
00FFA5ABFFF400
01FFFFFFFFD000
01FFFFFFF90000
01FFFFFA400000
01FF0000000000
00540000000000
ENDCHAR
STARTCHAR uni0413
ENCODING 1043
SWIDTH 635 0
DWIDTH 20 0
BBX 27 28 1 0
BITMAP
00000000000040
0005AFFFFFFFF4
01BFFFFFFFFFF4
0BFFFFFFFFFFE0
2FFFBFF5555500
7FE43FE0000000
BF403FD0000000
BF007FD0000000
FF00BFC0000000
BF40BFC0000000
7F80FF80000000
3F40FF40000000
0401FF40000000
0001FF00000000
0002FF00000000
0002FE00000000
0003FE00000000
0003FD00000000
0007FD00000000
0007FC00000000
000BFC00000000
000BFC00000000
000FF800000000
000FF800000000
000FF800000000
001FF400000000
001FF400000000
000BE000000000
ENDCHAR
STARTCHAR uni0414
ENCODING 1044
SWIDTH 964 0
DWIDTH 31 0
BBX 30 27 0 0
BITMAP
0000016BFFA40000
00006FFFFFFF4000
0002FFFFFFFFE000
001FFFEA56FFFC00
002FF900001BFF00
002F80000002FF80
000400680000FFC0
000001FE00007FD0
000003FD00003FE0
000007FC00003FF0
00000FF800002FF0
00001FF000002FF0
00002FF000002FF0
00003FE000002FF0
00003FD000002FF0
00007FC000003FF0
00007FC000003FE0
0000BF8000007FD0
0054BF800000BFC0
0BFFFF400001FF80
2FFFFF000002FF40
7FFFFF90000BFE00
7F42FFFE407FFD00
7F5BFEFFFFFFF400
7FFFF4BFFFFFD000
2FFFD01FFFFF4000
0BFE4001BFE40000
ENDCHAR
STARTCHAR uni0415
ENCODING 1045
SWIDTH 686 0
DWIDTH 22 0
BBX 25 27 1 0
BITMAP
00001AFFA00000
0002FFFFFE0000
001FFFFFFF8000
007FFE96FFD000
00FFE0003FE000
02FF80002FE000
02FF00001FE000
03FF00002FE000
02FF00002FD000
01FF80001F8000
00FFE400000000
002FFFF0000000
000BFFF4000000
00BFFFF0000000
07FFEA50000000
1FFD0000000000
3FF00000000000
BFD00000000000
FFC00000000000
FF800000000000
FFC00000000000
BFD00000000680
7FF8000005BFC0
2FFFE96AFFFF80
0BFFFFFFFFFE00
01BFFFFFFFE400
0006BFFEA50000
ENDCHAR
STARTCHAR uni0416
ENCODING 1046
SWIDTH 1234 0
DWIDTH 39 0
BBX 42 27 1 0
BITMAP
0006FE00002F40002BF800
003FFFD0007FC000FFFF40
00FFFFF000BFC003FFFF80
00FD6FF800BF800BFDBFC0
00E00BFC00FF800FF42F40
000003FD00FF402FE00000
000001FE00FF407FD00000
000000FF01FF00BF800000
000000BF41FF02FF400000
0000007F82FE0BFE000000
0000003FE2FE7FF8000000
0000001FFFFFFFD0000000
00000003FFFFF900000000
0000002FFFFFFD00000000
000000FFFFFFFF80000000
000003FF8BF8BFD0000000
00000BFD0BF82FF0000000
00001FF80FF81FF4000000
00003FF00FF40BFC000000
00007FD00FF407FD000000
0000BF801FF003FE0001D0
7D01FF401FF002FF4007D0
FE03FE002FF000FFC01FD0
FF9BFC002FE000BFF9BF80
BFFFF4002FE0002FFFFE00
2FFFD0003FD0000FFFF400
06FE00001F800001BE8000
ENDCHAR
STARTCHAR uni0417
ENCODING 1047
SWIDTH 725 0
DWIDTH 23 0
BBX 20 27 2 0
BITMAP
0001AFF900
001FFFFFD0
00BFFFFFF0
02FFE5BFF8
07FE000FF8
0BF8000BFC
0BF40007F8
0BF4000BF8
07F4000BF4
02A0001FF0
0000003FD0
000001FF40
0001BFFF40
000BFFFFF0
000BFE5FFC
00015003FE
00000002FF
29000002FF
BF000002FF
FF400003FF
FF400007FE
FF80001FFD
BFD0007FF8
7FF95BFFE0
2FFFFFFF80
07FFFFF900
006FFE9000
ENDCHAR
STARTCHAR uni0418
ENCODING 1048
SWIDTH 890 0
DWIDTH 28 0
BBX 33 27 0 0
BITMAP
001BF8000002E00000
01FFFE00000BF40000
07FFFF40000BF80000
1FFAFF80000FF80000
7F80FF80000FF80000
BE00FF80001FF40000
F800FF80001FF40000
A000FF40002FF00000
0001FF40002FF00000
0002FF00003FE00000
0002FF00007FE00000
0003FE00007FD00000
0007FD0000BFD00000
0007FD0000FFC00000
000BFC0001FFC00000
000FF80002FFC00000
000FF80003FF800000
001FF4000BFF800000
001FF0000FFF400000
002FF0002EFF400000
002FF0007DFF400240
002FF001F8FF400F80
002FF007F0FF807F40
002FFEAFD0FFE6FF00
000FFFFF40BFFFF800
0007FFFD003FFFE000
0001BF900006FE4000
ENDCHAR
STARTCHAR uni0419
ENCODING 1049
SWIDTH 890 0
DWIDTH 28 0
BBX 33 36 0 0
BITMAP
00000000001E000000
000000B8003F000000
000000FE007F000000
000000FF42FD000000
000000BFFFF8000000
0000003FFFE0000000
00000006FE40000000
000000000000000000
000000000000000000
001BF8000002E00000
01FFFE00000BF40000
07FFFF40000BF80000
1FFAFF80000FF80000
7F80FF80000FF80000
BE00FF80001FF40000
F800FF80001FF40000
A000FF40002FF00000
0001FF40002FF00000
0002FF00003FE00000
0002FF00007FE00000
0003FE00007FD00000
0007FD0000BFD00000
0007FD0000FFC00000
000BFC0001FFC00000
000FF80002FFC00000
000FF80003FF800000
001FF4000BFF800000
001FF0000FFF400000
002FF0002EFF400000
002FF0007DFF400240
002FF001F8FF400F80
002FF007F0FF807F40
002FFEAFD0FFE6FF00
000FFFFF40BFFFF800
0007FFFD003FFFE000
0001BF900006FE4000
ENDCHAR
STARTCHAR uni041A
ENCODING 1050
SWIDTH 937 0
DWIDTH 30 0
BBX 33 27 1 0
BITMAP
0006BFF940000BD000
007FFFFFE0002FE000
02FFFFFFF0003FE000
0BFF96FFE0007FD000
1FF400FF4000BFC000
2FD001FF4001FF4000
3FC001FF0002FF0000
3FC002FF0007FD0000
2FD002FE000FF80000
1FE003FE002FF00000
0FD003FD00BFD00000
014003FD07FF000000
00001BFEBFF8000000
0000BFFFFF90000000
0000BFFFFD00000000
00007FFFFF80000000
00000FF9BFE0000000
00000FF43FF4000000
00000FF41FF8000000
00001FF00BFD000000
B8002FF007FE0002C0
FD003FE003FF400BC0
FF00BFD001FFC02FC0
BFE6FF8000BFFAFF40
7FFFFF00007FFFFD00
1FFFFD00001FFFF400
01BF90000002FE4000
ENDCHAR
STARTCHAR uni041B
ENCODING 1051
SWIDTH 861 0
DWIDTH 28 0
BBX 32 27 0 0
BITMAP
0000000006F40000
000000001FF80000
000000002FFC0000
000000003FF80000
000000007FF80000
00000000BFF80000
00000000FFF80000
00000001FFF80000
00000002FFF80000
00000003FFF40000
00000007FFF40000
0000000BFBF40000
0000000FEBF40000
0000001FDBF40000
0000003FCFF40000
0000007F8FF40000
000000BF4BF80000
000001FF0BF80000
000002FE0BF80000
000007FC0BFC0000
2D000FF807FC000D
BF002FF003FD003E
BF40BFD003FE00BD
7FE6FF8001FF9BFC
2FFFFE0000FFFFF0
0BFFF800007FFF80
01BF9000000BF900
ENDCHAR
STARTCHAR uni041C
ENCODING 1052
SWIDTH 1133 0
DWIDTH 36 0
BBX 41 27 0 0
BITMAP
00000006F80001BD000000
0000000FFD0003FF400000
0000001FFE0007FF400000
0000001FFE000BFF400000
0000002FFD001FFF400000
0000003FFD002FFF000000
0000003FFD003FFF000000
0000007FFD00BFFF000000
0000007FFD00FEFF000000
000000BFFD01FEFE000000
000000FEFD02FDFE000000
000000FEFE03F9FE000000
000001FDFE07F5FE000000
000002FCFE0FF2FE000000
000003FCFE1FE2FE000000
000003F8FE2FD2FE000000
000007F4FF2FC2FE000000
00000BF0BF3F82FE000000
00000FF0BF7F02FE000000
00001FE0BFBE01FE000000
7D002FD07FFD01FF000740
BF007F807FFC00FF401F40
BF40FF403FF800FF807F40
7FE7FE003FF400BFE6FE00
3FFFFC002FF0003FFFF800
1FFFF4001FE0001FFFD000
02BE40000BD00006FA0000
ENDCHAR
STARTCHAR uni041D
ENCODING 1053
SWIDTH 873 0
DWIDTH 28 0
BBX 33 28 -1 0
BITMAP
0000000000001BE000
000AF90000007FF800
00BFFF400001FFFC00
02FFFFC00007F87D00
0FFABFD0000BF07D00
2FD03FD0001FE07D00
7F003FE0002FD07D00
7C002FE0003FC0BC00
24003FD0007F80FC00
00003FD000BF42F400
00003FD000FF0BF000
00007FC001FF6FD000
00007FC001FFFF4000
0000BFD55AFFFD0000
007FFFFFFFFFE00000
00FFFFFFFFFE400000
00BFFFFEA7FD000000
0016FF0003FD000000
0002FE0003FD000000
0003FE0003FD000000
0003FD0003FD000000
0007FC0003FE0003C0
000BFC0002FE000BC0
000BF80001FF402F80
000FF40000FFE6FF40
001FF400007FFFFD00
001FE000001FFFE000
000B80000002FE4000
ENDCHAR
STARTCHAR uni041E
ENCODING 1054
SWIDTH 816 0
DWIDTH 26 0
BBX 24 27 2 0
BITMAP
00001BFE9000
0001FFFFF800
001FFFFFFF40
007FFE9BFFD0
01FFD000BFF0
03FF40002FF4
0BFD00000FFC
0FF800000BFC
2FF4000007FD
3FE0000007FD
7FD0000007FE
7FD0000007FD
BFC0000007FD
BFC0000007FD
FF80000007FD
FF8000000BFC
FF8000000FF8
FFC000000FF4
BFC000002FF0
BFD000003FE0
7FE00000BFC0
3FF40002FF40
1FFD000BFE00
0BFFE6BFF800
02FFFFFFE000
007FFFFE4000
0006FFA40000
ENDCHAR
STARTCHAR uni041F
ENCODING 1055
SWIDTH 892 0
DWIDTH 29 0
BBX 32 27 1 0
BITMAP
00016AFFFFFAA550
006FFFFFFFFFFFFD
07FFFFFFFFFFFFFE
1FFFFFF5556FFFFD
3FE42FF0002FF010
BF802FE0002FF000
BF003FE0003FE000
FF007FD0003FE000
BF407FD0007FD000
7F80BFC0007FD000
3F40BFC000BFC000
0500FF8000BF8000
0000FF4000FF8000
0001FF4001FF4000
0001FF0001FF0000
0002FF0002FF0000
0002FE0002FE0000
0003FE0003FE0000
0003FE0003FD0000
0007FD0007FD0000
0007FD0007FC001D
000BFC0007FD003E
000BFC0007FD00FD
000BFC0003FF9BF8
000FF80001FFFFE0
000FF80000BFFF80
0007E000001BF900
ENDCHAR
ENDFONT
